NotoAmalgamated-CondensedExtraThin.ufo
<glyph name="exclam" format="2">
  <advance width="285"/>
  <unicode hex="0021"/>
  <outline>
    <contour>
      <point x="144" y="714" type="line"/>
      <point x="146" y="174" type="line"/>
      <point x="170" y="174" type="line"/>
      <point x="172" y="714" type="line"/>
    </contour>
    <contour>
      <point x="131" y="23" type="curve"/>
      <point x="131" y="23" type="line"/>
      <point x="131" y="6"/>
      <point x="136" y="-8"/>
      <point x="156" y="-8" type="curve"/>
      <point x="180" y="-8"/>
      <point x="183" y="6"/>
      <point x="183" y="23" type="curve"/>
      <point x="183" y="39"/>
      <point x="180" y="54"/>
      <point x="156" y="54" type="curve"/>
      <point x="136" y="54"/>
      <point x="131" y="39"/>
    </contour>
  </outline>
</glyph>
<glyph name="exclam.sans" format="2">
  <advance width="285"/>
  <unicode hex="0021"/>
  <outline>
    <contour>
      <point x="144" y="807" type="line"/>
      <point x="146" y="267" type="line"/>
      <point x="170" y="267" type="line"/>
      <point x="172" y="807" type="line"/>
    </contour>
    <contour>
      <point x="131" y="116" type="curve"/>
      <point x="131" y="116" type="line"/>
      <point x="131" y="99"/>
      <point x="136" y="85"/>
      <point x="156" y="85" type="curve"/>
      <point x="180" y="85"/>
      <point x="183" y="99"/>
      <point x="183" y="116" type="curve"/>
      <point x="183" y="132"/>
      <point x="180" y="147"/>
      <point x="156" y="147" type="curve"/>
      <point x="136" y="147"/>
      <point x="131" y="132"/>
    </contour>
  </outline>
</glyph>
<glyph name="quotedbl" format="2">
  <advance width="350"/>
  <unicode hex="0022"/>
  <outline>
    <contour>
      <point x="106" y="729" type="line"/>
      <point x="109" y="471" type="line"/>
      <point x="132" y="471" type="line"/>
      <point x="135" y="729" type="line"/>
    </contour>
    <contour>
      <point x="232" y="729" type="line"/>
      <point x="235" y="471" type="line"/>
      <point x="258" y="471" type="line"/>
      <point x="261" y="729" type="line"/>
    </contour>
  </outline>
</glyph>
<glyph name="quotedbl.sans" format="2">
  <advance width="350"/>
  <unicode hex="0022"/>
  <outline>
    <contour>
      <point x="106" y="822" type="line"/>
      <point x="109" y="564" type="line"/>
      <point x="132" y="564" type="line"/>
      <point x="135" y="822" type="line"/>
    </contour>
    <contour>
      <point x="232" y="822" type="line"/>
      <point x="235" y="564" type="line"/>
      <point x="258" y="564" type="line"/>
      <point x="261" y="822" type="line"/>
    </contour>
  </outline>
</glyph>
<glyph name="numbersign" format="2">
  <advance width="465"/>
  <unicode hex="0023"/>
  <outline>
    <contour>
      <point x="31" y="194" type="line"/>
      <point x="127" y="194" type="line"/>
      <point x="99" y="0" type="line"/>
      <point x="125" y="0" type="line"/>
      <point x="152" y="194" type="line"/>
      <point x="278" y="194" type="line"/>
      <point x="251" y="0" type="line"/>
      <point x="277" y="0" type="line"/>
      <point x="303" y="194" type="line"/>
      <point x="407" y="194" type="line"/>
      <point x="407" y="220" type="line"/>
      <point x="308" y="220" type="line"/>
      <point x="334" y="414" type="line"/>
      <point x="434" y="414" type="line"/>
      <point x="434" y="440" type="line"/>
      <point x="339" y="440" type="line"/>
      <point x="366" y="632" type="line"/>
      <point x="340" y="632" type="line"/>
      <point x="314" y="440" type="line"/>
      <point x="187" y="440" type="line"/>
      <point x="214" y="632" type="line"/>
      <point x="188" y="632" type="line"/>
      <point x="162" y="440" type="line"/>
      <point x="58" y="440" type="line"/>
      <point x="58" y="414" type="line"/>
      <point x="157" y="414" type="line"/>
      <point x="131" y="220" type="line"/>
      <point x="31" y="220" type="line"/>
    </contour>
    <contour>
      <point x="309" y="414" type="line"/>
      <point x="283" y="220" type="line"/>
      <point x="156" y="220" type="line"/>
      <point x="182" y="414" type="line"/>
    </contour>
  </outline>
</glyph>
<glyph name="numbersign.sans" format="2">
  <advance width="465"/>
  <unicode hex="0023"/>
  <outline>
    <contour>
      <point x="31" y="287" type="line"/>
      <point x="127" y="287" type="line"/>
      <point x="99" y="93" type="line"/>
      <point x="125" y="93" type="line"/>
      <point x="152" y="287" type="line"/>
      <point x="278" y="287" type="line"/>
      <point x="251" y="93" type="line"/>
      <point x="277" y="93" type="line"/>
      <point x="303" y="287" type="line"/>
      <point x="407" y="287" type="line"/>
      <point x="407" y="313" type="line"/>
      <point x="308" y="313" type="line"/>
      <point x="334" y="507" type="line"/>
      <point x="434" y="507" type="line"/>
      <point x="434" y="533" type="line"/>
      <point x="339" y="533" type="line"/>
      <point x="366" y="725" type="line"/>
      <point x="340" y="725" type="line"/>
      <point x="314" y="533" type="line"/>
      <point x="187" y="533" type="line"/>
      <point x="214" y="725" type="line"/>
      <point x="188" y="725" type="line"/>
      <point x="162" y="533" type="line"/>
      <point x="58" y="533" type="line"/>
      <point x="58" y="507" type="line"/>
      <point x="157" y="507" type="line"/>
      <point x="131" y="313" type="line"/>
      <point x="31" y="313" type="line"/>
    </contour>
    <contour>
      <point x="309" y="507" type="line"/>
      <point x="283" y="313" type="line"/>
      <point x="156" y="313" type="line"/>
      <point x="182" y="507" type="line"/>
    </contour>
  </outline>
</glyph>
<glyph name="percent" format="2">
  <advance width="594"/>
  <unicode hex="0025"/>
  <outline>
    <contour>
      <point x="454" y="622" type="line"/>
      <point x="425" y="622" type="line"/>
      <point x="142" y="0" type="line"/>
      <point x="171" y="0" type="line"/>
    </contour>
    <contour>
      <point x="151" y="276" type="curve"/>
      <point x="151" y="276" type="line"/>
      <point x="217" y="276"/>
      <point x="251" y="339"/>
      <point x="251" y="455" type="curve"/>
      <point x="251" y="569"/>
      <point x="217" y="632"/>
      <point x="151" y="632" type="curve"/>
      <point x="85" y="632"/>
      <point x="51" y="568"/>
      <point x="51" y="455" type="curve"/>
      <point x="51" y="338"/>
      <point x="85" y="276"/>
    </contour>
    <contour>
      <point x="150" y="301" type="curve"/>
      <point x="150" y="301" type="line"/>
      <point x="100" y="301"/>
      <point x="77" y="353"/>
      <point x="77" y="455" type="curve"/>
      <point x="77" y="557"/>
      <point x="101" y="607"/>
      <point x="151" y="607" type="curve"/>
      <point x="203" y="607"/>
      <point x="225" y="553"/>
      <point x="225" y="455" type="curve"/>
      <point x="225" y="350"/>
      <point x="201" y="301"/>
    </contour>
    <contour>
      <point x="443" y="-10" type="curve"/>
      <point x="443" y="-10" type="line"/>
      <point x="509" y="-10"/>
      <point x="543" y="53"/>
      <point x="543" y="169" type="curve"/>
      <point x="543" y="283"/>
      <point x="509" y="346"/>
      <point x="443" y="346" type="curve"/>
      <point x="377" y="346"/>
      <point x="343" y="282"/>
      <point x="343" y="169" type="curve"/>
      <point x="343" y="52"/>
      <point x="377" y="-10"/>
    </contour>
    <contour>
      <point x="442" y="15" type="curve"/>
      <point x="442" y="15" type="line"/>
      <point x="392" y="15"/>
      <point x="369" y="67"/>
      <point x="369" y="169" type="curve"/>
      <point x="369" y="271"/>
      <point x="393" y="321"/>
      <point x="443" y="321" type="curve"/>
      <point x="495" y="321"/>
      <point x="517" y="267"/>
      <point x="517" y="169" type="curve"/>
      <point x="517" y="64"/>
      <point x="493" y="15"/>
    </contour>
  </outline>
</glyph>
<glyph name="percent.sans" format="2">
  <advance width="594"/>
  <unicode hex="0025"/>
  <outline>
    <contour>
      <point x="454" y="715" type="line"/>
      <point x="425" y="715" type="line"/>
      <point x="142" y="93" type="line"/>
      <point x="171" y="93" type="line"/>
    </contour>
    <contour>
      <point x="151" y="369" type="curve"/>
      <point x="151" y="369" type="line"/>
      <point x="217" y="369"/>
      <point x="251" y="432"/>
      <point x="251" y="548" type="curve"/>
      <point x="251" y="662"/>
      <point x="217" y="725"/>
      <point x="151" y="725" type="curve"/>
      <point x="85" y="725"/>
      <point x="51" y="661"/>
      <point x="51" y="548" type="curve"/>
      <point x="51" y="431"/>
      <point x="85" y="369"/>
    </contour>
    <contour>
      <point x="150" y="394" type="curve"/>
      <point x="150" y="394" type="line"/>
      <point x="100" y="394"/>
      <point x="77" y="446"/>
      <point x="77" y="548" type="curve"/>
      <point x="77" y="650"/>
      <point x="101" y="700"/>
      <point x="151" y="700" type="curve"/>
      <point x="203" y="700"/>
      <point x="225" y="646"/>
      <point x="225" y="548" type="curve"/>
      <point x="225" y="443"/>
      <point x="201" y="394"/>
    </contour>
    <contour>
      <point x="443" y="83" type="curve"/>
      <point x="443" y="83" type="line"/>
      <point x="509" y="83"/>
      <point x="543" y="146"/>
      <point x="543" y="262" type="curve"/>
      <point x="543" y="376"/>
      <point x="509" y="439"/>
      <point x="443" y="439" type="curve"/>
      <point x="377" y="439"/>
      <point x="343" y="375"/>
      <point x="343" y="262" type="curve"/>
      <point x="343" y="145"/>
      <point x="377" y="83"/>
    </contour>
    <contour>
      <point x="442" y="108" type="curve"/>
      <point x="442" y="108" type="line"/>
      <point x="392" y="108"/>
      <point x="369" y="160"/>
      <point x="369" y="262" type="curve"/>
      <point x="369" y="364"/>
      <point x="393" y="414"/>
      <point x="443" y="414" type="curve"/>
      <point x="495" y="414"/>
      <point x="517" y="360"/>
      <point x="517" y="262" type="curve"/>
      <point x="517" y="157"/>
      <point x="493" y="108"/>
    </contour>
  </outline>
</glyph>
<glyph name="quotesingle" format="2">
  <advance width="224"/>
  <unicode hex="0027"/>
  <outline>
    <contour>
      <point x="106" y="729" type="line"/>
      <point x="109" y="471" type="line"/>
      <point x="132" y="471" type="line"/>
      <point x="135" y="729" type="line"/>
    </contour>
  </outline>
</glyph>
<glyph name="quotesingle.sans" format="2">
  <advance width="224"/>
  <unicode hex="0027"/>
  <outline>
    <contour>
      <point x="106" y="822" type="line"/>
      <point x="109" y="564" type="line"/>
      <point x="132" y="564" type="line"/>
      <point x="135" y="822" type="line"/>
    </contour>
  </outline>
</glyph>
<glyph name="parenleft" format="2">
  <advance width="275"/>
  <unicode hex="0028"/>
  <outline>
    <contour>
      <point x="188" y="-165" type="curve"/>
      <point x="188" y="-165" type="line"/>
      <point x="216" y="-165" type="line"/>
      <point x="139" y="-29"/>
      <point x="93" y="140"/>
      <point x="93" y="333" type="curve"/>
      <point x="93" y="527"/>
      <point x="139" y="696"/>
      <point x="216" y="832" type="curve"/>
      <point x="188" y="832" type="line"/>
      <point x="116" y="704"/>
      <point x="66" y="534"/>
      <point x="66" y="334" type="curve"/>
      <point x="66" y="133"/>
      <point x="116" y="-37"/>
    </contour>
  </outline>
</glyph>
<glyph name="parenleft.sans" format="2">
  <advance width="275"/>
  <unicode hex="0028"/>
  <outline>
    <contour>
      <point x="188" y="-72" type="curve"/>
      <point x="188" y="-72" type="line"/>
      <point x="216" y="-72" type="line"/>
      <point x="139" y="64"/>
      <point x="93" y="233"/>
      <point x="93" y="426" type="curve"/>
      <point x="93" y="620"/>
      <point x="139" y="789"/>
      <point x="216" y="925" type="curve"/>
      <point x="188" y="925" type="line"/>
      <point x="116" y="797"/>
      <point x="66" y="627"/>
      <point x="66" y="427" type="curve"/>
      <point x="66" y="226"/>
      <point x="116" y="56"/>
    </contour>
  </outline>
</glyph>
<glyph name="parenright" format="2">
  <advance width="275"/>
  <unicode hex="0029"/>
  <outline>
    <contour>
      <point x="59" y="-165" type="curve"/>
      <point x="59" y="-165" type="line"/>
      <point x="87" y="-165" type="line"/>
      <point x="159" y="-37"/>
      <point x="209" y="133"/>
      <point x="209" y="333" type="curve"/>
      <point x="209" y="534"/>
      <point x="159" y="704"/>
      <point x="87" y="832" type="curve"/>
      <point x="59" y="832" type="line"/>
      <point x="136" y="696"/>
      <point x="182" y="527"/>
      <point x="182" y="334" type="curve"/>
      <point x="182" y="140"/>
      <point x="136" y="-29"/>
    </contour>
  </outline>
</glyph>
<glyph name="parenright.sans" format="2">
  <advance width="275"/>
  <unicode hex="0029"/>
  <outline>
    <contour>
      <point x="59" y="-72" type="curve"/>
      <point x="59" y="-72" type="line"/>
      <point x="87" y="-72" type="line"/>
      <point x="159" y="56"/>
      <point x="209" y="226"/>
      <point x="209" y="426" type="curve"/>
      <point x="209" y="627"/>
      <point x="159" y="797"/>
      <point x="87" y="925" type="curve"/>
      <point x="59" y="925" type="line"/>
      <point x="136" y="789"/>
      <point x="182" y="620"/>
      <point x="182" y="427" type="curve"/>
      <point x="182" y="233"/>
      <point x="136" y="64"/>
    </contour>
  </outline>
</glyph>
<glyph name="asterisk" format="2">
  <advance width="507"/>
  <unicode hex="002A"/>
  <outline>
    <contour>
      <point x="242" y="533" type="line"/>
      <point x="128" y="381" type="line"/>
      <point x="151" y="365" type="line"/>
      <point x="259" y="522" type="line"/>
      <point x="368" y="364" type="line"/>
      <point x="391" y="381" type="line"/>
      <point x="276" y="533" type="line"/>
      <point x="459" y="589" type="line"/>
      <point x="450" y="616" type="line"/>
      <point x="270" y="552" type="line"/>
      <point x="273" y="745" type="line"/>
      <point x="245" y="745" type="line"/>
      <point x="248" y="552" type="line"/>
      <point x="67" y="616" type="line"/>
      <point x="58" y="589" type="line"/>
    </contour>
  </outline>
</glyph>
<glyph name="asterisk.sans" format="2">
  <advance width="507"/>
  <unicode hex="002A"/>
  <outline>
    <contour>
      <point x="242" y="626" type="line"/>
      <point x="128" y="474" type="line"/>
      <point x="151" y="458" type="line"/>
      <point x="259" y="615" type="line"/>
      <point x="368" y="457" type="line"/>
      <point x="391" y="474" type="line"/>
      <point x="276" y="626" type="line"/>
      <point x="459" y="682" type="line"/>
      <point x="450" y="709" type="line"/>
      <point x="270" y="645" type="line"/>
      <point x="273" y="838" type="line"/>
      <point x="245" y="838" type="line"/>
      <point x="248" y="645" type="line"/>
      <point x="67" y="709" type="line"/>
      <point x="58" y="682" type="line"/>
    </contour>
  </outline>
</glyph>
<glyph name="plus" format="2">
  <advance width="411"/>
  <unicode hex="002B"/>
  <outline>
    <contour>
      <point x="38" y="309" type="line"/>
      <point x="193" y="309" type="line"/>
      <point x="193" y="120" type="line"/>
      <point x="219" y="120" type="line"/>
      <point x="219" y="309" type="line"/>
      <point x="373" y="309" type="line"/>
      <point x="373" y="335" type="line"/>
      <point x="219" y="335" type="line"/>
      <point x="219" y="524" type="line"/>
      <point x="193" y="524" type="line"/>
      <point x="193" y="335" type="line"/>
      <point x="38" y="335" type="line"/>
    </contour>
  </outline>
</glyph>
<glyph name="plus.sans" format="2">
  <advance width="411"/>
  <unicode hex="002B"/>
  <outline>
    <contour>
      <point x="38" y="402" type="line"/>
      <point x="193" y="402" type="line"/>
      <point x="193" y="213" type="line"/>
      <point x="219" y="213" type="line"/>
      <point x="219" y="402" type="line"/>
      <point x="373" y="402" type="line"/>
      <point x="373" y="428" type="line"/>
      <point x="219" y="428" type="line"/>
      <point x="219" y="617" type="line"/>
      <point x="193" y="617" type="line"/>
      <point x="193" y="428" type="line"/>
      <point x="38" y="428" type="line"/>
    </contour>
  </outline>
</glyph>
<glyph name="comma" format="2">
  <advance width="208"/>
  <unicode hex="002C"/>
  <outline>
    <contour>
      <point x="44" y="-129" type="curve"/>
      <point x="44" y="-129" type="line"/>
      <point x="66" y="-129" type="line"/>
      <point x="94" y="-60"/>
      <point x="116" y="30"/>
      <point x="131" y="104" type="curve"/>
      <point x="128" y="116" type="line"/>
      <point x="100" y="116" type="line"/>
      <point x="89" y="40"/>
      <point x="73" y="-32"/>
    </contour>
  </outline>
</glyph>
<glyph name="comma.sans" format="2">
  <advance width="208"/>
  <unicode hex="002C"/>
  <outline>
    <contour>
      <point x="44" y="-36" type="curve"/>
      <point x="44" y="-36" type="line"/>
      <point x="66" y="-36" type="line"/>
      <point x="94" y="33"/>
      <point x="116" y="123"/>
      <point x="131" y="197" type="curve"/>
      <point x="128" y="209" type="line"/>
      <point x="100" y="209" type="line"/>
      <point x="89" y="133"/>
      <point x="73" y="61"/>
    </contour>
  </outline>
</glyph>
<glyph name="period" format="2">
  <advance width="208"/>
  <unicode hex="002E"/>
  <outline>
    <contour>
      <point x="78" y="23" type="curve"/>
      <point x="78" y="23" type="line"/>
      <point x="78" y="6"/>
      <point x="83" y="-8"/>
      <point x="103" y="-8" type="curve"/>
      <point x="127" y="-8"/>
      <point x="130" y="6"/>
      <point x="130" y="23" type="curve"/>
      <point x="130" y="39"/>
      <point x="127" y="54"/>
      <point x="103" y="54" type="curve"/>
      <point x="83" y="54"/>
      <point x="78" y="39"/>
    </contour>
  </outline>
</glyph>
<glyph name="period.sans" format="2">
  <advance width="208"/>
  <unicode hex="002E"/>
  <outline>
    <contour>
      <point x="78" y="116" type="curve"/>
      <point x="78" y="116" type="line"/>
      <point x="78" y="99"/>
      <point x="83" y="85"/>
      <point x="103" y="85" type="curve"/>
      <point x="127" y="85"/>
      <point x="130" y="99"/>
      <point x="130" y="116" type="curve"/>
      <point x="130" y="132"/>
      <point x="127" y="147"/>
      <point x="103" y="147" type="curve"/>
      <point x="83" y="147"/>
      <point x="78" y="132"/>
    </contour>
  </outline>
</glyph>
<glyph name="slash" format="2">
  <advance width="334"/>
  <unicode hex="002F"/>
  <outline>
    <contour>
      <point x="293" y="833" type="line"/>
      <point x="266" y="833" type="line"/>
      <point x="41" y="-166" type="line"/>
      <point x="68" y="-166" type="line"/>
    </contour>
  </outline>
</glyph>
<glyph name="slash.sans" format="2">
  <advance width="334"/>
  <unicode hex="002F"/>
  <outline>
    <contour>
      <point x="293" y="926" type="line"/>
      <point x="266" y="926" type="line"/>
      <point x="41" y="-73" type="line"/>
      <point x="68" y="-73" type="line"/>
    </contour>
  </outline>
</glyph>
<glyph name="zero" format="2">
  <advance width="411"/>
  <unicode hex="0030"/>
  <outline>
    <contour>
      <point x="205" y="-10" type="curve"/>
      <point x="205" y="-10" type="line"/>
      <point x="316" y="-10"/>
      <point x="361" y="120"/>
      <point x="361" y="357" type="curve"/>
      <point x="361" y="595"/>
      <point x="319" y="724"/>
      <point x="206" y="724" type="curve"/>
      <point x="98" y="724"/>
      <point x="51" y="597"/>
      <point x="51" y="358" type="curve"/>
      <point x="51" y="121"/>
      <point x="94" y="-10"/>
    </contour>
    <contour>
      <point x="205" y="16" type="curve"/>
      <point x="205" y="16" type="line"/>
      <point x="114" y="16"/>
      <point x="78" y="134"/>
      <point x="78" y="358" type="curve"/>
      <point x="78" y="581"/>
      <point x="115" y="698"/>
      <point x="207" y="698" type="curve"/>
      <point x="298" y="698"/>
      <point x="334" y="578"/>
      <point x="334" y="358" type="curve"/>
      <point x="334" y="135"/>
      <point x="298" y="16"/>
    </contour>
  </outline>
</glyph>
<glyph name="zero.sans" format="2">
  <advance width="411"/>
  <unicode hex="0030"/>
  <outline>
    <contour>
      <point x="205" y="83" type="curve"/>
      <point x="205" y="83" type="line"/>
      <point x="316" y="83"/>
      <point x="361" y="213"/>
      <point x="361" y="450" type="curve"/>
      <point x="361" y="688"/>
      <point x="319" y="817"/>
      <point x="206" y="817" type="curve"/>
      <point x="98" y="817"/>
      <point x="51" y="690"/>
      <point x="51" y="451" type="curve"/>
      <point x="51" y="214"/>
      <point x="94" y="83"/>
    </contour>
    <contour>
      <point x="205" y="109" type="curve"/>
      <point x="205" y="109" type="line"/>
      <point x="114" y="109"/>
      <point x="78" y="227"/>
      <point x="78" y="451" type="curve"/>
      <point x="78" y="674"/>
      <point x="115" y="791"/>
      <point x="207" y="791" type="curve"/>
      <point x="298" y="791"/>
      <point x="334" y="671"/>
      <point x="334" y="451" type="curve"/>
      <point x="334" y="228"/>
      <point x="298" y="109"/>
    </contour>
  </outline>
</glyph>
<glyph name="one" format="2">
  <advance width="411"/>
  <unicode hex="0031"/>
  <outline>
    <contour>
      <point x="217" y="591" type="curve"/>
      <point x="217" y="0" type="line"/>
      <point x="243" y="0" type="line"/>
      <point x="243" y="714" type="line"/>
      <point x="220" y="714" type="line"/>
      <point x="79" y="569" type="line"/>
      <point x="97" y="550" type="line"/>
      <point x="178" y="638" type="line" smooth="yes"/>
      <point x="196" y="657"/>
      <point x="206" y="668"/>
      <point x="218" y="683" type="curve"/>
      <point x="217" y="656"/>
      <point x="217" y="626"/>
    </contour>
  </outline>
</glyph>
<glyph name="one.sans" format="2">
  <advance width="411"/>
  <unicode hex="0031"/>
  <outline>
    <contour>
      <point x="217" y="684" type="curve"/>
      <point x="217" y="93" type="line"/>
      <point x="243" y="93" type="line"/>
      <point x="243" y="807" type="line"/>
      <point x="220" y="807" type="line"/>
      <point x="79" y="662" type="line"/>
      <point x="97" y="643" type="line"/>
      <point x="178" y="731" type="line" smooth="yes"/>
      <point x="196" y="750"/>
      <point x="206" y="761"/>
      <point x="218" y="776" type="curve"/>
      <point x="217" y="749"/>
      <point x="217" y="719"/>
    </contour>
  </outline>
</glyph>
<glyph name="two" format="2">
  <advance width="411"/>
  <unicode hex="0032"/>
  <outline>
    <contour>
      <point x="199" y="270" type="curve"/>
      <point x="37" y="24" type="line"/>
      <point x="37" y="0" type="line"/>
      <point x="357" y="0" type="line"/>
      <point x="357" y="26" type="line"/>
      <point x="69" y="26" type="line"/>
      <point x="69" y="27" type="line"/>
      <point x="227" y="264" type="line" smooth="yes"/>
      <point x="294" y="365"/>
      <point x="334" y="436"/>
      <point x="334" y="545" type="curve"/>
      <point x="334" y="654"/>
      <point x="280" y="724"/>
      <point x="185" y="724" type="curve"/>
      <point x="139" y="724"/>
      <point x="97" y="709"/>
      <point x="50" y="672" type="curve"/>
      <point x="64" y="650" type="line"/>
      <point x="105" y="681"/>
      <point x="140" y="698"/>
      <point x="185" y="698" type="curve"/>
      <point x="266" y="698"/>
      <point x="306" y="638"/>
      <point x="306" y="545" type="curve"/>
      <point x="306" y="446"/>
      <point x="270" y="377"/>
    </contour>
  </outline>
</glyph>
<glyph name="two.sans" format="2">
  <advance width="411"/>
  <unicode hex="0032"/>
  <outline>
    <contour>
      <point x="199" y="363" type="curve"/>
      <point x="37" y="117" type="line"/>
      <point x="37" y="93" type="line"/>
      <point x="357" y="93" type="line"/>
      <point x="357" y="119" type="line"/>
      <point x="69" y="119" type="line"/>
      <point x="69" y="120" type="line"/>
      <point x="227" y="357" type="line" smooth="yes"/>
      <point x="294" y="458"/>
      <point x="334" y="529"/>
      <point x="334" y="638" type="curve"/>
      <point x="334" y="747"/>
      <point x="280" y="817"/>
      <point x="185" y="817" type="curve"/>
      <point x="139" y="817"/>
      <point x="97" y="802"/>
      <point x="50" y="765" type="curve"/>
      <point x="64" y="743" type="line"/>
      <point x="105" y="774"/>
      <point x="140" y="791"/>
      <point x="185" y="791" type="curve"/>
      <point x="266" y="791"/>
      <point x="306" y="731"/>
      <point x="306" y="638" type="curve"/>
      <point x="306" y="539"/>
      <point x="270" y="470"/>
    </contour>
  </outline>
</glyph>
<glyph name="three" format="2">
  <advance width="411"/>
  <unicode hex="0033"/>
  <outline>
    <contour>
      <point x="169" y="-10" type="curve"/>
      <point x="169" y="-10" type="line"/>
      <point x="285" y="-10"/>
      <point x="344" y="54"/>
      <point x="344" y="181" type="curve"/>
      <point x="344" y="293"/>
      <point x="288" y="351"/>
      <point x="209" y="370" type="curve"/>
      <point x="209" y="372" type="line"/>
      <point x="283" y="399"/>
      <point x="329" y="455"/>
      <point x="329" y="552" type="curve"/>
      <point x="329" y="662"/>
      <point x="271" y="724"/>
      <point x="178" y="724" type="curve"/>
      <point x="124" y="724"/>
      <point x="80" y="704"/>
      <point x="34" y="668" type="curve"/>
      <point x="50" y="646" type="line"/>
      <point x="89" y="681"/>
      <point x="132" y="700"/>
      <point x="176" y="700" type="curve"/>
      <point x="255" y="700"/>
      <point x="302" y="647"/>
      <point x="302" y="552" type="curve"/>
      <point x="302" y="449"/>
      <point x="242" y="383"/>
      <point x="137" y="383" type="curve"/>
      <point x="113" y="383" type="line"/>
      <point x="113" y="358" type="line"/>
      <point x="143" y="358" type="line" smooth="yes"/>
      <point x="259" y="358"/>
      <point x="317" y="287"/>
      <point x="317" y="181" type="curve"/>
      <point x="317" y="70"/>
      <point x="272" y="14"/>
      <point x="172" y="14" type="curve"/>
      <point x="122" y="14"/>
      <point x="80" y="27"/>
      <point x="41" y="47" type="curve"/>
      <point x="41" y="19" type="line"/>
      <point x="79" y="1"/>
      <point x="126" y="-10"/>
    </contour>
  </outline>
</glyph>
<glyph name="three.sans" format="2">
  <advance width="411"/>
  <unicode hex="0033"/>
  <outline>
    <contour>
      <point x="169" y="83" type="curve"/>
      <point x="169" y="83" type="line"/>
      <point x="285" y="83"/>
      <point x="344" y="147"/>
      <point x="344" y="274" type="curve"/>
      <point x="344" y="386"/>
      <point x="288" y="444"/>
      <point x="209" y="463" type="curve"/>
      <point x="209" y="465" type="line"/>
      <point x="283" y="492"/>
      <point x="329" y="548"/>
      <point x="329" y="645" type="curve"/>
      <point x="329" y="755"/>
      <point x="271" y="817"/>
      <point x="178" y="817" type="curve"/>
      <point x="124" y="817"/>
      <point x="80" y="797"/>
      <point x="34" y="761" type="curve"/>
      <point x="50" y="739" type="line"/>
      <point x="89" y="774"/>
      <point x="132" y="793"/>
      <point x="176" y="793" type="curve"/>
      <point x="255" y="793"/>
      <point x="302" y="740"/>
      <point x="302" y="645" type="curve"/>
      <point x="302" y="542"/>
      <point x="242" y="476"/>
      <point x="137" y="476" type="curve"/>
      <point x="113" y="476" type="line"/>
      <point x="113" y="451" type="line"/>
      <point x="143" y="451" type="line" smooth="yes"/>
      <point x="259" y="451"/>
      <point x="317" y="380"/>
      <point x="317" y="274" type="curve"/>
      <point x="317" y="163"/>
      <point x="272" y="107"/>
      <point x="172" y="107" type="curve"/>
      <point x="122" y="107"/>
      <point x="80" y="120"/>
      <point x="41" y="140" type="curve"/>
      <point x="41" y="112" type="line"/>
      <point x="79" y="94"/>
      <point x="126" y="83"/>
    </contour>
  </outline>
</glyph>
<glyph name="four" format="2">
  <advance width="411"/>
  <unicode hex="0034"/>
  <outline>
    <contour>
      <point x="22" y="193" type="line"/>
      <point x="275" y="193" type="line"/>
      <point x="275" y="0" type="line"/>
      <point x="301" y="0" type="line"/>
      <point x="301" y="193" type="line"/>
      <point x="388" y="193" type="line"/>
      <point x="388" y="219" type="line"/>
      <point x="301" y="219" type="line"/>
      <point x="301" y="721" type="line"/>
      <point x="272" y="721" type="line"/>
      <point x="22" y="217" type="line"/>
    </contour>
    <contour>
      <point x="276" y="448" type="curve"/>
      <point x="276" y="219" type="line"/>
      <point x="52" y="219" type="line"/>
      <point x="242" y="607" type="line" smooth="yes"/>
      <point x="258" y="639"/>
      <point x="268" y="661"/>
      <point x="277" y="686" type="curve"/>
      <point x="279" y="685" type="line"/>
      <point x="276" y="623"/>
      <point x="276" y="577"/>
    </contour>
  </outline>
</glyph>
<glyph name="four.sans" format="2">
  <advance width="411"/>
  <unicode hex="0034"/>
  <outline>
    <contour>
      <point x="22" y="286" type="line"/>
      <point x="275" y="286" type="line"/>
      <point x="275" y="93" type="line"/>
      <point x="301" y="93" type="line"/>
      <point x="301" y="286" type="line"/>
      <point x="388" y="286" type="line"/>
      <point x="388" y="312" type="line"/>
      <point x="301" y="312" type="line"/>
      <point x="301" y="814" type="line"/>
      <point x="272" y="814" type="line"/>
      <point x="22" y="310" type="line"/>
    </contour>
    <contour>
      <point x="276" y="541" type="curve"/>
      <point x="276" y="312" type="line"/>
      <point x="52" y="312" type="line"/>
      <point x="242" y="700" type="line" smooth="yes"/>
      <point x="258" y="732"/>
      <point x="268" y="754"/>
      <point x="277" y="779" type="curve"/>
      <point x="279" y="778" type="line"/>
      <point x="276" y="716"/>
      <point x="276" y="670"/>
    </contour>
  </outline>
</glyph>
<glyph name="five" format="2">
  <advance width="411"/>
  <unicode hex="0035"/>
  <outline>
    <contour>
      <point x="176" y="-10" type="curve"/>
      <point x="176" y="-10" type="line"/>
      <point x="295" y="-10"/>
      <point x="352" y="70"/>
      <point x="352" y="224" type="curve"/>
      <point x="352" y="352"/>
      <point x="291" y="426"/>
      <point x="194" y="426" type="curve"/>
      <point x="147" y="426"/>
      <point x="119" y="417"/>
      <point x="93" y="407" type="curve"/>
      <point x="117" y="688" type="line"/>
      <point x="313" y="688" type="line"/>
      <point x="313" y="714" type="line"/>
      <point x="93" y="714" type="line"/>
      <point x="66" y="392" type="line"/>
      <point x="85" y="378" type="line"/>
      <point x="119" y="392"/>
      <point x="147" y="400"/>
      <point x="190" y="400" type="curve"/>
      <point x="272" y="400"/>
      <point x="325" y="340"/>
      <point x="325" y="223" type="curve"/>
      <point x="325" y="77"/>
      <point x="271" y="16"/>
      <point x="176" y="16" type="curve"/>
      <point x="134" y="16"/>
      <point x="103" y="23"/>
      <point x="53" y="50" type="curve"/>
      <point x="53" y="20" type="line"/>
      <point x="95" y="-3"/>
      <point x="136" y="-10"/>
    </contour>
  </outline>
</glyph>
<glyph name="five.sans" format="2">
  <advance width="411"/>
  <unicode hex="0035"/>
  <outline>
    <contour>
      <point x="176" y="83" type="curve"/>
      <point x="176" y="83" type="line"/>
      <point x="295" y="83"/>
      <point x="352" y="163"/>
      <point x="352" y="317" type="curve"/>
      <point x="352" y="445"/>
      <point x="291" y="519"/>
      <point x="194" y="519" type="curve"/>
      <point x="147" y="519"/>
      <point x="119" y="510"/>
      <point x="93" y="500" type="curve"/>
      <point x="117" y="781" type="line"/>
      <point x="313" y="781" type="line"/>
      <point x="313" y="807" type="line"/>
      <point x="93" y="807" type="line"/>
      <point x="66" y="485" type="line"/>
      <point x="85" y="471" type="line"/>
      <point x="119" y="485"/>
      <point x="147" y="493"/>
      <point x="190" y="493" type="curve"/>
      <point x="272" y="493"/>
      <point x="325" y="433"/>
      <point x="325" y="316" type="curve"/>
      <point x="325" y="170"/>
      <point x="271" y="109"/>
      <point x="176" y="109" type="curve"/>
      <point x="134" y="109"/>
      <point x="103" y="116"/>
      <point x="53" y="143" type="curve"/>
      <point x="53" y="113" type="line"/>
      <point x="95" y="90"/>
      <point x="136" y="83"/>
    </contour>
  </outline>
</glyph>
<glyph name="six" format="2">
  <advance width="411"/>
  <unicode hex="0036"/>
  <outline>
    <contour>
      <point x="216" y="-10" type="curve"/>
      <point x="216" y="-10" type="line"/>
      <point x="306" y="-10"/>
      <point x="364" y="69"/>
      <point x="364" y="223" type="curve"/>
      <point x="364" y="344"/>
      <point x="312" y="427"/>
      <point x="222" y="427" type="curve"/>
      <point x="157" y="427"/>
      <point x="114" y="391"/>
      <point x="90" y="333" type="curve"/>
      <point x="87" y="333" type="line"/>
      <point x="93" y="548"/>
      <point x="141" y="698"/>
      <point x="266" y="698" type="curve"/>
      <point x="295" y="698"/>
      <point x="316" y="696"/>
      <point x="333" y="688" type="curve"/>
      <point x="333" y="716" type="line"/>
      <point x="319" y="721"/>
      <point x="293" y="724"/>
      <point x="270" y="724" type="curve"/>
      <point x="101" y="724"/>
      <point x="59" y="521"/>
      <point x="59" y="296" type="curve"/>
      <point x="59" y="80"/>
      <point x="119" y="-10"/>
    </contour>
    <contour>
      <point x="217" y="16" type="curve"/>
      <point x="217" y="16" type="line"/>
      <point x="127" y="16"/>
      <point x="88" y="124"/>
      <point x="88" y="252" type="curve"/>
      <point x="88" y="313"/>
      <point x="137" y="401"/>
      <point x="219" y="401" type="curve"/>
      <point x="296" y="401"/>
      <point x="337" y="329"/>
      <point x="337" y="223" type="curve"/>
      <point x="337" y="82"/>
      <point x="289" y="16"/>
    </contour>
  </outline>
</glyph>
<glyph name="six.sans" format="2">
  <advance width="411"/>
  <unicode hex="0036"/>
  <outline>
    <contour>
      <point x="216" y="83" type="curve"/>
      <point x="216" y="83" type="line"/>
      <point x="306" y="83"/>
      <point x="364" y="162"/>
      <point x="364" y="316" type="curve"/>
      <point x="364" y="437"/>
      <point x="312" y="520"/>
      <point x="222" y="520" type="curve"/>
      <point x="157" y="520"/>
      <point x="114" y="484"/>
      <point x="90" y="426" type="curve"/>
      <point x="87" y="426" type="line"/>
      <point x="93" y="641"/>
      <point x="141" y="791"/>
      <point x="266" y="791" type="curve"/>
      <point x="295" y="791"/>
      <point x="316" y="789"/>
      <point x="333" y="781" type="curve"/>
      <point x="333" y="809" type="line"/>
      <point x="319" y="814"/>
      <point x="293" y="817"/>
      <point x="270" y="817" type="curve"/>
      <point x="101" y="817"/>
      <point x="59" y="614"/>
      <point x="59" y="389" type="curve"/>
      <point x="59" y="173"/>
      <point x="119" y="83"/>
    </contour>
    <contour>
      <point x="217" y="109" type="curve"/>
      <point x="217" y="109" type="line"/>
      <point x="127" y="109"/>
      <point x="88" y="217"/>
      <point x="88" y="345" type="curve"/>
      <point x="88" y="406"/>
      <point x="137" y="494"/>
      <point x="219" y="494" type="curve"/>
      <point x="296" y="494"/>
      <point x="337" y="422"/>
      <point x="337" y="316" type="curve"/>
      <point x="337" y="175"/>
      <point x="289" y="109"/>
    </contour>
  </outline>
</glyph>
<glyph name="seven" format="2">
  <advance width="411"/>
  <unicode hex="0037"/>
  <outline>
    <contour>
      <point x="37" y="688" type="line"/>
      <point x="341" y="688" type="line"/>
      <point x="124" y="0" type="line"/>
      <point x="153" y="0" type="line"/>
      <point x="371" y="692" type="line"/>
      <point x="371" y="714" type="line"/>
      <point x="37" y="714" type="line"/>
    </contour>
  </outline>
</glyph>
<glyph name="seven.sans" format="2">
  <advance width="411"/>
  <unicode hex="0037"/>
  <outline>
    <contour>
      <point x="37" y="781" type="line"/>
      <point x="341" y="781" type="line"/>
      <point x="124" y="93" type="line"/>
      <point x="153" y="93" type="line"/>
      <point x="371" y="785" type="line"/>
      <point x="371" y="807" type="line"/>
      <point x="37" y="807" type="line"/>
    </contour>
  </outline>
</glyph>
<glyph name="eight" format="2">
  <advance width="411"/>
  <unicode hex="0038"/>
  <outline>
    <contour>
      <point x="205" y="-10" type="curve"/>
      <point x="205" y="-10" type="line"/>
      <point x="310" y="-10"/>
      <point x="366" y="70"/>
      <point x="366" y="172" type="curve"/>
      <point x="366" y="268"/>
      <point x="305" y="327"/>
      <point x="228" y="378" type="curve"/>
      <point x="297" y="421"/>
      <point x="351" y="467"/>
      <point x="351" y="565" type="curve"/>
      <point x="351" y="661"/>
      <point x="299" y="723"/>
      <point x="208" y="723" type="curve"/>
      <point x="115" y="723"/>
      <point x="62" y="659"/>
      <point x="62" y="567" type="curve"/>
      <point x="62" y="482"/>
      <point x="111" y="426"/>
      <point x="182" y="379" type="curve"/>
      <point x="108" y="335"/>
      <point x="45" y="275"/>
      <point x="45" y="170" type="curve"/>
      <point x="45" y="64"/>
      <point x="105" y="-10"/>
    </contour>
    <contour>
      <point x="206" y="16" type="curve"/>
      <point x="206" y="16" type="line"/>
      <point x="127" y="16"/>
      <point x="73" y="75"/>
      <point x="73" y="169" type="curve"/>
      <point x="73" y="268"/>
      <point x="134" y="326"/>
      <point x="204" y="365" type="curve"/>
      <point x="308" y="302"/>
      <point x="338" y="237"/>
      <point x="338" y="170" type="curve"/>
      <point x="338" y="85"/>
      <point x="291" y="16"/>
    </contour>
    <contour>
      <point x="205" y="391" type="curve"/>
      <point x="205" y="391" type="line"/>
      <point x="133" y="436"/>
      <point x="90" y="490"/>
      <point x="90" y="566" type="curve"/>
      <point x="90" y="645"/>
      <point x="134" y="697"/>
      <point x="208" y="697" type="curve"/>
      <point x="279" y="697"/>
      <point x="323" y="647"/>
      <point x="323" y="564" type="curve"/>
      <point x="323" y="474"/>
      <point x="272" y="433"/>
    </contour>
  </outline>
</glyph>
<glyph name="eight.sans" format="2">
  <advance width="411"/>
  <unicode hex="0038"/>
  <outline>
    <contour>
      <point x="205" y="83" type="curve"/>
      <point x="205" y="83" type="line"/>
      <point x="310" y="83"/>
      <point x="366" y="163"/>
      <point x="366" y="265" type="curve"/>
      <point x="366" y="361"/>
      <point x="305" y="420"/>
      <point x="228" y="471" type="curve"/>
      <point x="297" y="514"/>
      <point x="351" y="560"/>
      <point x="351" y="658" type="curve"/>
      <point x="351" y="754"/>
      <point x="299" y="816"/>
      <point x="208" y="816" type="curve"/>
      <point x="115" y="816"/>
      <point x="62" y="752"/>
      <point x="62" y="660" type="curve"/>
      <point x="62" y="575"/>
      <point x="111" y="519"/>
      <point x="182" y="472" type="curve"/>
      <point x="108" y="428"/>
      <point x="45" y="368"/>
      <point x="45" y="263" type="curve"/>
      <point x="45" y="157"/>
      <point x="105" y="83"/>
    </contour>
    <contour>
      <point x="206" y="109" type="curve"/>
      <point x="206" y="109" type="line"/>
      <point x="127" y="109"/>
      <point x="73" y="168"/>
      <point x="73" y="262" type="curve"/>
      <point x="73" y="361"/>
      <point x="134" y="419"/>
      <point x="204" y="458" type="curve"/>
      <point x="308" y="395"/>
      <point x="338" y="330"/>
      <point x="338" y="263" type="curve"/>
      <point x="338" y="178"/>
      <point x="291" y="109"/>
    </contour>
    <contour>
      <point x="205" y="484" type="curve"/>
      <point x="205" y="484" type="line"/>
      <point x="133" y="529"/>
      <point x="90" y="583"/>
      <point x="90" y="659" type="curve"/>
      <point x="90" y="738"/>
      <point x="134" y="790"/>
      <point x="208" y="790" type="curve"/>
      <point x="279" y="790"/>
      <point x="323" y="740"/>
      <point x="323" y="657" type="curve"/>
      <point x="323" y="567"/>
      <point x="272" y="526"/>
    </contour>
  </outline>
</glyph>
<glyph name="nine" format="2">
  <advance width="411"/>
  <unicode hex="0039"/>
  <outline>
    <contour>
      <point x="144" y="-10" type="curve"/>
      <point x="144" y="-10" type="line"/>
      <point x="312" y="-10"/>
      <point x="351" y="193"/>
      <point x="351" y="422" type="curve"/>
      <point x="351" y="634"/>
      <point x="291" y="724"/>
      <point x="194" y="724" type="curve"/>
      <point x="104" y="724"/>
      <point x="46" y="645"/>
      <point x="46" y="491" type="curve"/>
      <point x="46" y="370"/>
      <point x="98" y="287"/>
      <point x="188" y="287" type="curve"/>
      <point x="253" y="287"/>
      <point x="296" y="323"/>
      <point x="320" y="381" type="curve"/>
      <point x="323" y="381" type="line"/>
      <point x="317" y="166"/>
      <point x="272" y="16"/>
      <point x="147" y="16" type="curve"/>
      <point x="120" y="16"/>
      <point x="98" y="19"/>
      <point x="81" y="26" type="curve"/>
      <point x="81" y="-2" type="line"/>
      <point x="96" y="-7"/>
      <point x="127" y="-10"/>
    </contour>
    <contour>
      <point x="191" y="313" type="curve"/>
      <point x="191" y="313" type="line"/>
      <point x="114" y="313"/>
      <point x="73" y="385"/>
      <point x="73" y="491" type="curve"/>
      <point x="73" y="632"/>
      <point x="121" y="698"/>
      <point x="193" y="698" type="curve"/>
      <point x="283" y="698"/>
      <point x="322" y="590"/>
      <point x="322" y="462" type="curve"/>
      <point x="322" y="401"/>
      <point x="273" y="313"/>
    </contour>
  </outline>
</glyph>
<glyph name="nine.sans" format="2">
  <advance width="411"/>
  <unicode hex="0039"/>
  <outline>
    <contour>
      <point x="144" y="83" type="curve"/>
      <point x="144" y="83" type="line"/>
      <point x="312" y="83"/>
      <point x="351" y="286"/>
      <point x="351" y="515" type="curve"/>
      <point x="351" y="727"/>
      <point x="291" y="817"/>
      <point x="194" y="817" type="curve"/>
      <point x="104" y="817"/>
      <point x="46" y="738"/>
      <point x="46" y="584" type="curve"/>
      <point x="46" y="463"/>
      <point x="98" y="380"/>
      <point x="188" y="380" type="curve"/>
      <point x="253" y="380"/>
      <point x="296" y="416"/>
      <point x="320" y="474" type="curve"/>
      <point x="323" y="474" type="line"/>
      <point x="317" y="259"/>
      <point x="272" y="109"/>
      <point x="147" y="109" type="curve"/>
      <point x="120" y="109"/>
      <point x="98" y="112"/>
      <point x="81" y="119" type="curve"/>
      <point x="81" y="91" type="line"/>
      <point x="96" y="86"/>
      <point x="127" y="83"/>
    </contour>
    <contour>
      <point x="191" y="406" type="curve"/>
      <point x="191" y="406" type="line"/>
      <point x="114" y="406"/>
      <point x="73" y="478"/>
      <point x="73" y="584" type="curve"/>
      <point x="73" y="725"/>
      <point x="121" y="791"/>
      <point x="193" y="791" type="curve"/>
      <point x="283" y="791"/>
      <point x="322" y="683"/>
      <point x="322" y="555" type="curve"/>
      <point x="322" y="494"/>
      <point x="273" y="406"/>
    </contour>
  </outline>
</glyph>
<glyph name="colon" format="2">
  <advance width="234"/>
  <unicode hex="003A"/>
  <outline>
    <contour>
      <point x="116" y="470" type="curve"/>
      <point x="116" y="470" type="line"/>
      <point x="140" y="470"/>
      <point x="143" y="484"/>
      <point x="143" y="501" type="curve"/>
      <point x="143" y="517"/>
      <point x="140" y="532"/>
      <point x="116" y="532" type="curve"/>
      <point x="96" y="532"/>
      <point x="91" y="517"/>
      <point x="91" y="501" type="curve"/>
      <point x="91" y="484"/>
      <point x="96" y="470"/>
    </contour>
    <contour>
      <point x="116" y="-8" type="curve"/>
      <point x="116" y="-8" type="line"/>
      <point x="140" y="-8"/>
      <point x="143" y="6"/>
      <point x="143" y="23" type="curve"/>
      <point x="143" y="39"/>
      <point x="140" y="54"/>
      <point x="116" y="54" type="curve"/>
      <point x="96" y="54"/>
      <point x="91" y="39"/>
      <point x="91" y="23" type="curve"/>
      <point x="91" y="6"/>
      <point x="96" y="-8"/>
    </contour>
  </outline>
</glyph>
<glyph name="colon.sans" format="2">
  <advance width="234"/>
  <unicode hex="003A"/>
  <outline>
    <contour>
      <point x="116" y="563" type="curve"/>
      <point x="116" y="563" type="line"/>
      <point x="140" y="563"/>
      <point x="143" y="577"/>
      <point x="143" y="594" type="curve"/>
      <point x="143" y="610"/>
      <point x="140" y="625"/>
      <point x="116" y="625" type="curve"/>
      <point x="96" y="625"/>
      <point x="91" y="610"/>
      <point x="91" y="594" type="curve"/>
      <point x="91" y="577"/>
      <point x="96" y="563"/>
    </contour>
    <contour>
      <point x="116" y="85" type="curve"/>
      <point x="116" y="85" type="line"/>
      <point x="140" y="85"/>
      <point x="143" y="99"/>
      <point x="143" y="116" type="curve"/>
      <point x="143" y="132"/>
      <point x="140" y="147"/>
      <point x="116" y="147" type="curve"/>
      <point x="96" y="147"/>
      <point x="91" y="132"/>
      <point x="91" y="116" type="curve"/>
      <point x="91" y="99"/>
      <point x="96" y="85"/>
    </contour>
  </outline>
</glyph>
<glyph name="semicolon" format="2">
  <advance width="234"/>
  <unicode hex="003B"/>
  <outline>
    <contour>
      <point x="131" y="104" type="curve"/>
      <point x="128" y="116" type="line"/>
      <point x="100" y="116" type="line"/>
      <point x="89" y="40"/>
      <point x="73" y="-32"/>
      <point x="44" y="-129" type="curve"/>
      <point x="66" y="-129" type="line"/>
      <point x="94" y="-60"/>
      <point x="116" y="30"/>
    </contour>
    <contour>
      <point x="116" y="470" type="curve"/>
      <point x="116" y="470" type="line"/>
      <point x="140" y="470"/>
      <point x="143" y="484"/>
      <point x="143" y="501" type="curve"/>
      <point x="143" y="517"/>
      <point x="140" y="532"/>
      <point x="116" y="532" type="curve"/>
      <point x="96" y="532"/>
      <point x="91" y="517"/>
      <point x="91" y="501" type="curve"/>
      <point x="91" y="484"/>
      <point x="96" y="470"/>
    </contour>
  </outline>
</glyph>
<glyph name="semicolon.sans" format="2">
  <advance width="234"/>
  <unicode hex="003B"/>
  <outline>
    <contour>
      <point x="131" y="197" type="curve"/>
      <point x="128" y="209" type="line"/>
      <point x="100" y="209" type="line"/>
      <point x="89" y="133"/>
      <point x="73" y="61"/>
      <point x="44" y="-36" type="curve"/>
      <point x="66" y="-36" type="line"/>
      <point x="94" y="33"/>
      <point x="116" y="123"/>
    </contour>
    <contour>
      <point x="116" y="563" type="curve"/>
      <point x="116" y="563" type="line"/>
      <point x="140" y="563"/>
      <point x="143" y="577"/>
      <point x="143" y="594" type="curve"/>
      <point x="143" y="610"/>
      <point x="140" y="625"/>
      <point x="116" y="625" type="curve"/>
      <point x="96" y="625"/>
      <point x="91" y="610"/>
      <point x="91" y="594" type="curve"/>
      <point x="91" y="577"/>
      <point x="96" y="563"/>
    </contour>
  </outline>
</glyph>
<glyph name="less" format="2">
  <advance width="411"/>
  <unicode hex="003C"/>
  <outline>
    <contour>
      <point x="38" y="335" type="line"/>
      <point x="38" y="309" type="line"/>
      <point x="376" y="127" type="line"/>
      <point x="376" y="156" type="line"/>
      <point x="66" y="322" type="line"/>
      <point x="376" y="488" type="line"/>
      <point x="376" y="517" type="line"/>
    </contour>
  </outline>
</glyph>
<glyph name="less.sans" format="2">
  <advance width="411"/>
  <unicode hex="003C"/>
  <outline>
    <contour>
      <point x="38" y="428" type="line"/>
      <point x="38" y="402" type="line"/>
      <point x="376" y="220" type="line"/>
      <point x="376" y="249" type="line"/>
      <point x="66" y="415" type="line"/>
      <point x="376" y="581" type="line"/>
      <point x="376" y="610" type="line"/>
    </contour>
  </outline>
</glyph>
<glyph name="equal" format="2">
  <advance width="411"/>
  <unicode hex="003D"/>
  <outline>
    <contour>
      <point x="367" y="430" type="line"/>
      <point x="44" y="430" type="line"/>
      <point x="44" y="404" type="line"/>
      <point x="367" y="404" type="line"/>
    </contour>
    <contour>
      <point x="367" y="240" type="line"/>
      <point x="44" y="240" type="line"/>
      <point x="44" y="215" type="line"/>
      <point x="367" y="215" type="line"/>
    </contour>
  </outline>
</glyph>
<glyph name="equal.sans" format="2">
  <advance width="411"/>
  <unicode hex="003D"/>
  <outline>
    <contour>
      <point x="367" y="523" type="line"/>
      <point x="44" y="523" type="line"/>
      <point x="44" y="497" type="line"/>
      <point x="367" y="497" type="line"/>
    </contour>
    <contour>
      <point x="367" y="333" type="line"/>
      <point x="44" y="333" type="line"/>
      <point x="44" y="308" type="line"/>
      <point x="367" y="308" type="line"/>
    </contour>
  </outline>
</glyph>
<glyph name="greater.sans" format="2">
  <advance width="411"/>
  <unicode hex="003E"/>
  <outline>
    <contour>
      <point x="348" y="415" type="line"/>
      <point x="38" y="249" type="line"/>
      <point x="38" y="220" type="line"/>
      <point x="376" y="402" type="line"/>
      <point x="376" y="428" type="line"/>
      <point x="38" y="610" type="line"/>
      <point x="38" y="581" type="line"/>
    </contour>
  </outline>
</glyph>
<glyph name="question" format="2">
  <advance width="377"/>
  <unicode hex="003F"/>
  <outline>
    <contour>
      <point x="149" y="204" type="curve"/>
      <point x="149" y="170" type="line"/>
      <point x="174" y="170" type="line"/>
      <point x="174" y="199" type="line" smooth="yes"/>
      <point x="174" y="268"/>
      <point x="181" y="315"/>
      <point x="229" y="384" type="curve"/>
      <point x="277" y="453"/>
      <point x="306" y="498"/>
      <point x="306" y="577" type="curve"/>
      <point x="306" y="673"/>
      <point x="254" y="724"/>
      <point x="178" y="724" type="curve"/>
      <point x="138" y="724"/>
      <point x="101" y="715"/>
      <point x="70" y="700" type="curve"/>
      <point x="81" y="676" type="line"/>
      <point x="106" y="688"/>
      <point x="140" y="698"/>
      <point x="173" y="698" type="curve"/>
      <point x="239" y="698"/>
      <point x="279" y="657"/>
      <point x="279" y="578" type="curve"/>
      <point x="279" y="510"/>
      <point x="254" y="466"/>
      <point x="205" y="395" type="curve"/>
      <point x="156" y="325"/>
      <point x="149" y="273"/>
    </contour>
    <contour>
      <point x="136" y="23" type="curve"/>
      <point x="136" y="23" type="line"/>
      <point x="136" y="6"/>
      <point x="141" y="-8"/>
      <point x="161" y="-8" type="curve"/>
      <point x="185" y="-8"/>
      <point x="188" y="6"/>
      <point x="188" y="23" type="curve"/>
      <point x="188" y="39"/>
      <point x="185" y="54"/>
      <point x="161" y="54" type="curve"/>
      <point x="141" y="54"/>
      <point x="136" y="39"/>
    </contour>
  </outline>
</glyph>
<glyph name="question.sans" format="2">
  <advance width="377"/>
  <unicode hex="003F"/>
  <outline>
    <contour>
      <point x="149" y="297" type="curve"/>
      <point x="149" y="263" type="line"/>
      <point x="174" y="263" type="line"/>
      <point x="174" y="292" type="line" smooth="yes"/>
      <point x="174" y="361"/>
      <point x="181" y="408"/>
      <point x="229" y="477" type="curve"/>
      <point x="277" y="546"/>
      <point x="306" y="591"/>
      <point x="306" y="670" type="curve"/>
      <point x="306" y="766"/>
      <point x="254" y="817"/>
      <point x="178" y="817" type="curve"/>
      <point x="138" y="817"/>
      <point x="101" y="808"/>
      <point x="70" y="793" type="curve"/>
      <point x="81" y="769" type="line"/>
      <point x="106" y="781"/>
      <point x="140" y="791"/>
      <point x="173" y="791" type="curve"/>
      <point x="239" y="791"/>
      <point x="279" y="750"/>
      <point x="279" y="671" type="curve"/>
      <point x="279" y="603"/>
      <point x="254" y="559"/>
      <point x="205" y="488" type="curve"/>
      <point x="156" y="418"/>
      <point x="149" y="366"/>
    </contour>
    <contour>
      <point x="136" y="116" type="curve"/>
      <point x="136" y="116" type="line"/>
      <point x="136" y="99"/>
      <point x="141" y="85"/>
      <point x="161" y="85" type="curve"/>
      <point x="185" y="85"/>
      <point x="188" y="99"/>
      <point x="188" y="116" type="curve"/>
      <point x="188" y="132"/>
      <point x="185" y="147"/>
      <point x="161" y="147" type="curve"/>
      <point x="141" y="147"/>
      <point x="136" y="132"/>
    </contour>
  </outline>
</glyph>
<glyph name="bracketleft" format="2">
  <advance width="278"/>
  <unicode hex="005B"/>
  <outline>
    <contour>
      <point x="223" y="832" type="line"/>
      <point x="94" y="832" type="line"/>
      <point x="94" y="-165" type="line"/>
      <point x="223" y="-165" type="line"/>
      <point x="223" y="-139" type="line"/>
      <point x="120" y="-139" type="line"/>
      <point x="120" y="806" type="line"/>
      <point x="223" y="806" type="line"/>
    </contour>
  </outline>
</glyph>
<glyph name="bracketleft.sans" format="2">
  <advance width="278"/>
  <unicode hex="005B"/>
  <outline>
    <contour>
      <point x="223" y="925" type="line"/>
      <point x="94" y="925" type="line"/>
      <point x="94" y="-72" type="line"/>
      <point x="223" y="-72" type="line"/>
      <point x="223" y="-46" type="line"/>
      <point x="120" y="-46" type="line"/>
      <point x="120" y="899" type="line"/>
      <point x="223" y="899" type="line"/>
    </contour>
  </outline>
</glyph>
<glyph name="backslash" format="2">
  <advance width="334"/>
  <unicode hex="005C"/>
  <outline>
    <contour>
      <point x="68" y="833" type="line"/>
      <point x="41" y="833" type="line"/>
      <point x="266" y="-166" type="line"/>
      <point x="293" y="-166" type="line"/>
    </contour>
  </outline>
</glyph>
<glyph name="backslash.sans" format="2">
  <advance width="334"/>
  <unicode hex="005C"/>
  <outline>
    <contour>
      <point x="68" y="926" type="line"/>
      <point x="41" y="926" type="line"/>
      <point x="266" y="-73" type="line"/>
      <point x="293" y="-73" type="line"/>
    </contour>
  </outline>
</glyph>
<glyph name="bracketright" format="2">
  <advance width="278"/>
  <unicode hex="005D"/>
  <outline>
    <contour>
      <point x="158" y="-139" type="line"/>
      <point x="55" y="-139" type="line"/>
      <point x="55" y="-165" type="line"/>
      <point x="184" y="-165" type="line"/>
      <point x="184" y="832" type="line"/>
      <point x="55" y="832" type="line"/>
      <point x="55" y="806" type="line"/>
      <point x="158" y="806" type="line"/>
    </contour>
  </outline>
</glyph>
<glyph name="bracketright.sans" format="2">
  <advance width="278"/>
  <unicode hex="005D"/>
  <outline>
    <contour>
      <point x="158" y="-46" type="line"/>
      <point x="55" y="-46" type="line"/>
      <point x="55" y="-72" type="line"/>
      <point x="184" y="-72" type="line"/>
      <point x="184" y="925" type="line"/>
      <point x="55" y="925" type="line"/>
      <point x="55" y="899" type="line"/>
      <point x="158" y="899" type="line"/>
    </contour>
  </outline>
</glyph>
<glyph name="asciicircum" format="2">
  <advance width="411"/>
  <unicode hex="005E"/>
  <outline>
    <contour>
      <point x="217" y="719" type="line"/>
      <point x="193" y="719" type="line"/>
      <point x="23" y="332" type="line"/>
      <point x="53" y="332" type="line"/>
      <point x="205" y="683" type="line"/>
      <point x="358" y="332" type="line"/>
      <point x="388" y="332" type="line"/>
    </contour>
  </outline>
</glyph>
<glyph name="asciicircum.sans" format="2">
  <advance width="411"/>
  <unicode hex="005E"/>
  <outline>
    <contour>
      <point x="217" y="812" type="line"/>
      <point x="193" y="812" type="line"/>
      <point x="23" y="425" type="line"/>
      <point x="53" y="425" type="line"/>
      <point x="205" y="776" type="line"/>
      <point x="358" y="425" type="line"/>
      <point x="388" y="425" type="line"/>
    </contour>
  </outline>
</glyph>
<glyph name="underscore" format="2">
  <advance width="300"/>
  <unicode hex="005F"/>
  <outline>
    <contour>
      <point x="300" y="-90" type="line"/>
      <point x="0" y="-90" type="line"/>
      <point x="0" y="-116" type="line"/>
      <point x="300" y="-116" type="line"/>
    </contour>
  </outline>
</glyph>
<glyph name="underscore.sans" format="2">
  <advance width="300"/>
  <unicode hex="005F"/>
  <outline>
    <contour>
      <point x="300" y="3" type="line"/>
      <point x="0" y="3" type="line"/>
      <point x="0" y="-23" type="line"/>
      <point x="300" y="-23" type="line"/>
    </contour>
  </outline>
</glyph>
<glyph name="braceleft" format="2">
  <advance width="315"/>
  <unicode hex="007B"/>
  <outline>
    <contour>
      <point x="43" y="345" type="curve"/>
      <point x="43" y="345" type="line"/>
      <point x="43" y="321" type="line"/>
      <point x="101" y="321"/>
      <point x="135" y="290"/>
      <point x="135" y="205" type="curve"/>
      <point x="135" y="-34" type="line" smooth="yes"/>
      <point x="135" y="-132"/>
      <point x="178" y="-166"/>
      <point x="260" y="-166" type="curve"/>
      <point x="260" y="-140" type="line"/>
      <point x="191" y="-140"/>
      <point x="160" y="-115"/>
      <point x="160" y="-28" type="curve"/>
      <point x="160" y="209" type="line" smooth="yes"/>
      <point x="160" y="284"/>
      <point x="138" y="317"/>
      <point x="91" y="332" type="curve"/>
      <point x="91" y="334" type="line"/>
      <point x="141" y="351"/>
      <point x="160" y="387"/>
      <point x="160" y="458" type="curve"/>
      <point x="160" y="694" type="line" smooth="yes"/>
      <point x="160" y="781"/>
      <point x="191" y="806"/>
      <point x="260" y="806" type="curve"/>
      <point x="260" y="832" type="line"/>
      <point x="178" y="832"/>
      <point x="135" y="798"/>
      <point x="135" y="700" type="curve"/>
      <point x="135" y="462" type="line" smooth="yes"/>
      <point x="135" y="376"/>
      <point x="101" y="345"/>
    </contour>
  </outline>
</glyph>
<glyph name="braceleft.sans" format="2">
  <advance width="315"/>
  <unicode hex="007B"/>
  <outline>
    <contour>
      <point x="43" y="438" type="curve"/>
      <point x="43" y="438" type="line"/>
      <point x="43" y="414" type="line"/>
      <point x="101" y="414"/>
      <point x="135" y="383"/>
      <point x="135" y="298" type="curve"/>
      <point x="135" y="59" type="line" smooth="yes"/>
      <point x="135" y="-39"/>
      <point x="178" y="-73"/>
      <point x="260" y="-73" type="curve"/>
      <point x="260" y="-47" type="line"/>
      <point x="191" y="-47"/>
      <point x="160" y="-22"/>
      <point x="160" y="65" type="curve"/>
      <point x="160" y="302" type="line" smooth="yes"/>
      <point x="160" y="377"/>
      <point x="138" y="410"/>
      <point x="91" y="425" type="curve"/>
      <point x="91" y="427" type="line"/>
      <point x="141" y="444"/>
      <point x="160" y="480"/>
      <point x="160" y="551" type="curve"/>
      <point x="160" y="787" type="line" smooth="yes"/>
      <point x="160" y="874"/>
      <point x="191" y="899"/>
      <point x="260" y="899" type="curve"/>
      <point x="260" y="925" type="line"/>
      <point x="178" y="925"/>
      <point x="135" y="891"/>
      <point x="135" y="793" type="curve"/>
      <point x="135" y="555" type="line" smooth="yes"/>
      <point x="135" y="469"/>
      <point x="101" y="438"/>
    </contour>
  </outline>
</glyph>
<glyph name="bar.sans" format="2">
  <advance width="403"/>
  <unicode hex="007C"/>
  <outline>
    <contour>
      <point x="215" y="925" type="line"/>
      <point x="189" y="925" type="line"/>
      <point x="189" y="-73" type="line"/>
      <point x="215" y="-73" type="line"/>
    </contour>
  </outline>
</glyph>
<glyph name="braceright" format="2">
  <advance width="315"/>
  <unicode hex="007D"/>
  <outline>
    <contour>
      <point x="272" y="321" type="curve"/>
      <point x="272" y="321" type="line"/>
      <point x="272" y="345" type="line"/>
      <point x="214" y="345"/>
      <point x="180" y="376"/>
      <point x="180" y="461" type="curve"/>
      <point x="180" y="700" type="line" smooth="yes"/>
      <point x="180" y="798"/>
      <point x="137" y="832"/>
      <point x="55" y="832" type="curve"/>
      <point x="55" y="806" type="line"/>
      <point x="124" y="806"/>
      <point x="155" y="781"/>
      <point x="155" y="694" type="curve"/>
      <point x="155" y="457" type="line" smooth="yes"/>
      <point x="155" y="382"/>
      <point x="177" y="349"/>
      <point x="224" y="334" type="curve"/>
      <point x="224" y="332" type="line"/>
      <point x="174" y="315"/>
      <point x="155" y="279"/>
      <point x="155" y="208" type="curve"/>
      <point x="155" y="-28" type="line" smooth="yes"/>
      <point x="155" y="-115"/>
      <point x="124" y="-140"/>
      <point x="55" y="-140" type="curve"/>
      <point x="55" y="-166" type="line"/>
      <point x="137" y="-166"/>
      <point x="180" y="-132"/>
      <point x="180" y="-34" type="curve"/>
      <point x="180" y="204" type="line" smooth="yes"/>
      <point x="180" y="290"/>
      <point x="214" y="321"/>
    </contour>
  </outline>
</glyph>
<glyph name="braceright.sans" format="2">
  <advance width="315"/>
  <unicode hex="007D"/>
  <outline>
    <contour>
      <point x="272" y="414" type="curve"/>
      <point x="272" y="414" type="line"/>
      <point x="272" y="438" type="line"/>
      <point x="214" y="438"/>
      <point x="180" y="469"/>
      <point x="180" y="554" type="curve"/>
      <point x="180" y="793" type="line" smooth="yes"/>
      <point x="180" y="891"/>
      <point x="137" y="925"/>
      <point x="55" y="925" type="curve"/>
      <point x="55" y="899" type="line"/>
      <point x="124" y="899"/>
      <point x="155" y="874"/>
      <point x="155" y="787" type="curve"/>
      <point x="155" y="550" type="line" smooth="yes"/>
      <point x="155" y="475"/>
      <point x="177" y="442"/>
      <point x="224" y="427" type="curve"/>
      <point x="224" y="425" type="line"/>
      <point x="174" y="408"/>
      <point x="155" y="372"/>
      <point x="155" y="301" type="curve"/>
      <point x="155" y="65" type="line" smooth="yes"/>
      <point x="155" y="-22"/>
      <point x="124" y="-47"/>
      <point x="55" y="-47" type="curve"/>
      <point x="55" y="-73" type="line"/>
      <point x="137" y="-73"/>
      <point x="180" y="-39"/>
      <point x="180" y="59" type="curve"/>
      <point x="180" y="297" type="line" smooth="yes"/>
      <point x="180" y="383"/>
      <point x="214" y="414"/>
    </contour>
  </outline>
</glyph>
<glyph name="asciitilde" format="2">
  <advance width="411"/>
  <unicode hex="007E"/>
  <outline>
    <contour>
      <point x="38" y="316" type="curve"/>
      <point x="38" y="316" type="line"/>
      <point x="38" y="284" type="line"/>
      <point x="70" y="324"/>
      <point x="95" y="336"/>
      <point x="123" y="336" type="curve"/>
      <point x="147" y="336"/>
      <point x="163" y="329"/>
      <point x="198" y="307" type="curve"/>
      <point x="233" y="285"/>
      <point x="256" y="272"/>
      <point x="288" y="272" type="curve"/>
      <point x="324" y="272"/>
      <point x="351" y="293"/>
      <point x="373" y="319" type="curve"/>
      <point x="373" y="351" type="line"/>
      <point x="342" y="311"/>
      <point x="316" y="298"/>
      <point x="288" y="298" type="curve"/>
      <point x="266" y="298"/>
      <point x="252" y="304"/>
      <point x="211" y="329" type="curve"/>
      <point x="178" y="349"/>
      <point x="157" y="362"/>
      <point x="123" y="362" type="curve"/>
      <point x="89" y="362"/>
      <point x="63" y="343"/>
    </contour>
  </outline>
</glyph>
<glyph name="asciitilde.sans" format="2">
  <advance width="411"/>
  <unicode hex="007E"/>
  <outline>
    <contour>
      <point x="38" y="409" type="curve"/>
      <point x="38" y="409" type="line"/>
      <point x="38" y="377" type="line"/>
      <point x="70" y="417"/>
      <point x="95" y="429"/>
      <point x="123" y="429" type="curve"/>
      <point x="147" y="429"/>
      <point x="163" y="422"/>
      <point x="198" y="400" type="curve"/>
      <point x="233" y="378"/>
      <point x="256" y="365"/>
      <point x="288" y="365" type="curve"/>
      <point x="324" y="365"/>
      <point x="351" y="386"/>
      <point x="373" y="412" type="curve"/>
      <point x="373" y="444" type="line"/>
      <point x="342" y="404"/>
      <point x="316" y="391"/>
      <point x="288" y="391" type="curve"/>
      <point x="266" y="391"/>
      <point x="252" y="397"/>
      <point x="211" y="422" type="curve"/>
      <point x="178" y="442"/>
      <point x="157" y="455"/>
      <point x="123" y="455" type="curve"/>
      <point x="89" y="455"/>
      <point x="63" y="436"/>
    </contour>
  </outline>
</glyph>
<glyph name="multiply" format="2">
  <advance width="411"/>
  <unicode hex="00D7"/>
  <outline>
    <contour>
      <point x="58" y="156" type="line"/>
      <point x="205" y="303" type="line"/>
      <point x="352" y="156" type="line"/>
      <point x="369" y="173" type="line"/>
      <point x="222" y="320" type="line"/>
      <point x="369" y="467" type="line"/>
      <point x="352" y="484" type="line"/>
      <point x="205" y="337" type="line"/>
      <point x="58" y="484" type="line"/>
      <point x="41" y="467" type="line"/>
      <point x="188" y="320" type="line"/>
      <point x="41" y="173" type="line"/>
    </contour>
  </outline>
</glyph>
<glyph name="multiply.sans" format="2">
  <advance width="411"/>
  <unicode hex="00D7"/>
  <outline>
    <contour>
      <point x="58" y="249" type="line"/>
      <point x="205" y="396" type="line"/>
      <point x="352" y="249" type="line"/>
      <point x="369" y="266" type="line"/>
      <point x="222" y="413" type="line"/>
      <point x="369" y="560" type="line"/>
      <point x="352" y="577" type="line"/>
      <point x="205" y="430" type="line"/>
      <point x="58" y="577" type="line"/>
      <point x="41" y="560" type="line"/>
      <point x="188" y="413" type="line"/>
      <point x="41" y="266" type="line"/>
    </contour>
  </outline>
</glyph>
<glyph name="divide" format="2">
  <advance width="411"/>
  <unicode hex="00F7"/>
  <outline>
    <contour>
      <point x="373" y="335" type="line"/>
      <point x="38" y="335" type="line"/>
      <point x="38" y="309" type="line"/>
      <point x="373" y="309" type="line"/>
    </contour>
    <contour>
      <point x="204" y="137" type="curve"/>
      <point x="204" y="137" type="line"/>
      <point x="224" y="137"/>
      <point x="230" y="150"/>
      <point x="230" y="166" type="curve"/>
      <point x="230" y="181"/>
      <point x="224" y="195"/>
      <point x="204" y="195" type="curve"/>
      <point x="187" y="195"/>
      <point x="180" y="181"/>
      <point x="180" y="166" type="curve"/>
      <point x="180" y="150"/>
      <point x="187" y="137"/>
    </contour>
    <contour>
      <point x="204" y="449" type="curve"/>
      <point x="204" y="449" type="line"/>
      <point x="224" y="449"/>
      <point x="230" y="462"/>
      <point x="230" y="478" type="curve"/>
      <point x="230" y="493"/>
      <point x="224" y="507"/>
      <point x="204" y="507" type="curve"/>
      <point x="187" y="507"/>
      <point x="180" y="493"/>
      <point x="180" y="478" type="curve"/>
      <point x="180" y="462"/>
      <point x="187" y="449"/>
    </contour>
  </outline>
</glyph>
<glyph name="divide.sans" format="2">
  <advance width="411"/>
  <unicode hex="00F7"/>
  <outline>
    <contour>
      <point x="373" y="428" type="line"/>
      <point x="38" y="428" type="line"/>
      <point x="38" y="402" type="line"/>
      <point x="373" y="402" type="line"/>
    </contour>
    <contour>
      <point x="204" y="230" type="curve"/>
      <point x="204" y="230" type="line"/>
      <point x="224" y="230"/>
      <point x="230" y="243"/>
      <point x="230" y="259" type="curve"/>
      <point x="230" y="274"/>
      <point x="224" y="288"/>
      <point x="204" y="288" type="curve"/>
      <point x="187" y="288"/>
      <point x="180" y="274"/>
      <point x="180" y="259" type="curve"/>
      <point x="180" y="243"/>
      <point x="187" y="230"/>
    </contour>
    <contour>
      <point x="204" y="542" type="curve"/>
      <point x="204" y="542" type="line"/>
      <point x="224" y="542"/>
      <point x="230" y="555"/>
      <point x="230" y="571" type="curve"/>
      <point x="230" y="586"/>
      <point x="224" y="600"/>
      <point x="204" y="600" type="curve"/>
      <point x="187" y="600"/>
      <point x="180" y="586"/>
      <point x="180" y="571" type="curve"/>
      <point x="180" y="555"/>
      <point x="187" y="542"/>
    </contour>
  </outline>
</glyph>
<glyph name="danda" format="2">
  <advance width="174"/>
  <unicode hex="0964"/>
  <note>
danda.orya
</note>
  <outline>
    <contour>
      <point x="100" y="658" type="line"/>
      <point x="74" y="658" type="line"/>
      <point x="74" y="0" type="line"/>
      <point x="100" y="0" type="line"/>
    </contour>
  </outline>
</glyph>
<glyph name="danda.sans" format="2">
  <advance width="174"/>
  <unicode hex="0964"/>
  <note>
danda.orya
</note>
  <outline>
    <contour>
      <point x="100" y="751" type="line"/>
      <point x="74" y="751" type="line"/>
      <point x="74" y="93" type="line"/>
      <point x="100" y="93" type="line"/>
    </contour>
  </outline>
</glyph>
<glyph name="dbldanda" format="2">
  <advance width="336"/>
  <unicode hex="0965"/>
  <note>
dbldanda.orya
</note>
  <outline>
    <contour>
      <point x="100" y="658" type="line"/>
      <point x="74" y="658" type="line"/>
      <point x="74" y="0" type="line"/>
      <point x="100" y="0" type="line"/>
    </contour>
    <contour>
      <point x="262" y="658" type="line"/>
      <point x="236" y="658" type="line"/>
      <point x="236" y="0" type="line"/>
      <point x="262" y="0" type="line"/>
    </contour>
  </outline>
</glyph>
<glyph name="dbldanda.sans" format="2">
  <advance width="336"/>
  <unicode hex="0965"/>
  <note>
dbldanda.orya
</note>
  <outline>
    <contour>
      <point x="100" y="751" type="line"/>
      <point x="74" y="751" type="line"/>
      <point x="74" y="93" type="line"/>
      <point x="100" y="93" type="line"/>
    </contour>
    <contour>
      <point x="262" y="751" type="line"/>
      <point x="236" y="751" type="line"/>
      <point x="236" y="93" type="line"/>
      <point x="262" y="93" type="line"/>
    </contour>
  </outline>
</glyph>
<glyph name="candraBindu-oriya" format="2">
  <unicode hex="0B01"/>
  <note>
candrabinduorya
</note>
  <anchor x="300" y="658" name="_topright"/>
  <outline>
    <contour>
      <point x="298" y="704" type="curve"/>
      <point x="298" y="704" type="line"/>
      <point x="373" y="704"/>
      <point x="422" y="766"/>
      <point x="430" y="870" type="curve"/>
      <point x="405" y="873" type="line"/>
      <point x="398" y="782"/>
      <point x="358" y="728"/>
      <point x="298" y="728" type="curve"/>
      <point x="239" y="728"/>
      <point x="200" y="782"/>
      <point x="194" y="873" type="curve"/>
      <point x="169" y="870" type="line"/>
      <point x="176" y="766"/>
      <point x="225" y="704"/>
    </contour>
    <contour>
      <point x="298" y="816" type="curve"/>
      <point x="298" y="816" type="line"/>
      <point x="309" y="816"/>
      <point x="316" y="825"/>
      <point x="316" y="839" type="curve"/>
      <point x="316" y="853"/>
      <point x="309" y="863"/>
      <point x="298" y="863" type="curve"/>
      <point x="287" y="863"/>
      <point x="280" y="853"/>
      <point x="280" y="839" type="curve"/>
      <point x="280" y="825"/>
      <point x="287" y="816"/>
    </contour>
  </outline>
</glyph>
<glyph name="candraBindu-oriya.sans" format="2">
  <unicode hex="0B01"/>
  <note>
candrabinduorya
</note>
  <anchor x="300" y="751" name="_topright"/>
  <outline>
    <contour>
      <point x="298" y="797" type="curve"/>
      <point x="298" y="797" type="line"/>
      <point x="373" y="797"/>
      <point x="422" y="859"/>
      <point x="430" y="963" type="curve"/>
      <point x="405" y="966" type="line"/>
      <point x="398" y="875"/>
      <point x="358" y="821"/>
      <point x="298" y="821" type="curve"/>
      <point x="239" y="821"/>
      <point x="200" y="875"/>
      <point x="194" y="966" type="curve"/>
      <point x="169" y="963" type="line"/>
      <point x="176" y="859"/>
      <point x="225" y="797"/>
    </contour>
    <contour>
      <point x="298" y="909" type="curve"/>
      <point x="298" y="909" type="line"/>
      <point x="309" y="909"/>
      <point x="316" y="918"/>
      <point x="316" y="932" type="curve"/>
      <point x="316" y="946"/>
      <point x="309" y="956"/>
      <point x="298" y="956" type="curve"/>
      <point x="287" y="956"/>
      <point x="280" y="946"/>
      <point x="280" y="932" type="curve"/>
      <point x="280" y="918"/>
      <point x="287" y="909"/>
    </contour>
  </outline>
</glyph>
<glyph name="anusvara-oriya" format="2">
  <advance width="215"/>
  <unicode hex="0B02"/>
  <note>
anusvaraorya
</note>
  <outline>
    <contour>
      <point x="108" y="428" type="curve"/>
      <point x="108" y="428" type="line"/>
      <point x="165" y="428"/>
      <point x="205" y="475"/>
      <point x="205" y="545" type="curve"/>
      <point x="205" y="616"/>
      <point x="163" y="666"/>
      <point x="107" y="666" type="curve"/>
      <point x="50" y="666"/>
      <point x="10" y="616"/>
      <point x="10" y="546" type="curve"/>
      <point x="10" y="475"/>
      <point x="51" y="428"/>
    </contour>
    <contour>
      <point x="107" y="641" type="curve"/>
      <point x="107" y="641" type="line"/>
      <point x="149" y="641"/>
      <point x="180" y="601"/>
      <point x="180" y="547" type="curve"/>
      <point x="180" y="492"/>
      <point x="148" y="453"/>
      <point x="107" y="453" type="curve"/>
      <point x="67" y="453"/>
      <point x="35" y="490"/>
      <point x="35" y="546" type="curve"/>
      <point x="35" y="599"/>
      <point x="64" y="641"/>
    </contour>
  </outline>
</glyph>
<glyph name="anusvara-oriya.sans" format="2">
  <advance width="215"/>
  <unicode hex="0B02"/>
  <note>
anusvaraorya
</note>
  <outline>
    <contour>
      <point x="108" y="521" type="curve"/>
      <point x="108" y="521" type="line"/>
      <point x="165" y="521"/>
      <point x="205" y="568"/>
      <point x="205" y="638" type="curve"/>
      <point x="205" y="709"/>
      <point x="163" y="759"/>
      <point x="107" y="759" type="curve"/>
      <point x="50" y="759"/>
      <point x="10" y="709"/>
      <point x="10" y="639" type="curve"/>
      <point x="10" y="568"/>
      <point x="51" y="521"/>
    </contour>
    <contour>
      <point x="107" y="734" type="curve"/>
      <point x="107" y="734" type="line"/>
      <point x="149" y="734"/>
      <point x="180" y="694"/>
      <point x="180" y="640" type="curve"/>
      <point x="180" y="585"/>
      <point x="148" y="546"/>
      <point x="107" y="546" type="curve"/>
      <point x="67" y="546"/>
      <point x="35" y="583"/>
      <point x="35" y="639" type="curve"/>
      <point x="35" y="692"/>
      <point x="64" y="734"/>
    </contour>
  </outline>
</glyph>
<glyph name="visarga-oriya" format="2">
  <advance width="326"/>
  <unicode hex="0B03"/>
  <note>
visargaorya
</note>
  <outline>
    <contour>
      <point x="163" y="641" type="curve"/>
      <point x="163" y="641" type="line"/>
      <point x="233" y="641"/>
      <point x="269" y="591"/>
      <point x="269" y="517" type="curve"/>
      <point x="269" y="326"/>
      <point x="30" y="334"/>
      <point x="30" y="142" type="curve"/>
      <point x="30" y="52"/>
      <point x="83" y="-8"/>
      <point x="165" y="-8" type="curve"/>
      <point x="251" y="-8"/>
      <point x="296" y="57"/>
      <point x="296" y="143" type="curve"/>
      <point x="296" y="340"/>
      <point x="57" y="333"/>
      <point x="57" y="518" type="curve"/>
      <point x="57" y="590"/>
      <point x="93" y="641"/>
    </contour>
    <contour>
      <point x="164" y="666" type="curve"/>
      <point x="164" y="666" type="line"/>
      <point x="76" y="666"/>
      <point x="31" y="600"/>
      <point x="31" y="515" type="curve"/>
      <point x="31" y="319"/>
      <point x="271" y="322"/>
      <point x="271" y="144" type="curve"/>
      <point x="271" y="63"/>
      <point x="221" y="17"/>
      <point x="165" y="17" type="curve"/>
      <point x="108" y="17"/>
      <point x="55" y="63"/>
      <point x="55" y="144" type="curve"/>
      <point x="55" y="316"/>
      <point x="295" y="319"/>
      <point x="295" y="516" type="curve"/>
      <point x="295" y="600"/>
      <point x="250" y="666"/>
    </contour>
  </outline>
</glyph>
<glyph name="visarga-oriya.sans" format="2">
  <advance width="326"/>
  <unicode hex="0B03"/>
  <note>
visargaorya
</note>
  <outline>
    <contour>
      <point x="163" y="734" type="curve"/>
      <point x="163" y="734" type="line"/>
      <point x="233" y="734"/>
      <point x="269" y="684"/>
      <point x="269" y="610" type="curve"/>
      <point x="269" y="419"/>
      <point x="30" y="427"/>
      <point x="30" y="235" type="curve"/>
      <point x="30" y="145"/>
      <point x="83" y="85"/>
      <point x="165" y="85" type="curve"/>
      <point x="251" y="85"/>
      <point x="296" y="150"/>
      <point x="296" y="236" type="curve"/>
      <point x="296" y="433"/>
      <point x="57" y="426"/>
      <point x="57" y="611" type="curve"/>
      <point x="57" y="683"/>
      <point x="93" y="734"/>
    </contour>
    <contour>
      <point x="164" y="759" type="curve"/>
      <point x="164" y="759" type="line"/>
      <point x="76" y="759"/>
      <point x="31" y="693"/>
      <point x="31" y="608" type="curve"/>
      <point x="31" y="412"/>
      <point x="271" y="415"/>
      <point x="271" y="237" type="curve"/>
      <point x="271" y="156"/>
      <point x="221" y="110"/>
      <point x="165" y="110" type="curve"/>
      <point x="108" y="110"/>
      <point x="55" y="156"/>
      <point x="55" y="237" type="curve"/>
      <point x="55" y="409"/>
      <point x="295" y="412"/>
      <point x="295" y="609" type="curve"/>
      <point x="295" y="693"/>
      <point x="250" y="759"/>
    </contour>
  </outline>
</glyph>
<glyph name="a-oriya" format="2">
  <advance width="519"/>
  <unicode hex="0B05"/>
  <note>
aorya
</note>
  <anchor x="454" y="658" name="topright"/>
  <outline>
    <contour>
      <point x="219" y="-8" type="curve"/>
      <point x="219" y="-8" type="line"/>
      <point x="299" y="-8"/>
      <point x="391" y="40"/>
      <point x="453" y="139" type="curve"/>
      <point x="450" y="184" type="line"/>
      <point x="397" y="74"/>
      <point x="300" y="17"/>
      <point x="219" y="17" type="curve"/>
      <point x="144" y="17"/>
      <point x="82" y="67"/>
      <point x="82" y="171" type="curve"/>
      <point x="82" y="268"/>
      <point x="141" y="295"/>
      <point x="203" y="326" type="curve"/>
      <point x="213" y="331" type="line" smooth="yes"/>
      <point x="290" y="370"/>
      <point x="366" y="405"/>
      <point x="366" y="539" type="curve"/>
      <point x="366" y="638"/>
      <point x="325" y="666"/>
      <point x="281" y="666" type="curve"/>
      <point x="236" y="666"/>
      <point x="213" y="636"/>
      <point x="203" y="574" type="curve"/>
      <point x="221" y="574" type="line"/>
      <point x="210" y="636"/>
      <point x="187" y="666"/>
      <point x="141" y="666" type="curve"/>
      <point x="88" y="666"/>
      <point x="56" y="628"/>
      <point x="56" y="553" type="curve"/>
      <point x="56" y="526.627"/>
      <point x="60.064" y="494.666"/>
      <point x="71.452" y="464.358" type="curve"/>
      <point x="95" y="471" type="line"/>
      <point x="87" y="495"/>
      <point x="82" y="524"/>
      <point x="82" y="552" type="curve"/>
      <point x="82" y="598"/>
      <point x="94" y="641"/>
      <point x="138" y="641" type="curve"/>
      <point x="179" y="641"/>
      <point x="198" y="604"/>
      <point x="198" y="550" type="curve"/>
      <point x="198" y="469" type="line"/>
      <point x="224" y="469" type="line"/>
      <point x="224" y="550" type="line" smooth="yes"/>
      <point x="224" y="599"/>
      <point x="241" y="641"/>
      <point x="284" y="641" type="curve"/>
      <point x="317" y="641"/>
      <point x="340" y="616"/>
      <point x="340" y="544" type="curve"/>
      <point x="340" y="423"/>
      <point x="277" y="390"/>
      <point x="200" y="352" type="curve"/>
      <point x="194" y="349" type="line" smooth="yes"/>
      <point x="125" y="315"/>
      <point x="56" y="282"/>
      <point x="56" y="169" type="curve"/>
      <point x="56" y="52"/>
      <point x="130" y="-8"/>
    </contour>
    <contour>
      <point x="441" y="140" type="line"/>
      <point x="441" y="0" type="line"/>
      <point x="467" y="0" type="line"/>
      <point x="467" y="658" type="line"/>
      <point x="441" y="658" type="line"/>
      <point x="441" y="154" type="line"/>
    </contour>
  </outline>
</glyph>
<glyph name="a-oriya.sans" format="2">
  <advance width="519"/>
  <unicode hex="0B05"/>
  <note>
aorya
</note>
  <anchor x="454" y="751" name="topright"/>
  <outline>
    <contour>
      <point x="219" y="85" type="curve"/>
      <point x="219" y="85" type="line"/>
      <point x="299" y="85"/>
      <point x="391" y="133"/>
      <point x="453" y="232" type="curve"/>
      <point x="450" y="277" type="line"/>
      <point x="397" y="167"/>
      <point x="300" y="110"/>
      <point x="219" y="110" type="curve"/>
      <point x="144" y="110"/>
      <point x="82" y="160"/>
      <point x="82" y="264" type="curve"/>
      <point x="82" y="361"/>
      <point x="141" y="388"/>
      <point x="203" y="419" type="curve"/>
      <point x="213" y="424" type="line" smooth="yes"/>
      <point x="290" y="463"/>
      <point x="366" y="498"/>
      <point x="366" y="632" type="curve"/>
      <point x="366" y="731"/>
      <point x="325" y="759"/>
      <point x="281" y="759" type="curve"/>
      <point x="236" y="759"/>
      <point x="213" y="729"/>
      <point x="203" y="667" type="curve"/>
      <point x="221" y="667" type="line"/>
      <point x="210" y="729"/>
      <point x="187" y="759"/>
      <point x="141" y="759" type="curve"/>
      <point x="88" y="759"/>
      <point x="56" y="721"/>
      <point x="56" y="646" type="curve"/>
      <point x="56" y="619.627"/>
      <point x="60.064" y="587.666"/>
      <point x="71.452" y="557.358" type="curve"/>
      <point x="95" y="564" type="line"/>
      <point x="87" y="588"/>
      <point x="82" y="617"/>
      <point x="82" y="645" type="curve"/>
      <point x="82" y="691"/>
      <point x="94" y="734"/>
      <point x="138" y="734" type="curve"/>
      <point x="179" y="734"/>
      <point x="198" y="697"/>
      <point x="198" y="643" type="curve"/>
      <point x="198" y="562" type="line"/>
      <point x="224" y="562" type="line"/>
      <point x="224" y="643" type="line" smooth="yes"/>
      <point x="224" y="692"/>
      <point x="241" y="734"/>
      <point x="284" y="734" type="curve"/>
      <point x="317" y="734"/>
      <point x="340" y="709"/>
      <point x="340" y="637" type="curve"/>
      <point x="340" y="516"/>
      <point x="277" y="483"/>
      <point x="200" y="445" type="curve"/>
      <point x="194" y="442" type="line" smooth="yes"/>
      <point x="125" y="408"/>
      <point x="56" y="375"/>
      <point x="56" y="262" type="curve"/>
      <point x="56" y="145"/>
      <point x="130" y="85"/>
    </contour>
    <contour>
      <point x="441" y="233" type="line"/>
      <point x="441" y="93" type="line"/>
      <point x="467" y="93" type="line"/>
      <point x="467" y="751" type="line"/>
      <point x="441" y="751" type="line"/>
      <point x="441" y="247" type="line"/>
    </contour>
  </outline>
</glyph>
<glyph name="i-oriya" format="2">
  <advance width="581"/>
  <unicode hex="0B07"/>
  <note>
iorya
</note>
  <anchor x="503" y="658" name="topright"/>
  <outline>
    <contour>
      <point x="449" y="151" type="curve"/>
      <point x="449" y="151" type="line"/>
      <point x="540.409" y="-8.337" type="line"/>
      <point x="561.3" y="4.077" type="line"/>
      <point x="475" y="156" type="line"/>
      <point x="467" y="136" type="line"/>
      <point x="522" y="208"/>
      <point x="548" y="294"/>
      <point x="548" y="375" type="curve"/>
      <point x="548" y="529"/>
      <point x="446" y="666"/>
      <point x="284" y="666" type="curve"/>
      <point x="152" y="666"/>
      <point x="28" y="574"/>
      <point x="28" y="408" type="curve"/>
      <point x="28" y="336"/>
      <point x="51" y="266"/>
      <point x="103" y="203" type="curve"/>
      <point x="114" y="230" type="line"/>
      <point x="73" y="284"/>
      <point x="54" y="344"/>
      <point x="54" y="405" type="curve"/>
      <point x="54" y="557"/>
      <point x="164" y="641"/>
      <point x="283" y="641" type="curve"/>
      <point x="428" y="641"/>
      <point x="522" y="517"/>
      <point x="522" y="375" type="curve"/>
      <point x="522" y="300"/>
      <point x="498" y="220"/>
    </contour>
    <contour>
      <point x="180" y="-8" type="curve"/>
      <point x="180" y="-8" type="line"/>
      <point x="237" y="-8"/>
      <point x="265" y="53"/>
      <point x="265" y="159" type="curve"/>
      <point x="265" y="265"/>
      <point x="237" y="326"/>
      <point x="180" y="326" type="curve"/>
      <point x="126" y="326"/>
      <point x="93" y="267"/>
      <point x="93" y="159" type="curve"/>
      <point x="93" y="52"/>
      <point x="125" y="-8"/>
    </contour>
    <contour>
      <point x="181" y="17" type="curve"/>
      <point x="181" y="17" type="line"/>
      <point x="142" y="17"/>
      <point x="119" y="67"/>
      <point x="119" y="160" type="curve"/>
      <point x="119" y="249"/>
      <point x="140" y="301"/>
      <point x="181" y="301" type="curve"/>
      <point x="222" y="301"/>
      <point x="243" y="250"/>
      <point x="243" y="160" type="curve"/>
      <point x="243" y="67"/>
      <point x="220" y="17"/>
    </contour>
    <contour>
      <point x="333" y="-8" type="curve"/>
      <point x="333" y="-8" type="line"/>
      <point x="388" y="-8"/>
      <point x="419" y="51"/>
      <point x="419" y="159" type="curve"/>
      <point x="419" y="266"/>
      <point x="389" y="326"/>
      <point x="334" y="326" type="curve"/>
      <point x="278" y="326"/>
      <point x="247" y="266"/>
      <point x="247" y="159" type="curve"/>
      <point x="247" y="53"/>
      <point x="277" y="-8"/>
    </contour>
    <contour>
      <point x="332" y="17" type="curve"/>
      <point x="332" y="17" type="line"/>
      <point x="293" y="17"/>
      <point x="269" y="67"/>
      <point x="269" y="159" type="curve"/>
      <point x="269" y="249"/>
      <point x="292" y="301"/>
      <point x="333" y="301" type="curve"/>
      <point x="373" y="301"/>
      <point x="393" y="250"/>
      <point x="393" y="160" type="curve"/>
      <point x="393" y="66"/>
      <point x="371" y="17"/>
    </contour>
  </outline>
</glyph>
<glyph name="i-oriya.sans" format="2">
  <advance width="581"/>
  <unicode hex="0B07"/>
  <note>
iorya
</note>
  <anchor x="503" y="751" name="topright"/>
  <outline>
    <contour>
      <point x="449" y="244" type="curve"/>
      <point x="449" y="244" type="line"/>
      <point x="540.409" y="84.663" type="line"/>
      <point x="561.3" y="97.077" type="line"/>
      <point x="475" y="249" type="line"/>
      <point x="467" y="229" type="line"/>
      <point x="522" y="301"/>
      <point x="548" y="387"/>
      <point x="548" y="468" type="curve"/>
      <point x="548" y="622"/>
      <point x="446" y="759"/>
      <point x="284" y="759" type="curve"/>
      <point x="152" y="759"/>
      <point x="28" y="667"/>
      <point x="28" y="501" type="curve"/>
      <point x="28" y="429"/>
      <point x="51" y="359"/>
      <point x="103" y="296" type="curve"/>
      <point x="114" y="323" type="line"/>
      <point x="73" y="377"/>
      <point x="54" y="437"/>
      <point x="54" y="498" type="curve"/>
      <point x="54" y="650"/>
      <point x="164" y="734"/>
      <point x="283" y="734" type="curve"/>
      <point x="428" y="734"/>
      <point x="522" y="610"/>
      <point x="522" y="468" type="curve"/>
      <point x="522" y="393"/>
      <point x="498" y="313"/>
    </contour>
    <contour>
      <point x="180" y="85" type="curve"/>
      <point x="180" y="85" type="line"/>
      <point x="237" y="85"/>
      <point x="265" y="146"/>
      <point x="265" y="252" type="curve"/>
      <point x="265" y="358"/>
      <point x="237" y="419"/>
      <point x="180" y="419" type="curve"/>
      <point x="126" y="419"/>
      <point x="93" y="360"/>
      <point x="93" y="252" type="curve"/>
      <point x="93" y="145"/>
      <point x="125" y="85"/>
    </contour>
    <contour>
      <point x="181" y="110" type="curve"/>
      <point x="181" y="110" type="line"/>
      <point x="142" y="110"/>
      <point x="119" y="160"/>
      <point x="119" y="253" type="curve"/>
      <point x="119" y="342"/>
      <point x="140" y="394"/>
      <point x="181" y="394" type="curve"/>
      <point x="222" y="394"/>
      <point x="243" y="343"/>
      <point x="243" y="253" type="curve"/>
      <point x="243" y="160"/>
      <point x="220" y="110"/>
    </contour>
    <contour>
      <point x="333" y="85" type="curve"/>
      <point x="333" y="85" type="line"/>
      <point x="388" y="85"/>
      <point x="419" y="144"/>
      <point x="419" y="252" type="curve"/>
      <point x="419" y="359"/>
      <point x="389" y="419"/>
      <point x="334" y="419" type="curve"/>
      <point x="278" y="419"/>
      <point x="247" y="359"/>
      <point x="247" y="252" type="curve"/>
      <point x="247" y="146"/>
      <point x="277" y="85"/>
    </contour>
    <contour>
      <point x="332" y="110" type="curve"/>
      <point x="332" y="110" type="line"/>
      <point x="293" y="110"/>
      <point x="269" y="160"/>
      <point x="269" y="252" type="curve"/>
      <point x="269" y="342"/>
      <point x="292" y="394"/>
      <point x="333" y="394" type="curve"/>
      <point x="373" y="394"/>
      <point x="393" y="343"/>
      <point x="393" y="253" type="curve"/>
      <point x="393" y="159"/>
      <point x="371" y="110"/>
    </contour>
  </outline>
</glyph>
<glyph name="ii-oriya" format="2">
  <advance width="581"/>
  <unicode hex="0B08"/>
  <note>
iiorya
</note>
  <anchor x="502" y="658" name="topright"/>
  <outline>
    <contour>
      <point x="449" y="151" type="curve"/>
      <point x="449" y="151" type="line"/>
      <point x="540.566" y="-8.209" type="line"/>
      <point x="560.946" y="4.378" type="line"/>
      <point x="475" y="156" type="line"/>
      <point x="472" y="140" type="line"/>
      <point x="518" y="207"/>
      <point x="547" y="288"/>
      <point x="547" y="387" type="curve"/>
      <point x="547" y="571"/>
      <point x="447" y="666"/>
      <point x="340" y="666" type="curve"/>
      <point x="252" y="666"/>
      <point x="177" y="603"/>
      <point x="149" y="489" type="curve"/>
      <point x="179" y="497" type="line"/>
      <point x="205" y="589"/>
      <point x="266" y="641"/>
      <point x="340" y="641" type="curve"/>
      <point x="439" y="641"/>
      <point x="521" y="546"/>
      <point x="521" y="385" type="curve"/>
      <point x="521" y="291"/>
      <point x="493" y="213"/>
    </contour>
    <contour>
      <point x="180" y="-8" type="curve"/>
      <point x="180" y="-8" type="line"/>
      <point x="237" y="-8"/>
      <point x="265" y="53"/>
      <point x="265" y="159" type="curve"/>
      <point x="265" y="265"/>
      <point x="237" y="326"/>
      <point x="180" y="326" type="curve"/>
      <point x="126" y="326"/>
      <point x="93" y="267"/>
      <point x="93" y="159" type="curve"/>
      <point x="93" y="52"/>
      <point x="125" y="-8"/>
    </contour>
    <contour>
      <point x="181" y="17" type="curve"/>
      <point x="181" y="17" type="line"/>
      <point x="142" y="17"/>
      <point x="119" y="67"/>
      <point x="119" y="160" type="curve"/>
      <point x="119" y="249"/>
      <point x="140" y="301"/>
      <point x="181" y="301" type="curve"/>
      <point x="222" y="301"/>
      <point x="243" y="250"/>
      <point x="243" y="160" type="curve"/>
      <point x="243" y="67"/>
      <point x="220" y="17"/>
    </contour>
    <contour>
      <point x="332" y="-8" type="curve"/>
      <point x="332" y="-8" type="line"/>
      <point x="387" y="-8"/>
      <point x="419" y="51"/>
      <point x="419" y="159" type="curve"/>
      <point x="419" y="266"/>
      <point x="388" y="326"/>
      <point x="331" y="326" type="curve"/>
      <point x="278" y="326"/>
      <point x="247" y="267"/>
      <point x="247" y="159" type="curve"/>
      <point x="247" y="52"/>
      <point x="277" y="-8"/>
    </contour>
    <contour>
      <point x="331" y="17" type="curve"/>
      <point x="331" y="17" type="line"/>
      <point x="292" y="17"/>
      <point x="269" y="68"/>
      <point x="269" y="160" type="curve"/>
      <point x="269" y="251"/>
      <point x="292" y="301"/>
      <point x="331" y="301" type="curve"/>
      <point x="372" y="301"/>
      <point x="393" y="250"/>
      <point x="393" y="160" type="curve"/>
      <point x="393" y="68"/>
      <point x="371" y="17"/>
    </contour>
    <contour>
      <point x="95" y="194" type="curve"/>
      <point x="95" y="194" type="line"/>
      <point x="103" y="222" type="line"/>
      <point x="70" y="249"/>
      <point x="54" y="291"/>
      <point x="54" y="334" type="curve"/>
      <point x="54" y="428"/>
      <point x="118" y="488"/>
      <point x="185" y="488" type="curve"/>
      <point x="224.067" y="488"/>
      <point x="263.96" y="468.189"/>
      <point x="293.429" y="422.568" type="curve"/>
      <point x="311.889" y="437.997" type="line"/>
      <point x="278.939" y="489.611"/>
      <point x="231.536" y="513"/>
      <point x="185" y="513" type="curve"/>
      <point x="105" y="513"/>
      <point x="28" y="445"/>
      <point x="28" y="336" type="curve"/>
      <point x="28" y="282"/>
      <point x="49" y="229"/>
    </contour>
  </outline>
</glyph>
<glyph name="ii-oriya.sans" format="2">
  <advance width="581"/>
  <unicode hex="0B08"/>
  <note>
iiorya
</note>
  <anchor x="502" y="751" name="topright"/>
  <outline>
    <contour>
      <point x="449" y="244" type="curve"/>
      <point x="449" y="244" type="line"/>
      <point x="540.566" y="84.791" type="line"/>
      <point x="560.946" y="97.378" type="line"/>
      <point x="475" y="249" type="line"/>
      <point x="472" y="233" type="line"/>
      <point x="518" y="300"/>
      <point x="547" y="381"/>
      <point x="547" y="480" type="curve"/>
      <point x="547" y="664"/>
      <point x="447" y="759"/>
      <point x="340" y="759" type="curve"/>
      <point x="252" y="759"/>
      <point x="177" y="696"/>
      <point x="149" y="582" type="curve"/>
      <point x="179" y="590" type="line"/>
      <point x="205" y="682"/>
      <point x="266" y="734"/>
      <point x="340" y="734" type="curve"/>
      <point x="439" y="734"/>
      <point x="521" y="639"/>
      <point x="521" y="478" type="curve"/>
      <point x="521" y="384"/>
      <point x="493" y="306"/>
    </contour>
    <contour>
      <point x="180" y="85" type="curve"/>
      <point x="180" y="85" type="line"/>
      <point x="237" y="85"/>
      <point x="265" y="146"/>
      <point x="265" y="252" type="curve"/>
      <point x="265" y="358"/>
      <point x="237" y="419"/>
      <point x="180" y="419" type="curve"/>
      <point x="126" y="419"/>
      <point x="93" y="360"/>
      <point x="93" y="252" type="curve"/>
      <point x="93" y="145"/>
      <point x="125" y="85"/>
    </contour>
    <contour>
      <point x="181" y="110" type="curve"/>
      <point x="181" y="110" type="line"/>
      <point x="142" y="110"/>
      <point x="119" y="160"/>
      <point x="119" y="253" type="curve"/>
      <point x="119" y="342"/>
      <point x="140" y="394"/>
      <point x="181" y="394" type="curve"/>
      <point x="222" y="394"/>
      <point x="243" y="343"/>
      <point x="243" y="253" type="curve"/>
      <point x="243" y="160"/>
      <point x="220" y="110"/>
    </contour>
    <contour>
      <point x="332" y="85" type="curve"/>
      <point x="332" y="85" type="line"/>
      <point x="387" y="85"/>
      <point x="419" y="144"/>
      <point x="419" y="252" type="curve"/>
      <point x="419" y="359"/>
      <point x="388" y="419"/>
      <point x="331" y="419" type="curve"/>
      <point x="278" y="419"/>
      <point x="247" y="360"/>
      <point x="247" y="252" type="curve"/>
      <point x="247" y="145"/>
      <point x="277" y="85"/>
    </contour>
    <contour>
      <point x="331" y="110" type="curve"/>
      <point x="331" y="110" type="line"/>
      <point x="292" y="110"/>
      <point x="269" y="161"/>
      <point x="269" y="253" type="curve"/>
      <point x="269" y="344"/>
      <point x="292" y="394"/>
      <point x="331" y="394" type="curve"/>
      <point x="372" y="394"/>
      <point x="393" y="343"/>
      <point x="393" y="253" type="curve"/>
      <point x="393" y="161"/>
      <point x="371" y="110"/>
    </contour>
    <contour>
      <point x="95" y="287" type="curve"/>
      <point x="95" y="287" type="line"/>
      <point x="103" y="315" type="line"/>
      <point x="70" y="342"/>
      <point x="54" y="384"/>
      <point x="54" y="427" type="curve"/>
      <point x="54" y="521"/>
      <point x="118" y="581"/>
      <point x="185" y="581" type="curve"/>
      <point x="224.067" y="581"/>
      <point x="263.96" y="561.189"/>
      <point x="293.429" y="515.568" type="curve"/>
      <point x="311.889" y="530.997" type="line"/>
      <point x="278.939" y="582.611"/>
      <point x="231.536" y="606"/>
      <point x="185" y="606" type="curve"/>
      <point x="105" y="606"/>
      <point x="28" y="538"/>
      <point x="28" y="429" type="curve"/>
      <point x="28" y="375"/>
      <point x="49" y="322"/>
    </contour>
  </outline>
</glyph>
<glyph name="u-oriya" format="2">
  <advance width="543"/>
  <unicode hex="0B09"/>
  <note>
uorya
</note>
  <anchor x="464" y="658" name="topright"/>
  <outline>
    <contour>
      <point x="264" y="641" type="curve"/>
      <point x="264" y="641" type="line"/>
      <point x="373" y="641"/>
      <point x="483" y="555"/>
      <point x="483" y="375" type="curve"/>
      <point x="483" y="277"/>
      <point x="452" y="209"/>
      <point x="411" y="151" type="curve"/>
      <point x="502.266" y="-8.11" type="line"/>
      <point x="522.952" y="4.982" type="line"/>
      <point x="437" y="156" type="line"/>
      <point x="425" y="128" type="line"/>
      <point x="472" y="194"/>
      <point x="509" y="267"/>
      <point x="509" y="376" type="curve"/>
      <point x="509" y="572"/>
      <point x="385" y="666"/>
      <point x="263" y="666" type="curve"/>
      <point x="144" y="666"/>
      <point x="28" y="578"/>
      <point x="28" y="409" type="curve"/>
      <point x="28" y="323"/>
      <point x="61" y="251"/>
      <point x="116" y="204" type="curve"/>
      <point x="121" y="236" type="line"/>
      <point x="80" y="276"/>
      <point x="54" y="336"/>
      <point x="54" y="409" type="curve"/>
      <point x="54" y="561"/>
      <point x="158" y="641"/>
    </contour>
    <contour>
      <point x="246" y="-8" type="curve"/>
      <point x="246" y="-8" type="line"/>
      <point x="334" y="-8"/>
      <point x="381" y="59"/>
      <point x="381" y="137" type="curve"/>
      <point x="381" y="190"/>
      <point x="359" y="247"/>
      <point x="313" y="290" type="curve"/>
      <point x="298" y="271" type="line"/>
      <point x="336" y="236"/>
      <point x="355" y="186"/>
      <point x="355" y="139" type="curve"/>
      <point x="355" y="74"/>
      <point x="318" y="17"/>
      <point x="246" y="17" type="curve"/>
      <point x="172" y="17"/>
      <point x="129" y="77"/>
      <point x="129" y="164" type="curve"/>
      <point x="129" y="241"/>
      <point x="163" y="295"/>
      <point x="222" y="357" type="curve"/>
      <point x="204" y="373" type="line"/>
      <point x="139" y="306"/>
      <point x="103" y="248"/>
      <point x="103" y="164" type="curve"/>
      <point x="103" y="61"/>
      <point x="156" y="-8"/>
    </contour>
    <contour>
      <point x="236" y="213" type="line"/>
      <point x="254" y="198" type="line"/>
      <point x="368" y="345" type="line"/>
      <point x="350" y="360" type="line"/>
    </contour>
  </outline>
</glyph>
<glyph name="u-oriya.sans" format="2">
  <advance width="543"/>
  <unicode hex="0B09"/>
  <note>
uorya
</note>
  <anchor x="464" y="751" name="topright"/>
  <outline>
    <contour>
      <point x="264" y="734" type="curve"/>
      <point x="264" y="734" type="line"/>
      <point x="373" y="734"/>
      <point x="483" y="648"/>
      <point x="483" y="468" type="curve"/>
      <point x="483" y="370"/>
      <point x="452" y="302"/>
      <point x="411" y="244" type="curve"/>
      <point x="502.266" y="84.89" type="line"/>
      <point x="522.952" y="97.982" type="line"/>
      <point x="437" y="249" type="line"/>
      <point x="425" y="221" type="line"/>
      <point x="472" y="287"/>
      <point x="509" y="360"/>
      <point x="509" y="469" type="curve"/>
      <point x="509" y="665"/>
      <point x="385" y="759"/>
      <point x="263" y="759" type="curve"/>
      <point x="144" y="759"/>
      <point x="28" y="671"/>
      <point x="28" y="502" type="curve"/>
      <point x="28" y="416"/>
      <point x="61" y="344"/>
      <point x="116" y="297" type="curve"/>
      <point x="121" y="329" type="line"/>
      <point x="80" y="369"/>
      <point x="54" y="429"/>
      <point x="54" y="502" type="curve"/>
      <point x="54" y="654"/>
      <point x="158" y="734"/>
    </contour>
    <contour>
      <point x="246" y="85" type="curve"/>
      <point x="246" y="85" type="line"/>
      <point x="334" y="85"/>
      <point x="381" y="152"/>
      <point x="381" y="230" type="curve"/>
      <point x="381" y="283"/>
      <point x="359" y="340"/>
      <point x="313" y="383" type="curve"/>
      <point x="298" y="364" type="line"/>
      <point x="336" y="329"/>
      <point x="355" y="279"/>
      <point x="355" y="232" type="curve"/>
      <point x="355" y="167"/>
      <point x="318" y="110"/>
      <point x="246" y="110" type="curve"/>
      <point x="172" y="110"/>
      <point x="129" y="170"/>
      <point x="129" y="257" type="curve"/>
      <point x="129" y="334"/>
      <point x="163" y="388"/>
      <point x="222" y="450" type="curve"/>
      <point x="204" y="466" type="line"/>
      <point x="139" y="399"/>
      <point x="103" y="341"/>
      <point x="103" y="257" type="curve"/>
      <point x="103" y="154"/>
      <point x="156" y="85"/>
    </contour>
    <contour>
      <point x="236" y="306" type="line"/>
      <point x="254" y="291" type="line"/>
      <point x="368" y="438" type="line"/>
      <point x="350" y="453" type="line"/>
    </contour>
  </outline>
</glyph>
<glyph name="uu-oriya" format="2">
  <advance width="582"/>
  <unicode hex="0B0A"/>
  <note>
uuorya
</note>
  <anchor x="446" y="658" name="topright"/>
  <outline>
    <contour>
      <point x="111" y="205" type="curve"/>
      <point x="111" y="205" type="line"/>
      <point x="118" y="234" type="line"/>
      <point x="84" y="278"/>
      <point x="54" y="338"/>
      <point x="54" y="413" type="curve"/>
      <point x="54" y="538"/>
      <point x="138" y="641"/>
      <point x="264" y="641" type="curve"/>
      <point x="382" y="641"/>
      <point x="465" y="550"/>
      <point x="465" y="425" type="curve"/>
      <point x="465" y="385"/>
      <point x="456" y="344"/>
      <point x="440" y="309" type="curve"/>
      <point x="471" y="319" type="line"/>
      <point x="484" y="352"/>
      <point x="491" y="388"/>
      <point x="491" y="425" type="curve"/>
      <point x="491" y="562"/>
      <point x="398" y="666"/>
      <point x="263" y="666" type="curve"/>
      <point x="124" y="666"/>
      <point x="28" y="554"/>
      <point x="28" y="413" type="curve"/>
      <point x="28" y="325"/>
      <point x="65" y="250"/>
    </contour>
    <contour>
      <point x="411" y="129" type="line"/>
      <point x="489.178" y="-8.21" type="line"/>
      <point x="509.839" y="5.244" type="line"/>
      <point x="431" y="144" type="line"/>
      <point x="426" y="122" type="line"/>
      <point x="510" y="123"/>
      <point x="554" y="179"/>
      <point x="554" y="234" type="curve"/>
      <point x="554" y="279"/>
      <point x="524" y="322"/>
      <point x="461" y="331" type="curve"/>
      <point x="440" y="309" type="line"/>
      <point x="499" y="309"/>
      <point x="529" y="271"/>
      <point x="529" y="232" type="curve"/>
      <point x="529" y="190"/>
      <point x="495" y="147"/>
      <point x="422" y="146" type="curve"/>
    </contour>
    <contour>
      <point x="246" y="-8" type="curve"/>
      <point x="246" y="-8" type="line"/>
      <point x="334" y="-8"/>
      <point x="381" y="59"/>
      <point x="381" y="137" type="curve"/>
      <point x="381" y="190"/>
      <point x="359" y="247"/>
      <point x="313" y="290" type="curve"/>
      <point x="298" y="271" type="line"/>
      <point x="336" y="236"/>
      <point x="355" y="186"/>
      <point x="355" y="139" type="curve"/>
      <point x="355" y="74"/>
      <point x="318" y="17"/>
      <point x="246" y="17" type="curve"/>
      <point x="172" y="17"/>
      <point x="129" y="77"/>
      <point x="129" y="164" type="curve"/>
      <point x="129" y="241"/>
      <point x="163" y="295"/>
      <point x="222" y="357" type="curve"/>
      <point x="204" y="373" type="line"/>
      <point x="139" y="306"/>
      <point x="103" y="248"/>
      <point x="103" y="164" type="curve"/>
      <point x="103" y="61"/>
      <point x="156" y="-8"/>
    </contour>
    <contour>
      <point x="236" y="213" type="line"/>
      <point x="254" y="198" type="line"/>
      <point x="368" y="345" type="line"/>
      <point x="350" y="360" type="line"/>
    </contour>
  </outline>
</glyph>
<glyph name="uu-oriya.sans" format="2">
  <advance width="582"/>
  <unicode hex="0B0A"/>
  <note>
uuorya
</note>
  <anchor x="446" y="751" name="topright"/>
  <outline>
    <contour>
      <point x="111" y="298" type="curve"/>
      <point x="111" y="298" type="line"/>
      <point x="118" y="327" type="line"/>
      <point x="84" y="371"/>
      <point x="54" y="431"/>
      <point x="54" y="506" type="curve"/>
      <point x="54" y="631"/>
      <point x="138" y="734"/>
      <point x="264" y="734" type="curve"/>
      <point x="382" y="734"/>
      <point x="465" y="643"/>
      <point x="465" y="518" type="curve"/>
      <point x="465" y="478"/>
      <point x="456" y="437"/>
      <point x="440" y="402" type="curve"/>
      <point x="471" y="412" type="line"/>
      <point x="484" y="445"/>
      <point x="491" y="481"/>
      <point x="491" y="518" type="curve"/>
      <point x="491" y="655"/>
      <point x="398" y="759"/>
      <point x="263" y="759" type="curve"/>
      <point x="124" y="759"/>
      <point x="28" y="647"/>
      <point x="28" y="506" type="curve"/>
      <point x="28" y="418"/>
      <point x="65" y="343"/>
    </contour>
    <contour>
      <point x="411" y="222" type="line"/>
      <point x="489.178" y="84.79" type="line"/>
      <point x="509.839" y="98.244" type="line"/>
      <point x="431" y="237" type="line"/>
      <point x="426" y="215" type="line"/>
      <point x="510" y="216"/>
      <point x="554" y="272"/>
      <point x="554" y="327" type="curve"/>
      <point x="554" y="372"/>
      <point x="524" y="415"/>
      <point x="461" y="424" type="curve"/>
      <point x="440" y="402" type="line"/>
      <point x="499" y="402"/>
      <point x="529" y="364"/>
      <point x="529" y="325" type="curve"/>
      <point x="529" y="283"/>
      <point x="495" y="240"/>
      <point x="422" y="239" type="curve"/>
    </contour>
    <contour>
      <point x="246" y="85" type="curve"/>
      <point x="246" y="85" type="line"/>
      <point x="334" y="85"/>
      <point x="381" y="152"/>
      <point x="381" y="230" type="curve"/>
      <point x="381" y="283"/>
      <point x="359" y="340"/>
      <point x="313" y="383" type="curve"/>
      <point x="298" y="364" type="line"/>
      <point x="336" y="329"/>
      <point x="355" y="279"/>
      <point x="355" y="232" type="curve"/>
      <point x="355" y="167"/>
      <point x="318" y="110"/>
      <point x="246" y="110" type="curve"/>
      <point x="172" y="110"/>
      <point x="129" y="170"/>
      <point x="129" y="257" type="curve"/>
      <point x="129" y="334"/>
      <point x="163" y="388"/>
      <point x="222" y="450" type="curve"/>
      <point x="204" y="466" type="line"/>
      <point x="139" y="399"/>
      <point x="103" y="341"/>
      <point x="103" y="257" type="curve"/>
      <point x="103" y="154"/>
      <point x="156" y="85"/>
    </contour>
    <contour>
      <point x="236" y="306" type="line"/>
      <point x="254" y="291" type="line"/>
      <point x="368" y="438" type="line"/>
      <point x="350" y="453" type="line"/>
    </contour>
  </outline>
</glyph>
<glyph name="rVocalic-oriya" format="2">
  <advance width="576"/>
  <unicode hex="0B0B"/>
  <note>
rvocalicorya
</note>
  <anchor x="440" y="658" name="topright"/>
  <outline>
    <contour>
      <point x="106" y="213" type="curve"/>
      <point x="106" y="213" type="line"/>
      <point x="114" y="242" type="line"/>
      <point x="77" y="288"/>
      <point x="54" y="349"/>
      <point x="54" y="414" type="curve"/>
      <point x="54" y="540"/>
      <point x="139" y="638"/>
      <point x="256" y="641" type="curve"/>
      <point x="370" y="644"/>
      <point x="459" y="551"/>
      <point x="459" y="425" type="curve"/>
      <point x="459" y="385"/>
      <point x="450" y="344"/>
      <point x="434" y="309" type="curve"/>
      <point x="465" y="319" type="line"/>
      <point x="478" y="352"/>
      <point x="485" y="388"/>
      <point x="485" y="425" type="curve"/>
      <point x="485" y="564"/>
      <point x="389" y="666"/>
      <point x="260" y="666" type="curve"/>
      <point x="125" y="666"/>
      <point x="28" y="554"/>
      <point x="28" y="414" type="curve"/>
      <point x="28" y="337"/>
      <point x="58" y="261"/>
    </contour>
    <contour>
      <point x="234" y="-8" type="curve"/>
      <point x="234" y="-8" type="line"/>
      <point x="316" y="-8"/>
      <point x="370" y="63"/>
      <point x="370" y="170" type="curve"/>
      <point x="370" y="276"/>
      <point x="316" y="347"/>
      <point x="234" y="347" type="curve"/>
      <point x="152" y="347"/>
      <point x="98" y="276"/>
      <point x="98" y="170" type="curve"/>
      <point x="98" y="63"/>
      <point x="152" y="-8"/>
    </contour>
    <contour>
      <point x="234" y="17" type="curve"/>
      <point x="234" y="17" type="line"/>
      <point x="167" y="17"/>
      <point x="124" y="78"/>
      <point x="124" y="171" type="curve"/>
      <point x="124" y="263"/>
      <point x="167" y="322"/>
      <point x="234" y="322" type="curve"/>
      <point x="301" y="322"/>
      <point x="344" y="262"/>
      <point x="344" y="170" type="curve"/>
      <point x="344" y="77"/>
      <point x="301" y="17"/>
    </contour>
    <contour>
      <point x="400" y="129" type="line"/>
      <point x="478.178" y="-8.21" type="line"/>
      <point x="498.839" y="5.244" type="line"/>
      <point x="420" y="144" type="line"/>
      <point x="415" y="122" type="line"/>
      <point x="503" y="123"/>
      <point x="548" y="179"/>
      <point x="548" y="234" type="curve"/>
      <point x="548" y="279"/>
      <point x="518" y="322"/>
      <point x="455" y="331" type="curve"/>
      <point x="434" y="309" type="line"/>
      <point x="493" y="309"/>
      <point x="523" y="271"/>
      <point x="523" y="232" type="curve"/>
      <point x="523" y="190"/>
      <point x="488" y="147"/>
      <point x="411" y="146" type="curve"/>
    </contour>
  </outline>
</glyph>
<glyph name="rVocalic-oriya.sans" format="2">
  <advance width="576"/>
  <unicode hex="0B0B"/>
  <note>
rvocalicorya
</note>
  <anchor x="440" y="751" name="topright"/>
  <outline>
    <contour>
      <point x="106" y="306" type="curve"/>
      <point x="106" y="306" type="line"/>
      <point x="114" y="335" type="line"/>
      <point x="77" y="381"/>
      <point x="54" y="442"/>
      <point x="54" y="507" type="curve"/>
      <point x="54" y="633"/>
      <point x="139" y="731"/>
      <point x="256" y="734" type="curve"/>
      <point x="370" y="737"/>
      <point x="459" y="644"/>
      <point x="459" y="518" type="curve"/>
      <point x="459" y="478"/>
      <point x="450" y="437"/>
      <point x="434" y="402" type="curve"/>
      <point x="465" y="412" type="line"/>
      <point x="478" y="445"/>
      <point x="485" y="481"/>
      <point x="485" y="518" type="curve"/>
      <point x="485" y="657"/>
      <point x="389" y="759"/>
      <point x="260" y="759" type="curve"/>
      <point x="125" y="759"/>
      <point x="28" y="647"/>
      <point x="28" y="507" type="curve"/>
      <point x="28" y="430"/>
      <point x="58" y="354"/>
    </contour>
    <contour>
      <point x="234" y="85" type="curve"/>
      <point x="234" y="85" type="line"/>
      <point x="316" y="85"/>
      <point x="370" y="156"/>
      <point x="370" y="263" type="curve"/>
      <point x="370" y="369"/>
      <point x="316" y="440"/>
      <point x="234" y="440" type="curve"/>
      <point x="152" y="440"/>
      <point x="98" y="369"/>
      <point x="98" y="263" type="curve"/>
      <point x="98" y="156"/>
      <point x="152" y="85"/>
    </contour>
    <contour>
      <point x="234" y="110" type="curve"/>
      <point x="234" y="110" type="line"/>
      <point x="167" y="110"/>
      <point x="124" y="171"/>
      <point x="124" y="264" type="curve"/>
      <point x="124" y="356"/>
      <point x="167" y="415"/>
      <point x="234" y="415" type="curve"/>
      <point x="301" y="415"/>
      <point x="344" y="355"/>
      <point x="344" y="263" type="curve"/>
      <point x="344" y="170"/>
      <point x="301" y="110"/>
    </contour>
    <contour>
      <point x="400" y="222" type="line"/>
      <point x="478.178" y="84.79" type="line"/>
      <point x="498.839" y="98.244" type="line"/>
      <point x="420" y="237" type="line"/>
      <point x="415" y="215" type="line"/>
      <point x="503" y="216"/>
      <point x="548" y="272"/>
      <point x="548" y="327" type="curve"/>
      <point x="548" y="372"/>
      <point x="518" y="415"/>
      <point x="455" y="424" type="curve"/>
      <point x="434" y="402" type="line"/>
      <point x="493" y="402"/>
      <point x="523" y="364"/>
      <point x="523" y="325" type="curve"/>
      <point x="523" y="283"/>
      <point x="488" y="240"/>
      <point x="411" y="239" type="curve"/>
    </contour>
  </outline>
</glyph>
<glyph name="lVocalic-oriya" format="2">
  <advance width="439"/>
  <unicode hex="0B0C"/>
  <note>
lvocalicorya
</note>
  <anchor x="209" y="658" name="topright"/>
  <outline>
    <contour>
      <point x="58" y="168" type="curve"/>
      <point x="58" y="168" type="line"/>
      <point x="58" y="271"/>
      <point x="135" y="304"/>
      <point x="179" y="326" type="curve"/>
      <point x="189" y="331" type="line" smooth="yes"/>
      <point x="270" y="367"/>
      <point x="340" y="394"/>
      <point x="340" y="508" type="curve"/>
      <point x="340" y="607"/>
      <point x="292" y="666"/>
      <point x="209" y="666" type="curve"/>
      <point x="121" y="666"/>
      <point x="76" y="599"/>
      <point x="76" y="514" type="curve"/>
      <point x="76" y="484"/>
      <point x="81" y="451"/>
      <point x="93" y="419" type="curve"/>
      <point x="117.239" y="428.003" type="line"/>
      <point x="107.08" y="455.093"/>
      <point x="102" y="484.316"/>
      <point x="102" y="511" type="curve"/>
      <point x="102" y="581"/>
      <point x="136" y="641"/>
      <point x="210" y="641" type="curve"/>
      <point x="277" y="641"/>
      <point x="314" y="591"/>
      <point x="314" y="508" type="curve"/>
      <point x="314" y="411"/>
      <point x="258" y="388"/>
      <point x="176" y="352" type="curve"/>
      <point x="170" y="349" type="line" smooth="yes"/>
      <point x="117" y="323"/>
      <point x="32" y="288"/>
      <point x="32" y="168" type="curve"/>
      <point x="32" y="47"/>
      <point x="125" y="-8"/>
      <point x="218" y="-8" type="curve"/>
      <point x="314" y="-8"/>
      <point x="411" y="50"/>
      <point x="411" y="163" type="curve"/>
      <point x="411" y="238"/>
      <point x="368" y="279"/>
      <point x="310" y="279" type="curve"/>
      <point x="241" y="279"/>
      <point x="208" y="221"/>
      <point x="208" y="153" type="curve"/>
      <point x="208" y="102"/>
      <point x="226" y="45"/>
      <point x="259" y="2" type="curve"/>
      <point x="281" y="15" type="line"/>
      <point x="252" y="50"/>
      <point x="234" y="105"/>
      <point x="234" y="153" type="curve"/>
      <point x="234" y="208"/>
      <point x="258" y="254"/>
      <point x="311" y="254" type="curve"/>
      <point x="357" y="254"/>
      <point x="385" y="218"/>
      <point x="385" y="162" type="curve"/>
      <point x="385" y="66"/>
      <point x="302" y="17"/>
      <point x="219" y="17" type="curve"/>
      <point x="138" y="17"/>
      <point x="58" y="63"/>
    </contour>
  </outline>
</glyph>
<glyph name="lVocalic-oriya.sans" format="2">
  <advance width="439"/>
  <unicode hex="0B0C"/>
  <note>
lvocalicorya
</note>
  <anchor x="209" y="751" name="topright"/>
  <outline>
    <contour>
      <point x="58" y="261" type="curve"/>
      <point x="58" y="261" type="line"/>
      <point x="58" y="364"/>
      <point x="135" y="397"/>
      <point x="179" y="419" type="curve"/>
      <point x="189" y="424" type="line" smooth="yes"/>
      <point x="270" y="460"/>
      <point x="340" y="487"/>
      <point x="340" y="601" type="curve"/>
      <point x="340" y="700"/>
      <point x="292" y="759"/>
      <point x="209" y="759" type="curve"/>
      <point x="121" y="759"/>
      <point x="76" y="692"/>
      <point x="76" y="607" type="curve"/>
      <point x="76" y="577"/>
      <point x="81" y="544"/>
      <point x="93" y="512" type="curve"/>
      <point x="117.239" y="521.003" type="line"/>
      <point x="107.08" y="548.093"/>
      <point x="102" y="577.316"/>
      <point x="102" y="604" type="curve"/>
      <point x="102" y="674"/>
      <point x="136" y="734"/>
      <point x="210" y="734" type="curve"/>
      <point x="277" y="734"/>
      <point x="314" y="684"/>
      <point x="314" y="601" type="curve"/>
      <point x="314" y="504"/>
      <point x="258" y="481"/>
      <point x="176" y="445" type="curve"/>
      <point x="170" y="442" type="line" smooth="yes"/>
      <point x="117" y="416"/>
      <point x="32" y="381"/>
      <point x="32" y="261" type="curve"/>
      <point x="32" y="140"/>
      <point x="125" y="85"/>
      <point x="218" y="85" type="curve"/>
      <point x="314" y="85"/>
      <point x="411" y="143"/>
      <point x="411" y="256" type="curve"/>
      <point x="411" y="331"/>
      <point x="368" y="372"/>
      <point x="310" y="372" type="curve"/>
      <point x="241" y="372"/>
      <point x="208" y="314"/>
      <point x="208" y="246" type="curve"/>
      <point x="208" y="195"/>
      <point x="226" y="138"/>
      <point x="259" y="95" type="curve"/>
      <point x="281" y="108" type="line"/>
      <point x="252" y="143"/>
      <point x="234" y="198"/>
      <point x="234" y="246" type="curve"/>
      <point x="234" y="301"/>
      <point x="258" y="347"/>
      <point x="311" y="347" type="curve"/>
      <point x="357" y="347"/>
      <point x="385" y="311"/>
      <point x="385" y="255" type="curve"/>
      <point x="385" y="159"/>
      <point x="302" y="110"/>
      <point x="219" y="110" type="curve"/>
      <point x="138" y="110"/>
      <point x="58" y="156"/>
    </contour>
  </outline>
</glyph>
<glyph name="e-oriya" format="2">
  <advance width="493"/>
  <unicode hex="0B0F"/>
  <note>
eorya
</note>
  <anchor x="428" y="658" name="topright"/>
  <outline>
    <contour>
      <point x="227" y="414" type="curve"/>
      <point x="227" y="414" type="line"/>
      <point x="240" y="400" type="line"/>
      <point x="240" y="522"/>
      <point x="312" y="634"/>
      <point x="422" y="633" type="curve"/>
      <point x="415" y="645" type="line"/>
      <point x="415" y="9" type="line"/>
      <point x="437" y="12" type="line"/>
      <point x="278.165" y="156.218"/>
      <point x="141.17" y="317.528"/>
      <point x="5.658" y="495.93" type="curve"/>
      <point x="-16.155" y="479.492" type="line"/>
      <point x="111.448" y="312.906"/>
      <point x="248.083" y="150.338"/>
      <point x="412" y="0" type="curve"/>
      <point x="441" y="0" type="line"/>
      <point x="441" y="658" type="line"/>
      <point x="425" y="658" type="line" smooth="yes"/>
      <point x="298" y="658"/>
      <point x="215" y="530"/>
      <point x="215" y="416" type="curve"/>
      <point x="215" y="362"/>
      <point x="235" y="351"/>
      <point x="249" y="351" type="curve"/>
      <point x="269" y="351"/>
      <point x="279" y="370"/>
      <point x="279" y="388" type="curve"/>
      <point x="279" y="407"/>
      <point x="269" y="426"/>
      <point x="250" y="426" type="curve"/>
      <point x="242" y="426"/>
      <point x="234" y="423"/>
    </contour>
  </outline>
</glyph>
<glyph name="e-oriya.sans" format="2">
  <advance width="493"/>
  <unicode hex="0B0F"/>
  <note>
eorya
</note>
  <anchor x="428" y="751" name="topright"/>
  <outline>
    <contour>
      <point x="227" y="507" type="curve"/>
      <point x="227" y="507" type="line"/>
      <point x="240" y="493" type="line"/>
      <point x="240" y="615"/>
      <point x="312" y="727"/>
      <point x="422" y="726" type="curve"/>
      <point x="415" y="738" type="line"/>
      <point x="415" y="102" type="line"/>
      <point x="437" y="105" type="line"/>
      <point x="278.165" y="249.218"/>
      <point x="141.17" y="410.528"/>
      <point x="5.658" y="588.93" type="curve"/>
      <point x="-16.155" y="572.492" type="line"/>
      <point x="111.448" y="405.906"/>
      <point x="248.083" y="243.338"/>
      <point x="412" y="93" type="curve"/>
      <point x="441" y="93" type="line"/>
      <point x="441" y="751" type="line"/>
      <point x="425" y="751" type="line" smooth="yes"/>
      <point x="298" y="751"/>
      <point x="215" y="623"/>
      <point x="215" y="509" type="curve"/>
      <point x="215" y="455"/>
      <point x="235" y="444"/>
      <point x="249" y="444" type="curve"/>
      <point x="269" y="444"/>
      <point x="279" y="463"/>
      <point x="279" y="481" type="curve"/>
      <point x="279" y="500"/>
      <point x="269" y="519"/>
      <point x="250" y="519" type="curve"/>
      <point x="242" y="519"/>
      <point x="234" y="516"/>
    </contour>
  </outline>
</glyph>
<glyph name="ai-oriya.sans" format="2">
  <advance width="623"/>
  <unicode hex="0B10"/>
  <note>
aiorya
</note>
  <outline>
    <contour>
      <point x="493" y="421" type="curve"/>
      <point x="493" y="421" type="line"/>
      <point x="513" y="421"/>
      <point x="545" y="427"/>
      <point x="564" y="441" type="curve"/>
      <point x="564" y="467" type="line"/>
      <point x="545" y="451"/>
      <point x="513" y="445"/>
      <point x="493" y="445" type="curve"/>
      <point x="473" y="445"/>
      <point x="441" y="451"/>
      <point x="422" y="467" type="curve"/>
      <point x="422" y="441" type="line"/>
      <point x="441" y="427"/>
      <point x="473" y="421"/>
    </contour>
    <contour>
      <point x="227" y="507" type="curve"/>
      <point x="227" y="507" type="line"/>
      <point x="240" y="493" type="line"/>
      <point x="240" y="615"/>
      <point x="312" y="727"/>
      <point x="422" y="726" type="curve"/>
      <point x="415" y="738" type="line"/>
      <point x="415" y="102" type="line"/>
      <point x="437" y="105" type="line"/>
      <point x="278.165" y="249.218"/>
      <point x="141.17" y="410.528"/>
      <point x="5.658" y="588.93" type="curve"/>
      <point x="-16.155" y="572.492" type="line"/>
      <point x="111.448" y="405.906"/>
      <point x="248.083" y="243.338"/>
      <point x="412" y="93" type="curve"/>
      <point x="441" y="93" type="line"/>
      <point x="441" y="751" type="line"/>
      <point x="425" y="751" type="line" smooth="yes"/>
      <point x="298" y="751"/>
      <point x="215" y="623"/>
      <point x="215" y="509" type="curve"/>
      <point x="215" y="455"/>
      <point x="235" y="444"/>
      <point x="249" y="444" type="curve"/>
      <point x="269" y="444"/>
      <point x="279" y="463"/>
      <point x="279" y="481" type="curve"/>
      <point x="279" y="500"/>
      <point x="269" y="519"/>
      <point x="250" y="519" type="curve"/>
      <point x="242" y="519"/>
      <point x="234" y="516"/>
    </contour>
    <contour>
      <point x="571" y="786" type="line"/>
      <point x="564" y="768" type="line"/>
      <point x="606" y="803"/>
      <point x="624" y="839"/>
      <point x="624" y="878" type="curve"/>
      <point x="624" y="930"/>
      <point x="588" y="969"/>
      <point x="533" y="969" type="curve"/>
      <point x="464" y="969"/>
      <point x="386" y="909"/>
      <point x="321" y="909" type="curve"/>
      <point x="287.651" y="909"/>
      <point x="260.558" y="924.292"/>
      <point x="237.982" y="966.467" type="curve"/>
      <point x="218.337" y="954.738" type="line"/>
      <point x="244.984" y="901.455"/>
      <point x="281.699" y="884"/>
      <point x="320" y="884" type="curve"/>
      <point x="390" y="884"/>
      <point x="466" y="944"/>
      <point x="529" y="944" type="curve"/>
      <point x="577" y="944"/>
      <point x="598" y="909"/>
      <point x="598" y="874" type="curve"/>
      <point x="598" y="842"/>
      <point x="583" y="812"/>
      <point x="545" y="786" type="curve"/>
      <point x="545" y="93" type="line"/>
      <point x="571" y="93" type="line"/>
    </contour>
  </outline>
</glyph>
<glyph name="o-oriya" format="2">
  <advance width="484"/>
  <unicode hex="0B13"/>
  <note>
oorya
</note>
  <anchor x="401" y="666" name="topright"/>
  <outline>
    <contour>
      <point x="272" y="-8" type="curve"/>
      <point x="272" y="-8" type="line"/>
      <point x="387" y="-8"/>
      <point x="454" y="76"/>
      <point x="454" y="179" type="curve"/>
      <point x="454" y="269"/>
      <point x="404" y="338"/>
      <point x="312" y="338" type="curve"/>
      <point x="267" y="314" type="line"/>
      <point x="282" y="319" type="line" smooth="yes"/>
      <point x="417" y="364"/>
      <point x="446" y="444"/>
      <point x="446" y="516" type="curve"/>
      <point x="446" y="607"/>
      <point x="400" y="666"/>
      <point x="325" y="666" type="curve"/>
      <point x="245" y="666"/>
      <point x="202" y="597"/>
      <point x="202" y="514" type="curve"/>
      <point x="202" y="486"/>
      <point x="207" y="455"/>
      <point x="218" y="426" type="curve"/>
      <point x="242" y="435" type="line"/>
      <point x="233" y="462"/>
      <point x="228" y="489"/>
      <point x="228" y="516" type="curve"/>
      <point x="228" y="584"/>
      <point x="261" y="641"/>
      <point x="326" y="641" type="curve"/>
      <point x="386" y="641"/>
      <point x="420" y="593"/>
      <point x="420" y="518" type="curve"/>
      <point x="420" y="391"/>
      <point x="324" y="360"/>
      <point x="275" y="341" type="curve"/>
      <point x="233" y="325" type="line"/>
      <point x="239" y="298" type="line"/>
      <point x="261" y="308"/>
      <point x="290" y="316"/>
      <point x="314" y="316" type="curve"/>
      <point x="382" y="316"/>
      <point x="428" y="257"/>
      <point x="428" y="178" type="curve"/>
      <point x="428" y="91"/>
      <point x="368" y="17"/>
      <point x="271" y="17" type="curve"/>
      <point x="127" y="17"/>
      <point x="54" y="178"/>
      <point x="54" y="350" type="curve"/>
      <point x="54" y="486"/>
      <point x="100" y="630"/>
      <point x="192" y="706" type="curve"/>
      <point x="176" y="726" type="line"/>
      <point x="78" y="642"/>
      <point x="28" y="490"/>
      <point x="28" y="347" type="curve"/>
      <point x="28" y="163"/>
      <point x="108" y="-8"/>
    </contour>
  </outline>
</glyph>
<glyph name="ka-oriya" format="2">
  <advance width="544"/>
  <unicode hex="0B15"/>
  <note>
kaorya
</note>
  <anchor x="388" y="0" name="bottom"/>
  <anchor x="414" y="0" name="bottom_ra"/>
  <anchor x="414" y="10" name="bottom_ta"/>
  <anchor x="274" y="658" name="top"/>
  <anchor x="471" y="658" name="topright"/>
  <outline>
    <contour>
      <point x="97" y="229" type="curve"/>
      <point x="97" y="229" type="line"/>
      <point x="103" y="265" type="line"/>
      <point x="73" y="306"/>
      <point x="54" y="357"/>
      <point x="54" y="413" type="curve"/>
      <point x="54" y="539"/>
      <point x="148" y="641"/>
      <point x="272" y="641" type="curve"/>
      <point x="399" y="641"/>
      <point x="490" y="541"/>
      <point x="490" y="406" type="curve"/>
      <point x="490" y="350.532"/>
      <point x="475.367" y="291.406"/>
      <point x="444.35" y="247.864" type="curve"/>
      <point x="464.205" y="232.712" type="line"/>
      <point x="496.675" y="278.299"/>
      <point x="516" y="340.809"/>
      <point x="516" y="407" type="curve"/>
      <point x="516" y="561"/>
      <point x="412" y="666"/>
      <point x="274" y="666" type="curve"/>
      <point x="131" y="666"/>
      <point x="28" y="554"/>
      <point x="28" y="414" type="curve"/>
      <point x="28" y="343"/>
      <point x="55" y="275"/>
    </contour>
    <contour>
      <point x="184" y="84" type="curve"/>
      <point x="184" y="84" type="line"/>
      <point x="239" y="84"/>
      <point x="273" y="133"/>
      <point x="273" y="216" type="curve"/>
      <point x="273" y="298"/>
      <point x="239" y="346"/>
      <point x="184" y="346" type="curve"/>
      <point x="128" y="346"/>
      <point x="93" y="297"/>
      <point x="93" y="215" type="curve"/>
      <point x="93" y="133"/>
      <point x="128" y="84"/>
    </contour>
    <contour>
      <point x="185" y="109" type="curve"/>
      <point x="185" y="109" type="line"/>
      <point x="145" y="109"/>
      <point x="119" y="148"/>
      <point x="119" y="214" type="curve"/>
      <point x="119" y="281"/>
      <point x="144" y="321"/>
      <point x="184" y="321" type="curve"/>
      <point x="224" y="321"/>
      <point x="249" y="282"/>
      <point x="249" y="215" type="curve"/>
      <point x="249" y="148"/>
      <point x="224" y="109"/>
    </contour>
    <contour>
      <point x="249" y="161" type="line"/>
      <point x="249" y="0" type="line"/>
      <point x="275" y="0" type="line"/>
      <point x="275" y="226" type="line" smooth="yes"/>
      <point x="275" y="288"/>
      <point x="294" y="321"/>
      <point x="331" y="321" type="curve"/>
      <point x="368" y="321"/>
      <point x="388" y="288"/>
      <point x="388" y="226" type="curve"/>
      <point x="388" y="0" type="line"/>
      <point x="414" y="0" type="line"/>
      <point x="414" y="226" type="line" smooth="yes"/>
      <point x="414" y="305"/>
      <point x="387" y="346"/>
      <point x="334" y="346" type="curve"/>
      <point x="279" y="346"/>
      <point x="251" y="305"/>
      <point x="251" y="226" type="curve"/>
    </contour>
  </outline>
</glyph>
<glyph name="kha-oriya" format="2">
  <advance width="534"/>
  <unicode hex="0B16"/>
  <note>
khaorya
</note>
  <anchor x="456" y="0" name="bottom"/>
  <anchor x="482" y="0" name="bottom_ra"/>
  <anchor x="281" y="658" name="top"/>
  <anchor x="469" y="658" name="topright"/>
  <outline>
    <contour>
      <point x="113" y="208" type="curve"/>
      <point x="113" y="208" type="line"/>
      <point x="123" y="234" type="line"/>
      <point x="76" y="277"/>
      <point x="54" y="338"/>
      <point x="54" y="406" type="curve"/>
      <point x="54" y="542"/>
      <point x="141" y="642"/>
      <point x="279" y="642" type="curve"/>
      <point x="289" y="642"/>
      <point x="299" y="642"/>
      <point x="306" y="642" type="curve"/>
      <point x="299" y="666" type="line"/>
      <point x="289" y="666"/>
      <point x="291" y="666"/>
      <point x="281" y="666" type="curve"/>
      <point x="122" y="666"/>
      <point x="28" y="552"/>
      <point x="28" y="410" type="curve"/>
      <point x="28" y="327"/>
      <point x="60" y="256"/>
    </contour>
    <contour>
      <point x="234" y="-8" type="curve"/>
      <point x="234" y="-8" type="line"/>
      <point x="316" y="-8"/>
      <point x="370" y="63"/>
      <point x="370" y="170" type="curve"/>
      <point x="370" y="276"/>
      <point x="316" y="347"/>
      <point x="234" y="347" type="curve"/>
      <point x="152" y="347"/>
      <point x="98" y="276"/>
      <point x="98" y="170" type="curve"/>
      <point x="98" y="63"/>
      <point x="152" y="-8"/>
    </contour>
    <contour>
      <point x="234" y="17" type="curve"/>
      <point x="234" y="17" type="line"/>
      <point x="167" y="17"/>
      <point x="124" y="78"/>
      <point x="124" y="171" type="curve"/>
      <point x="124" y="263"/>
      <point x="167" y="322"/>
      <point x="234" y="322" type="curve"/>
      <point x="301" y="322"/>
      <point x="344" y="262"/>
      <point x="344" y="170" type="curve"/>
      <point x="344" y="77"/>
      <point x="301" y="17"/>
    </contour>
    <contour>
      <point x="456" y="658" type="line"/>
      <point x="456" y="0" type="line"/>
      <point x="482" y="0" type="line"/>
      <point x="482" y="658" type="line"/>
    </contour>
    <contour>
      <point x="372" y="382" type="curve"/>
      <point x="372" y="382" type="line"/>
      <point x="404" y="382"/>
      <point x="439" y="393"/>
      <point x="471" y="415" type="curve"/>
      <point x="469" y="444" type="line"/>
      <point x="439" y="420"/>
      <point x="405" y="407"/>
      <point x="374" y="407" type="curve"/>
      <point x="302" y="407"/>
      <point x="273" y="462"/>
      <point x="273" y="523" type="curve"/>
      <point x="273" y="566"/>
      <point x="287" y="612"/>
      <point x="311" y="645" type="curve"/>
      <point x="299" y="666" type="line"/>
      <point x="266" y="628"/>
      <point x="247" y="572"/>
      <point x="247" y="520" type="curve"/>
      <point x="247" y="447"/>
      <point x="284" y="382"/>
    </contour>
  </outline>
</glyph>
<glyph name="ga-oriya" format="2">
  <advance width="534"/>
  <unicode hex="0B17"/>
  <note>
gaorya
</note>
  <anchor x="456" y="0" name="bottom"/>
  <anchor x="482" y="0" name="bottom_ra"/>
  <anchor x="253" y="658" name="top"/>
  <anchor x="469" y="658" name="topright"/>
  <outline>
    <contour>
      <point x="234" y="-8" type="curve"/>
      <point x="234" y="-8" type="line"/>
      <point x="316" y="-8"/>
      <point x="370" y="63"/>
      <point x="370" y="170" type="curve"/>
      <point x="370" y="276"/>
      <point x="316" y="347"/>
      <point x="234" y="347" type="curve"/>
      <point x="152" y="347"/>
      <point x="98" y="276"/>
      <point x="98" y="170" type="curve"/>
      <point x="98" y="63"/>
      <point x="152" y="-8"/>
    </contour>
    <contour>
      <point x="234" y="17" type="curve"/>
      <point x="234" y="17" type="line"/>
      <point x="167" y="17"/>
      <point x="124" y="78"/>
      <point x="124" y="171" type="curve"/>
      <point x="124" y="263"/>
      <point x="167" y="322"/>
      <point x="234" y="322" type="curve"/>
      <point x="301" y="322"/>
      <point x="344" y="262"/>
      <point x="344" y="170" type="curve"/>
      <point x="344" y="77"/>
      <point x="301" y="17"/>
    </contour>
    <contour>
      <point x="456" y="480" type="line"/>
      <point x="456" y="0" type="line"/>
      <point x="482" y="0" type="line"/>
      <point x="482" y="658" type="line"/>
      <point x="456" y="658" type="line"/>
      <point x="456" y="495" type="line"/>
    </contour>
    <contour>
      <point x="254" y="641" type="curve"/>
      <point x="254" y="641" type="line"/>
      <point x="357" y="641"/>
      <point x="460" y="561"/>
      <point x="460" y="398" type="curve"/>
      <point x="482" y="398" type="line"/>
      <point x="482" y="577"/>
      <point x="366" y="666"/>
      <point x="252" y="666" type="curve"/>
      <point x="139" y="666"/>
      <point x="28" y="580"/>
      <point x="28" y="411" type="curve"/>
      <point x="28" y="334"/>
      <point x="53" y="266"/>
      <point x="106" y="214" type="curve"/>
      <point x="116" y="240" type="line"/>
      <point x="74" y="285"/>
      <point x="54" y="343"/>
      <point x="54" y="410" type="curve"/>
      <point x="54" y="564"/>
      <point x="154" y="641"/>
    </contour>
  </outline>
</glyph>
<glyph name="ga-oriya.sans" format="2">
  <advance width="534"/>
  <unicode hex="0B17"/>
  <note>
gaorya
</note>
  <anchor x="456" y="93" name="bottom"/>
  <anchor x="482" y="93" name="bottom_ra"/>
  <anchor x="253" y="751" name="top"/>
  <anchor x="469" y="751" name="topright"/>
  <outline>
    <contour>
      <point x="234" y="85" type="curve"/>
      <point x="234" y="85" type="line"/>
      <point x="316" y="85"/>
      <point x="370" y="156"/>
      <point x="370" y="263" type="curve"/>
      <point x="370" y="369"/>
      <point x="316" y="440"/>
      <point x="234" y="440" type="curve"/>
      <point x="152" y="440"/>
      <point x="98" y="369"/>
      <point x="98" y="263" type="curve"/>
      <point x="98" y="156"/>
      <point x="152" y="85"/>
    </contour>
    <contour>
      <point x="234" y="110" type="curve"/>
      <point x="234" y="110" type="line"/>
      <point x="167" y="110"/>
      <point x="124" y="171"/>
      <point x="124" y="264" type="curve"/>
      <point x="124" y="356"/>
      <point x="167" y="415"/>
      <point x="234" y="415" type="curve"/>
      <point x="301" y="415"/>
      <point x="344" y="355"/>
      <point x="344" y="263" type="curve"/>
      <point x="344" y="170"/>
      <point x="301" y="110"/>
    </contour>
    <contour>
      <point x="456" y="573" type="line"/>
      <point x="456" y="93" type="line"/>
      <point x="482" y="93" type="line"/>
      <point x="482" y="751" type="line"/>
      <point x="456" y="751" type="line"/>
      <point x="456" y="588" type="line"/>
    </contour>
    <contour>
      <point x="254" y="734" type="curve"/>
      <point x="254" y="734" type="line"/>
      <point x="357" y="734"/>
      <point x="460" y="654"/>
      <point x="460" y="491" type="curve"/>
      <point x="482" y="491" type="line"/>
      <point x="482" y="670"/>
      <point x="366" y="759"/>
      <point x="252" y="759" type="curve"/>
      <point x="139" y="759"/>
      <point x="28" y="673"/>
      <point x="28" y="504" type="curve"/>
      <point x="28" y="427"/>
      <point x="53" y="359"/>
      <point x="106" y="307" type="curve"/>
      <point x="116" y="333" type="line"/>
      <point x="74" y="378"/>
      <point x="54" y="436"/>
      <point x="54" y="503" type="curve"/>
      <point x="54" y="657"/>
      <point x="154" y="734"/>
    </contour>
  </outline>
</glyph>
<glyph name="gha-oriya" format="2">
  <advance width="534"/>
  <unicode hex="0B18"/>
  <note>
ghaorya
</note>
  <anchor x="456" y="0" name="bottom"/>
  <anchor x="482" y="0" name="bottom_ra"/>
  <anchor x="254" y="658" name="top"/>
  <anchor x="469" y="658" name="topright"/>
  <outline>
    <contour>
      <point x="106" y="214" type="curve"/>
      <point x="106" y="214" type="line"/>
      <point x="116" y="240" type="line"/>
      <point x="74" y="286"/>
      <point x="54" y="345"/>
      <point x="54" y="413" type="curve"/>
      <point x="54" y="564"/>
      <point x="154" y="641"/>
      <point x="255" y="641" type="curve"/>
      <point x="357" y="641"/>
      <point x="460" y="562"/>
      <point x="460" y="398" type="curve"/>
      <point x="482" y="398" type="line"/>
      <point x="482" y="579"/>
      <point x="368" y="666"/>
      <point x="254" y="666" type="curve"/>
      <point x="139" y="666"/>
      <point x="28" y="578"/>
      <point x="28" y="414" type="curve"/>
      <point x="28" y="336"/>
      <point x="53" y="265"/>
    </contour>
    <contour>
      <point x="207" y="-8" type="curve"/>
      <point x="207" y="-8" type="line"/>
      <point x="256" y="-8"/>
      <point x="295" y="28"/>
      <point x="306" y="81" type="curve"/>
      <point x="302" y="81" type="line"/>
      <point x="313" y="27"/>
      <point x="342" y="-8"/>
      <point x="387" y="-8" type="curve"/>
      <point x="446" y="-8"/>
      <point x="474" y="46"/>
      <point x="474" y="124" type="curve"/>
      <point x="456" y="124" type="line"/>
      <point x="456" y="60"/>
      <point x="431" y="17"/>
      <point x="390" y="17" type="curve"/>
      <point x="342" y="17"/>
      <point x="318" y="71"/>
      <point x="318" y="150" type="curve"/>
      <point x="318" y="227" type="line"/>
      <point x="292" y="227" type="line"/>
      <point x="292" y="150" type="line" smooth="yes"/>
      <point x="292" y="71"/>
      <point x="260" y="17"/>
      <point x="209" y="17" type="curve"/>
      <point x="158" y="17"/>
      <point x="124" y="69"/>
      <point x="124" y="151" type="curve"/>
      <point x="124" y="247"/>
      <point x="171" y="322"/>
      <point x="237" y="359" type="curve"/>
      <point x="225" y="381" type="line"/>
      <point x="150" y="342"/>
      <point x="98" y="260"/>
      <point x="98" y="153" type="curve"/>
      <point x="98" y="54"/>
      <point x="142" y="-8"/>
    </contour>
    <contour>
      <point x="456" y="58" type="line"/>
      <point x="456" y="0" type="line"/>
      <point x="482" y="0" type="line"/>
      <point x="482" y="658" type="line"/>
      <point x="456" y="658" type="line"/>
      <point x="456" y="495" type="line"/>
      <point x="456" y="480" type="line"/>
      <point x="456" y="74" type="line"/>
    </contour>
  </outline>
</glyph>
<glyph name="gha-oriya.sans" format="2">
  <advance width="534"/>
  <unicode hex="0B18"/>
  <note>
ghaorya
</note>
  <anchor x="456" y="93" name="bottom"/>
  <anchor x="482" y="93" name="bottom_ra"/>
  <anchor x="254" y="751" name="top"/>
  <anchor x="469" y="751" name="topright"/>
  <outline>
    <contour>
      <point x="106" y="307" type="curve"/>
      <point x="106" y="307" type="line"/>
      <point x="116" y="333" type="line"/>
      <point x="74" y="379"/>
      <point x="54" y="438"/>
      <point x="54" y="506" type="curve"/>
      <point x="54" y="657"/>
      <point x="154" y="734"/>
      <point x="255" y="734" type="curve"/>
      <point x="357" y="734"/>
      <point x="460" y="655"/>
      <point x="460" y="491" type="curve"/>
      <point x="482" y="491" type="line"/>
      <point x="482" y="672"/>
      <point x="368" y="759"/>
      <point x="254" y="759" type="curve"/>
      <point x="139" y="759"/>
      <point x="28" y="671"/>
      <point x="28" y="507" type="curve"/>
      <point x="28" y="429"/>
      <point x="53" y="358"/>
    </contour>
    <contour>
      <point x="207" y="85" type="curve"/>
      <point x="207" y="85" type="line"/>
      <point x="256" y="85"/>
      <point x="295" y="121"/>
      <point x="306" y="174" type="curve"/>
      <point x="302" y="174" type="line"/>
      <point x="313" y="120"/>
      <point x="342" y="85"/>
      <point x="387" y="85" type="curve"/>
      <point x="446" y="85"/>
      <point x="474" y="139"/>
      <point x="474" y="217" type="curve"/>
      <point x="456" y="217" type="line"/>
      <point x="456" y="153"/>
      <point x="431" y="110"/>
      <point x="390" y="110" type="curve"/>
      <point x="342" y="110"/>
      <point x="318" y="164"/>
      <point x="318" y="243" type="curve"/>
      <point x="318" y="320" type="line"/>
      <point x="292" y="320" type="line"/>
      <point x="292" y="243" type="line" smooth="yes"/>
      <point x="292" y="164"/>
      <point x="260" y="110"/>
      <point x="209" y="110" type="curve"/>
      <point x="158" y="110"/>
      <point x="124" y="162"/>
      <point x="124" y="244" type="curve"/>
      <point x="124" y="340"/>
      <point x="171" y="415"/>
      <point x="237" y="452" type="curve"/>
      <point x="225" y="474" type="line"/>
      <point x="150" y="435"/>
      <point x="98" y="353"/>
      <point x="98" y="246" type="curve"/>
      <point x="98" y="147"/>
      <point x="142" y="85"/>
    </contour>
    <contour>
      <point x="456" y="151" type="line"/>
      <point x="456" y="93" type="line"/>
      <point x="482" y="93" type="line"/>
      <point x="482" y="751" type="line"/>
      <point x="456" y="751" type="line"/>
      <point x="456" y="588" type="line"/>
      <point x="456" y="573" type="line"/>
      <point x="456" y="167" type="line"/>
    </contour>
  </outline>
</glyph>
<glyph name="nga-oriya" format="2">
  <advance width="530"/>
  <unicode hex="0B19"/>
  <note>
ngaorya
</note>
  <anchor x="246" y="0" name="bottom"/>
  <anchor x="467" y="0" name="bottom_ra"/>
  <anchor x="256" y="658" name="top"/>
  <anchor x="417" y="658" name="topright"/>
  <outline>
    <contour>
      <point x="116" y="207" type="curve"/>
      <point x="116" y="207" type="line"/>
      <point x="124" y="234" type="line"/>
      <point x="84" y="278"/>
      <point x="54" y="343"/>
      <point x="54" y="410" type="curve"/>
      <point x="54" y="539"/>
      <point x="139" y="641"/>
      <point x="256" y="641" type="curve"/>
      <point x="299" y="641"/>
      <point x="338" y="628"/>
      <point x="369" y="605" type="curve"/>
      <point x="385" y="625" type="line"/>
      <point x="349" y="651"/>
      <point x="305" y="666"/>
      <point x="256" y="666" type="curve"/>
      <point x="120" y="666"/>
      <point x="28" y="552"/>
      <point x="28" y="413" type="curve"/>
      <point x="28" y="331"/>
      <point x="64" y="252"/>
    </contour>
    <contour>
      <point x="236" y="213" type="line"/>
      <point x="254" y="198" type="line"/>
      <point x="368" y="345" type="line"/>
      <point x="350" y="360" type="line"/>
    </contour>
    <contour>
      <point x="438" y="408" type="curve"/>
      <point x="438" y="408" type="line"/>
      <point x="495" y="408"/>
      <point x="524" y="471"/>
      <point x="524" y="533" type="curve"/>
      <point x="524" y="596"/>
      <point x="494" y="658"/>
      <point x="437" y="658" type="curve"/>
      <point x="385" y="658"/>
      <point x="348" y="607"/>
      <point x="348" y="532" type="curve"/>
      <point x="348" y="450"/>
      <point x="391" y="408"/>
    </contour>
    <contour>
      <point x="437" y="433" type="curve"/>
      <point x="437" y="433" type="line"/>
      <point x="404" y="433"/>
      <point x="374" y="466"/>
      <point x="374" y="532" type="curve"/>
      <point x="374" y="598"/>
      <point x="404" y="633"/>
      <point x="438" y="633" type="curve"/>
      <point x="478" y="633"/>
      <point x="499" y="583"/>
      <point x="499" y="533" type="curve"/>
      <point x="499" y="483"/>
      <point x="478" y="433"/>
    </contour>
    <contour>
      <point x="246" y="-8" type="curve"/>
      <point x="246" y="-8" type="line"/>
      <point x="334" y="-8"/>
      <point x="381" y="59"/>
      <point x="381" y="137" type="curve"/>
      <point x="381" y="190"/>
      <point x="359" y="247"/>
      <point x="313" y="290" type="curve"/>
      <point x="298" y="271" type="line"/>
      <point x="336" y="236"/>
      <point x="355" y="186"/>
      <point x="355" y="139" type="curve"/>
      <point x="355" y="74"/>
      <point x="318" y="17"/>
      <point x="246" y="17" type="curve"/>
      <point x="172" y="17"/>
      <point x="131" y="77"/>
      <point x="131" y="164" type="curve"/>
      <point x="131" y="236"/>
      <point x="161" y="295"/>
      <point x="215" y="357" type="curve"/>
      <point x="197" y="373" type="line"/>
      <point x="137" y="306"/>
      <point x="105" y="234"/>
      <point x="105" y="164" type="curve"/>
      <point x="105" y="61"/>
      <point x="156" y="-8"/>
    </contour>
  </outline>
</glyph>
<glyph name="ca-oriya.sans" format="2">
  <advance width="518"/>
  <unicode hex="0B1A"/>
  <note>
caorya
</note>
  <anchor x="234" y="93" name="bottom"/>
  <anchor x="440" y="93" name="bottom_ra"/>
  <anchor x="259" y="751" name="top"/>
  <anchor x="445" y="751" name="topright"/>
  <outline>
    <contour>
      <point x="113" y="300" type="curve"/>
      <point x="113" y="300" type="line"/>
      <point x="121" y="327" type="line"/>
      <point x="81" y="371"/>
      <point x="54" y="435"/>
      <point x="54" y="505" type="curve"/>
      <point x="54" y="633"/>
      <point x="141" y="734"/>
      <point x="261" y="734" type="curve"/>
      <point x="378" y="734"/>
      <point x="464" y="635"/>
      <point x="464" y="500" type="curve"/>
      <point x="464" y="444.466"/>
      <point x="449.332" y="386.183"/>
      <point x="418.24" y="340.948" type="curve"/>
      <point x="438.205" y="325.712" type="line"/>
      <point x="470.675" y="371.301"/>
      <point x="490" y="433.85"/>
      <point x="490" y="501" type="curve"/>
      <point x="490" y="654"/>
      <point x="390" y="759"/>
      <point x="259" y="759" type="curve"/>
      <point x="125" y="759"/>
      <point x="28" y="648"/>
      <point x="28" y="507" type="curve"/>
      <point x="28" y="423"/>
      <point x="62" y="345"/>
    </contour>
    <contour>
      <point x="234" y="85" type="curve"/>
      <point x="234" y="85" type="line"/>
      <point x="316" y="85"/>
      <point x="370" y="156"/>
      <point x="370" y="263" type="curve"/>
      <point x="370" y="369"/>
      <point x="316" y="440"/>
      <point x="234" y="440" type="curve"/>
      <point x="152" y="440"/>
      <point x="98" y="369"/>
      <point x="98" y="263" type="curve"/>
      <point x="98" y="156"/>
      <point x="152" y="85"/>
    </contour>
    <contour>
      <point x="234" y="110" type="curve"/>
      <point x="234" y="110" type="line"/>
      <point x="167" y="110"/>
      <point x="124" y="171"/>
      <point x="124" y="264" type="curve"/>
      <point x="124" y="356"/>
      <point x="167" y="415"/>
      <point x="234" y="415" type="curve"/>
      <point x="301" y="415"/>
      <point x="344" y="355"/>
      <point x="344" y="263" type="curve"/>
      <point x="344" y="170"/>
      <point x="301" y="110"/>
    </contour>
  </outline>
</glyph>
<glyph name="cha-oriya" format="2">
  <advance width="515"/>
  <unicode hex="0B1B"/>
  <note>
chaorya
</note>
  <anchor x="367" y="0" name="bottom"/>
  <anchor x="404" y="0" name="bottom_ra"/>
  <anchor x="258" y="658" name="top"/>
  <anchor x="442" y="658" name="topright"/>
  <outline>
    <contour>
      <point x="127" y="277" type="curve"/>
      <point x="127" y="277" type="line"/>
      <point x="125" y="308" type="line"/>
      <point x="83" y="332"/>
      <point x="54" y="394"/>
      <point x="54" y="453" type="curve"/>
      <point x="54" y="560"/>
      <point x="140" y="641"/>
      <point x="257" y="641" type="curve"/>
      <point x="374" y="641"/>
      <point x="461" y="560"/>
      <point x="461" y="452" type="curve"/>
      <point x="461" y="414.404"/>
      <point x="450.778" y="374.02"/>
      <point x="435.708" y="348.765" type="curve"/>
      <point x="460.402" y="336.692" type="line"/>
      <point x="475.696" y="366.763"/>
      <point x="487" y="412.265"/>
      <point x="487" y="454" type="curve"/>
      <point x="487" y="575"/>
      <point x="391" y="666"/>
      <point x="258" y="666" type="curve"/>
      <point x="123" y="666"/>
      <point x="28" y="573"/>
      <point x="28" y="456" type="curve"/>
      <point x="28" y="379"/>
      <point x="69" y="306"/>
    </contour>
    <contour>
      <point x="126" y="17" type="curve"/>
      <point x="126" y="17" type="line"/>
      <point x="88" y="17"/>
      <point x="66" y="51"/>
      <point x="66" y="94" type="curve"/>
      <point x="66" y="139"/>
      <point x="90" y="168"/>
      <point x="125" y="168" type="curve"/>
      <point x="165" y="168"/>
      <point x="201" y="130"/>
      <point x="235" y="89" type="curve"/>
      <point x="197" y="43"/>
      <point x="159" y="17"/>
    </contour>
    <contour>
      <point x="125" y="-8" type="curve"/>
      <point x="125" y="-8" type="line"/>
      <point x="165" y="-8"/>
      <point x="207" y="18"/>
      <point x="252" y="73" type="curve"/>
      <point x="297" y="15"/>
      <point x="344" y="-8"/>
      <point x="381" y="-8" type="curve"/>
      <point x="430" y="-8"/>
      <point x="464" y="32"/>
      <point x="464" y="94" type="curve"/>
      <point x="464" y="153"/>
      <point x="432" y="193"/>
      <point x="377" y="193" type="curve"/>
      <point x="342" y="193"/>
      <point x="309" y="177"/>
      <point x="250" y="107" type="curve"/>
      <point x="164" y="204"/>
      <point x="116" y="223"/>
      <point x="36" y="246" type="curve"/>
      <point x="28" y="222" type="line"/>
      <point x="64" y="212"/>
      <point x="102" y="200"/>
      <point x="132" y="186" type="curve"/>
      <point x="122" y="193" type="line"/>
      <point x="73" y="193"/>
      <point x="40" y="154"/>
      <point x="40" y="94" type="curve"/>
      <point x="40" y="34"/>
      <point x="73" y="-8"/>
    </contour>
    <contour>
      <point x="379" y="17" type="curve"/>
      <point x="379" y="17" type="line"/>
      <point x="350" y="17"/>
      <point x="307" y="38"/>
      <point x="265" y="89" type="curve"/>
      <point x="322" y="151"/>
      <point x="340" y="168"/>
      <point x="372" y="168" type="curve"/>
      <point x="415" y="168"/>
      <point x="438" y="138"/>
      <point x="438" y="93" type="curve"/>
      <point x="438" y="48"/>
      <point x="414" y="17"/>
    </contour>
    <contour>
      <point x="250" y="150" type="curve"/>
      <point x="250" y="150" type="line"/>
      <point x="183" y="150"/>
      <point x="135" y="209"/>
      <point x="135" y="294" type="curve"/>
      <point x="135" y="379"/>
      <point x="183" y="438"/>
      <point x="250" y="438" type="curve"/>
      <point x="317" y="438"/>
      <point x="365" y="379"/>
      <point x="365" y="294" type="curve"/>
      <point x="365" y="209"/>
      <point x="317" y="150"/>
    </contour>
    <contour>
      <point x="250" y="127" type="curve"/>
      <point x="250" y="127" type="line"/>
      <point x="329" y="127"/>
      <point x="390" y="196"/>
      <point x="390" y="295" type="curve"/>
      <point x="390" y="391"/>
      <point x="334" y="462"/>
      <point x="250" y="462" type="curve"/>
      <point x="166" y="462"/>
      <point x="110" y="391"/>
      <point x="110" y="295" type="curve"/>
      <point x="110" y="196"/>
      <point x="171" y="127"/>
    </contour>
  </outline>
</glyph>
<glyph name="cha-oriya.sans" format="2">
  <advance width="515"/>
  <unicode hex="0B1B"/>
  <note>
chaorya
</note>
  <anchor x="367" y="93" name="bottom"/>
  <anchor x="404" y="93" name="bottom_ra"/>
  <anchor x="258" y="751" name="top"/>
  <anchor x="442" y="751" name="topright"/>
  <outline>
    <contour>
      <point x="127" y="370" type="curve"/>
      <point x="127" y="370" type="line"/>
      <point x="125" y="401" type="line"/>
      <point x="83" y="425"/>
      <point x="54" y="487"/>
      <point x="54" y="546" type="curve"/>
      <point x="54" y="653"/>
      <point x="140" y="734"/>
      <point x="257" y="734" type="curve"/>
      <point x="374" y="734"/>
      <point x="461" y="653"/>
      <point x="461" y="545" type="curve"/>
      <point x="461" y="507.404"/>
      <point x="450.778" y="467.02"/>
      <point x="435.708" y="441.765" type="curve"/>
      <point x="460.402" y="429.692" type="line"/>
      <point x="475.696" y="459.763"/>
      <point x="487" y="505.265"/>
      <point x="487" y="547" type="curve"/>
      <point x="487" y="668"/>
      <point x="391" y="759"/>
      <point x="258" y="759" type="curve"/>
      <point x="123" y="759"/>
      <point x="28" y="666"/>
      <point x="28" y="549" type="curve"/>
      <point x="28" y="472"/>
      <point x="69" y="399"/>
    </contour>
    <contour>
      <point x="126" y="110" type="curve"/>
      <point x="126" y="110" type="line"/>
      <point x="88" y="110"/>
      <point x="66" y="144"/>
      <point x="66" y="187" type="curve"/>
      <point x="66" y="232"/>
      <point x="90" y="261"/>
      <point x="125" y="261" type="curve"/>
      <point x="165" y="261"/>
      <point x="201" y="223"/>
      <point x="235" y="182" type="curve"/>
      <point x="197" y="136"/>
      <point x="159" y="110"/>
    </contour>
    <contour>
      <point x="125" y="85" type="curve"/>
      <point x="125" y="85" type="line"/>
      <point x="165" y="85"/>
      <point x="207" y="111"/>
      <point x="252" y="166" type="curve"/>
      <point x="297" y="108"/>
      <point x="344" y="85"/>
      <point x="381" y="85" type="curve"/>
      <point x="430" y="85"/>
      <point x="464" y="125"/>
      <point x="464" y="187" type="curve"/>
      <point x="464" y="246"/>
      <point x="432" y="286"/>
      <point x="377" y="286" type="curve"/>
      <point x="342" y="286"/>
      <point x="309" y="270"/>
      <point x="250" y="200" type="curve"/>
      <point x="164" y="297"/>
      <point x="116" y="316"/>
      <point x="36" y="339" type="curve"/>
      <point x="28" y="315" type="line"/>
      <point x="64" y="305"/>
      <point x="102" y="293"/>
      <point x="132" y="279" type="curve"/>
      <point x="122" y="286" type="line"/>
      <point x="73" y="286"/>
      <point x="40" y="247"/>
      <point x="40" y="187" type="curve"/>
      <point x="40" y="127"/>
      <point x="73" y="85"/>
    </contour>
    <contour>
      <point x="379" y="110" type="curve"/>
      <point x="379" y="110" type="line"/>
      <point x="350" y="110"/>
      <point x="307" y="131"/>
      <point x="265" y="182" type="curve"/>
      <point x="322" y="244"/>
      <point x="340" y="261"/>
      <point x="372" y="261" type="curve"/>
      <point x="415" y="261"/>
      <point x="438" y="231"/>
      <point x="438" y="186" type="curve"/>
      <point x="438" y="141"/>
      <point x="414" y="110"/>
    </contour>
    <contour>
      <point x="250" y="243" type="curve"/>
      <point x="250" y="243" type="line"/>
      <point x="183" y="243"/>
      <point x="135" y="302"/>
      <point x="135" y="387" type="curve"/>
      <point x="135" y="472"/>
      <point x="183" y="531"/>
      <point x="250" y="531" type="curve"/>
      <point x="317" y="531"/>
      <point x="365" y="472"/>
      <point x="365" y="387" type="curve"/>
      <point x="365" y="302"/>
      <point x="317" y="243"/>
    </contour>
    <contour>
      <point x="250" y="220" type="curve"/>
      <point x="250" y="220" type="line"/>
      <point x="329" y="220"/>
      <point x="390" y="289"/>
      <point x="390" y="388" type="curve"/>
      <point x="390" y="484"/>
      <point x="334" y="555"/>
      <point x="250" y="555" type="curve"/>
      <point x="166" y="555"/>
      <point x="110" y="484"/>
      <point x="110" y="388" type="curve"/>
      <point x="110" y="289"/>
      <point x="171" y="220"/>
    </contour>
  </outline>
</glyph>
<glyph name="ja-oriya" format="2">
  <advance width="544"/>
  <unicode hex="0B1C"/>
  <note>
jaorya
</note>
  <anchor x="388" y="0" name="bottom"/>
  <anchor x="414" y="0" name="bottom_ra"/>
  <anchor x="274" y="658" name="top"/>
  <anchor x="471" y="658" name="topright"/>
  <outline>
    <contour>
      <point x="223" y="-8" type="curve"/>
      <point x="223" y="-8" type="line"/>
      <point x="246.715" y="-8"/>
      <point x="273.104" y="-2.65"/>
      <point x="301.075" y="9.143" type="curve"/>
      <point x="267.726" y="80.695"/>
      <point x="263" y="145.054"/>
      <point x="263" y="182" type="curve"/>
      <point x="263" y="273"/>
      <point x="286" y="322"/>
      <point x="329" y="322" type="curve"/>
      <point x="368" y="322"/>
      <point x="388" y="292"/>
      <point x="388" y="238" type="curve"/>
      <point x="388" y="0" type="line"/>
      <point x="414" y="0" type="line"/>
      <point x="414" y="238" type="line" smooth="yes"/>
      <point x="414" y="304"/>
      <point x="390" y="347"/>
      <point x="330" y="347" type="curve"/>
      <point x="265" y="347"/>
      <point x="237" y="278"/>
      <point x="237" y="185" type="curve"/>
      <point x="237" y="137"/>
      <point x="247" y="68"/>
      <point x="274" y="10" type="curve"/>
      <point x="287" y="30" type="line"/>
      <point x="265" y="21"/>
      <point x="245" y="17"/>
      <point x="227" y="17" type="curve"/>
      <point x="161" y="17"/>
      <point x="118" y="69"/>
      <point x="118" y="155" type="curve"/>
      <point x="118" y="224.633"/>
      <point x="146.06" y="294.265"/>
      <point x="201.274" y="355.756" type="curve"/>
      <point x="182.718" y="372.251" type="line"/>
      <point x="127.704" y="311.264"/>
      <point x="92" y="236.3"/>
      <point x="92" y="151" type="curve"/>
      <point x="92" y="51"/>
      <point x="146" y="-8"/>
    </contour>
    <contour>
      <point x="106" y="219" type="curve"/>
      <point x="106" y="219" type="line"/>
      <point x="113" y="252" type="line"/>
      <point x="77" y="297"/>
      <point x="54" y="352"/>
      <point x="54" y="413" type="curve"/>
      <point x="54" y="539"/>
      <point x="148" y="641"/>
      <point x="272" y="641" type="curve"/>
      <point x="399" y="641"/>
      <point x="490" y="541"/>
      <point x="490" y="406" type="curve"/>
      <point x="490" y="350.532"/>
      <point x="475.367" y="291.406"/>
      <point x="444.35" y="247.864" type="curve"/>
      <point x="464.205" y="232.712" type="line"/>
      <point x="496.675" y="278.299"/>
      <point x="516" y="340.809"/>
      <point x="516" y="407" type="curve"/>
      <point x="516" y="561"/>
      <point x="412" y="666"/>
      <point x="274" y="666" type="curve"/>
      <point x="131" y="666"/>
      <point x="28" y="554"/>
      <point x="28" y="414" type="curve"/>
      <point x="28" y="339"/>
      <point x="58" y="268"/>
    </contour>
  </outline>
</glyph>
<glyph name="ja-oriya.sans" format="2">
  <advance width="544"/>
  <unicode hex="0B1C"/>
  <note>
jaorya
</note>
  <anchor x="388" y="93" name="bottom"/>
  <anchor x="414" y="93" name="bottom_ra"/>
  <anchor x="274" y="751" name="top"/>
  <anchor x="471" y="751" name="topright"/>
  <outline>
    <contour>
      <point x="223" y="85" type="curve"/>
      <point x="223" y="85" type="line"/>
      <point x="246.715" y="85"/>
      <point x="273.104" y="90.35"/>
      <point x="301.075" y="102.143" type="curve"/>
      <point x="267.726" y="173.695"/>
      <point x="263" y="238.054"/>
      <point x="263" y="275" type="curve"/>
      <point x="263" y="366"/>
      <point x="286" y="415"/>
      <point x="329" y="415" type="curve"/>
      <point x="368" y="415"/>
      <point x="388" y="385"/>
      <point x="388" y="331" type="curve"/>
      <point x="388" y="93" type="line"/>
      <point x="414" y="93" type="line"/>
      <point x="414" y="331" type="line" smooth="yes"/>
      <point x="414" y="397"/>
      <point x="390" y="440"/>
      <point x="330" y="440" type="curve"/>
      <point x="265" y="440"/>
      <point x="237" y="371"/>
      <point x="237" y="278" type="curve"/>
      <point x="237" y="230"/>
      <point x="247" y="161"/>
      <point x="274" y="103" type="curve"/>
      <point x="287" y="123" type="line"/>
      <point x="265" y="114"/>
      <point x="245" y="110"/>
      <point x="227" y="110" type="curve"/>
      <point x="161" y="110"/>
      <point x="118" y="162"/>
      <point x="118" y="248" type="curve"/>
      <point x="118" y="317.633"/>
      <point x="146.06" y="387.265"/>
      <point x="201.274" y="448.756" type="curve"/>
      <point x="182.718" y="465.251" type="line"/>
      <point x="127.704" y="404.264"/>
      <point x="92" y="329.3"/>
      <point x="92" y="244" type="curve"/>
      <point x="92" y="144"/>
      <point x="146" y="85"/>
    </contour>
    <contour>
      <point x="106" y="312" type="curve"/>
      <point x="106" y="312" type="line"/>
      <point x="113" y="345" type="line"/>
      <point x="77" y="390"/>
      <point x="54" y="445"/>
      <point x="54" y="506" type="curve"/>
      <point x="54" y="632"/>
      <point x="148" y="734"/>
      <point x="272" y="734" type="curve"/>
      <point x="399" y="734"/>
      <point x="490" y="634"/>
      <point x="490" y="499" type="curve"/>
      <point x="490" y="443.532"/>
      <point x="475.367" y="384.406"/>
      <point x="444.35" y="340.864" type="curve"/>
      <point x="464.205" y="325.712" type="line"/>
      <point x="496.675" y="371.299"/>
      <point x="516" y="433.809"/>
      <point x="516" y="500" type="curve"/>
      <point x="516" y="654"/>
      <point x="412" y="759"/>
      <point x="274" y="759" type="curve"/>
      <point x="131" y="759"/>
      <point x="28" y="647"/>
      <point x="28" y="507" type="curve"/>
      <point x="28" y="432"/>
      <point x="58" y="361"/>
    </contour>
  </outline>
</glyph>
<glyph name="jha-oriya" format="2">
  <advance width="503"/>
  <unicode hex="0B1D"/>
  <note>
jhaorya
</note>
  <anchor x="234" y="0" name="bottom"/>
  <anchor x="385" y="0" name="bottom_ra"/>
  <anchor x="281" y="658" name="top"/>
  <anchor x="437" y="658" name="topright"/>
  <outline>
    <contour>
      <point x="113" y="208" type="curve"/>
      <point x="113" y="208" type="line"/>
      <point x="123" y="234" type="line"/>
      <point x="76" y="277"/>
      <point x="54" y="338"/>
      <point x="54" y="406" type="curve"/>
      <point x="54" y="542"/>
      <point x="141" y="641"/>
      <point x="279" y="641" type="curve"/>
      <point x="289" y="641"/>
      <point x="291" y="641"/>
      <point x="301" y="641" type="curve"/>
      <point x="301" y="666" type="line"/>
      <point x="291" y="666"/>
      <point x="291" y="666"/>
      <point x="281" y="666" type="curve"/>
      <point x="122" y="666"/>
      <point x="28" y="552"/>
      <point x="28" y="410" type="curve"/>
      <point x="28" y="327"/>
      <point x="60" y="256"/>
    </contour>
    <contour>
      <point x="330" y="71" type="line"/>
      <point x="440.569" y="-8.202" type="line"/>
      <point x="453.87" y="12.898" type="line"/>
      <point x="340" y="94" type="line"/>
    </contour>
    <contour>
      <point x="234" y="-8" type="curve"/>
      <point x="234" y="-8" type="line"/>
      <point x="316" y="-8"/>
      <point x="370" y="63"/>
      <point x="370" y="170" type="curve"/>
      <point x="370" y="276"/>
      <point x="316" y="347"/>
      <point x="234" y="347" type="curve"/>
      <point x="152" y="347"/>
      <point x="98" y="276"/>
      <point x="98" y="170" type="curve"/>
      <point x="98" y="63"/>
      <point x="152" y="-8"/>
    </contour>
    <contour>
      <point x="234" y="17" type="curve"/>
      <point x="234" y="17" type="line"/>
      <point x="167" y="17"/>
      <point x="124" y="78"/>
      <point x="124" y="171" type="curve"/>
      <point x="124" y="263"/>
      <point x="167" y="322"/>
      <point x="234" y="322" type="curve"/>
      <point x="301" y="322"/>
      <point x="344" y="262"/>
      <point x="344" y="170" type="curve"/>
      <point x="344" y="77"/>
      <point x="301" y="17"/>
    </contour>
    <contour>
      <point x="372" y="407" type="curve"/>
      <point x="372" y="407" type="line"/>
      <point x="310" y="407"/>
      <point x="273" y="450"/>
      <point x="273" y="523" type="curve"/>
      <point x="273" y="569"/>
      <point x="286" y="613"/>
      <point x="314" y="647" type="curve"/>
      <point x="301" y="666" type="line"/>
      <point x="264" y="627"/>
      <point x="247" y="576"/>
      <point x="247" y="521" type="curve"/>
      <point x="247" y="434"/>
      <point x="293" y="382"/>
      <point x="372" y="382" type="curve"/>
      <point x="451" y="382"/>
      <point x="497" y="434"/>
      <point x="497" y="521" type="curve"/>
      <point x="497" y="576"/>
      <point x="480" y="627"/>
      <point x="443" y="666" type="curve"/>
      <point x="425" y="648" type="line"/>
      <point x="456" y="613"/>
      <point x="471" y="570"/>
      <point x="471" y="523" type="curve"/>
      <point x="471" y="450"/>
      <point x="434" y="407"/>
    </contour>
  </outline>
</glyph>
<glyph name="nya-oriya" format="2">
  <advance width="515"/>
  <unicode hex="0B1E"/>
  <note>
nyaorya
</note>
  <anchor x="295" y="0" name="bottom"/>
  <anchor x="461" y="0" name="bottom_ra"/>
  <anchor x="262" y="658" name="top"/>
  <anchor x="431" y="658" name="topright"/>
  <outline>
    <contour>
      <point x="262" y="-8" type="curve"/>
      <point x="262" y="-8" type="line"/>
      <point x="409" y="-8"/>
      <point x="485" y="70"/>
      <point x="485" y="213" type="curve"/>
      <point x="485" y="312"/>
      <point x="449" y="373"/>
      <point x="393" y="373" type="curve"/>
      <point x="342" y="373"/>
      <point x="298" y="323"/>
      <point x="298" y="233" type="curve"/>
      <point x="318" y="233" type="line"/>
      <point x="318" y="318"/>
      <point x="270" y="360"/>
      <point x="222" y="360" type="curve"/>
      <point x="165" y="360"/>
      <point x="138" y="310"/>
      <point x="138" y="249" type="curve"/>
      <point x="138" y="216"/>
      <point x="146" y="177"/>
      <point x="163" y="142" type="curve"/>
      <point x="185" y="153" type="line"/>
      <point x="171" y="185"/>
      <point x="164" y="222"/>
      <point x="164" y="251" type="curve"/>
      <point x="164" y="299"/>
      <point x="184" y="335"/>
      <point x="226" y="335" type="curve"/>
      <point x="270" y="335"/>
      <point x="295" y="295"/>
      <point x="295" y="229" type="curve"/>
      <point x="295" y="145" type="line"/>
      <point x="321" y="145" type="line"/>
      <point x="321" y="228" type="line" smooth="yes"/>
      <point x="321" y="303"/>
      <point x="348" y="348"/>
      <point x="389" y="348" type="curve"/>
      <point x="434" y="348"/>
      <point x="459" y="296"/>
      <point x="459" y="216" type="curve"/>
      <point x="459" y="84"/>
      <point x="392" y="17"/>
      <point x="265" y="17" type="curve"/>
      <point x="127" y="17"/>
      <point x="56" y="95"/>
      <point x="56" y="237" type="curve"/>
      <point x="56" y="317"/>
      <point x="79" y="365"/>
      <point x="104" y="407" type="curve"/>
      <point x="86" y="427" type="line"/>
      <point x="50" y="374"/>
      <point x="30" y="313"/>
      <point x="30" y="234" type="curve"/>
      <point x="30" y="77"/>
      <point x="111" y="-8"/>
    </contour>
    <contour>
      <point x="264" y="334" type="curve"/>
      <point x="264" y="334" type="line"/>
      <point x="401" y="334"/>
      <point x="471" y="403"/>
      <point x="471" y="532" type="curve"/>
      <point x="471" y="622"/>
      <point x="437" y="666"/>
      <point x="384" y="666" type="curve"/>
      <point x="336" y="666"/>
      <point x="295" y="630"/>
      <point x="295" y="563" type="curve"/>
      <point x="314" y="563" type="line"/>
      <point x="314" y="625"/>
      <point x="278" y="666"/>
      <point x="225" y="666" type="curve"/>
      <point x="169" y="666"/>
      <point x="142" y="620"/>
      <point x="142" y="559" type="curve"/>
      <point x="142" y="525"/>
      <point x="150" y="485"/>
      <point x="167" y="446" type="curve"/>
      <point x="190" y="458" type="line"/>
      <point x="175" y="492"/>
      <point x="168" y="528"/>
      <point x="168" y="559" type="curve"/>
      <point x="168" y="605"/>
      <point x="185" y="641"/>
      <point x="227" y="641" type="curve"/>
      <point x="268" y="641"/>
      <point x="292" y="606"/>
      <point x="292" y="546" type="curve"/>
      <point x="292" y="448" type="line"/>
      <point x="318" y="448" type="line"/>
      <point x="318" y="560" type="line" smooth="yes"/>
      <point x="318" y="612"/>
      <point x="342" y="641"/>
      <point x="380" y="641" type="curve"/>
      <point x="424" y="641"/>
      <point x="445" y="602"/>
      <point x="445" y="534" type="curve"/>
      <point x="445" y="418"/>
      <point x="385" y="359"/>
      <point x="264" y="359" type="curve"/>
      <point x="139" y="359"/>
      <point x="75" y="422"/>
      <point x="75" y="541" type="curve"/>
      <point x="75" y="585"/>
      <point x="84" y="617"/>
      <point x="96" y="651" type="curve"/>
      <point x="72" y="659" type="line"/>
      <point x="59" y="628"/>
      <point x="49" y="583"/>
      <point x="49" y="535" type="curve"/>
      <point x="49" y="405"/>
      <point x="127" y="334"/>
    </contour>
  </outline>
</glyph>
<glyph name="tta-oriya" format="2">
  <advance width="494"/>
  <unicode hex="0B1F"/>
  <note>
ttaorya
</note>
  <anchor x="234" y="0" name="bottom"/>
  <anchor x="442" y="0" name="bottom_ra"/>
  <anchor x="229" y="658" name="top"/>
  <anchor x="429" y="658" name="topright"/>
  <outline>
    <contour>
      <point x="106" y="214" type="curve"/>
      <point x="106" y="214" type="line"/>
      <point x="116" y="241" type="line"/>
      <point x="74" y="289"/>
      <point x="54" y="349"/>
      <point x="54" y="420" type="curve"/>
      <point x="54" y="567"/>
      <point x="143" y="641"/>
      <point x="233" y="641" type="curve"/>
      <point x="336" y="641"/>
      <point x="420" y="569"/>
      <point x="420" y="390" type="curve"/>
      <point x="442" y="401" type="line"/>
      <point x="440" y="589"/>
      <point x="344" y="666"/>
      <point x="229" y="666" type="curve"/>
      <point x="128" y="666"/>
      <point x="28" y="584"/>
      <point x="28" y="421" type="curve"/>
      <point x="28" y="340"/>
      <point x="53" y="269"/>
    </contour>
    <contour>
      <point x="416" y="480" type="line"/>
      <point x="416" y="347" type="line"/>
      <point x="442" y="347" type="line"/>
      <point x="442" y="658" type="line"/>
      <point x="416" y="658" type="line"/>
      <point x="416" y="495" type="line"/>
    </contour>
    <contour>
      <point x="234" y="-8" type="curve"/>
      <point x="234" y="-8" type="line"/>
      <point x="316" y="-8"/>
      <point x="370" y="63"/>
      <point x="370" y="170" type="curve"/>
      <point x="370" y="276"/>
      <point x="316" y="347"/>
      <point x="234" y="347" type="curve"/>
      <point x="152" y="347"/>
      <point x="98" y="276"/>
      <point x="98" y="170" type="curve"/>
      <point x="98" y="63"/>
      <point x="152" y="-8"/>
    </contour>
    <contour>
      <point x="234" y="17" type="curve"/>
      <point x="234" y="17" type="line"/>
      <point x="167" y="17"/>
      <point x="124" y="78"/>
      <point x="124" y="171" type="curve"/>
      <point x="124" y="263"/>
      <point x="167" y="322"/>
      <point x="234" y="322" type="curve"/>
      <point x="301" y="322"/>
      <point x="344" y="262"/>
      <point x="344" y="170" type="curve"/>
      <point x="344" y="77"/>
      <point x="301" y="17"/>
    </contour>
  </outline>
</glyph>
<glyph name="tta-oriya.sans" format="2">
  <advance width="494"/>
  <unicode hex="0B1F"/>
  <note>
ttaorya
</note>
  <anchor x="234" y="93" name="bottom"/>
  <anchor x="442" y="93" name="bottom_ra"/>
  <anchor x="229" y="751" name="top"/>
  <anchor x="429" y="751" name="topright"/>
  <outline>
    <contour>
      <point x="106" y="307" type="curve"/>
      <point x="106" y="307" type="line"/>
      <point x="116" y="334" type="line"/>
      <point x="74" y="382"/>
      <point x="54" y="442"/>
      <point x="54" y="513" type="curve"/>
      <point x="54" y="660"/>
      <point x="143" y="734"/>
      <point x="233" y="734" type="curve"/>
      <point x="336" y="734"/>
      <point x="420" y="662"/>
      <point x="420" y="483" type="curve"/>
      <point x="442" y="494" type="line"/>
      <point x="440" y="682"/>
      <point x="344" y="759"/>
      <point x="229" y="759" type="curve"/>
      <point x="128" y="759"/>
      <point x="28" y="677"/>
      <point x="28" y="514" type="curve"/>
      <point x="28" y="433"/>
      <point x="53" y="362"/>
    </contour>
    <contour>
      <point x="416" y="573" type="line"/>
      <point x="416" y="440" type="line"/>
      <point x="442" y="440" type="line"/>
      <point x="442" y="751" type="line"/>
      <point x="416" y="751" type="line"/>
      <point x="416" y="588" type="line"/>
    </contour>
    <contour>
      <point x="234" y="85" type="curve"/>
      <point x="234" y="85" type="line"/>
      <point x="316" y="85"/>
      <point x="370" y="156"/>
      <point x="370" y="263" type="curve"/>
      <point x="370" y="369"/>
      <point x="316" y="440"/>
      <point x="234" y="440" type="curve"/>
      <point x="152" y="440"/>
      <point x="98" y="369"/>
      <point x="98" y="263" type="curve"/>
      <point x="98" y="156"/>
      <point x="152" y="85"/>
    </contour>
    <contour>
      <point x="234" y="110" type="curve"/>
      <point x="234" y="110" type="line"/>
      <point x="167" y="110"/>
      <point x="124" y="171"/>
      <point x="124" y="264" type="curve"/>
      <point x="124" y="356"/>
      <point x="167" y="415"/>
      <point x="234" y="415" type="curve"/>
      <point x="301" y="415"/>
      <point x="344" y="355"/>
      <point x="344" y="263" type="curve"/>
      <point x="344" y="170"/>
      <point x="301" y="110"/>
    </contour>
  </outline>
</glyph>
<glyph name="ttha-oriya" format="2">
  <advance width="551"/>
  <unicode hex="0B20"/>
  <note>
tthaorya
</note>
  <anchor x="276" y="0" name="bottom"/>
  <anchor x="473" y="0" name="bottom_ra"/>
  <anchor x="276" y="658" name="top"/>
  <anchor x="463" y="658" name="topright"/>
  <outline>
    <contour>
      <point x="276" y="-7" type="curve"/>
      <point x="276" y="-7" type="line"/>
      <point x="423" y="-7"/>
      <point x="523" y="130"/>
      <point x="523" y="330" type="curve"/>
      <point x="523" y="530"/>
      <point x="423" y="666"/>
      <point x="276" y="666" type="curve"/>
      <point x="129" y="666"/>
      <point x="28" y="530"/>
      <point x="28" y="330" type="curve"/>
      <point x="28" y="130"/>
      <point x="129" y="-7"/>
    </contour>
    <contour>
      <point x="276" y="18" type="curve"/>
      <point x="276" y="18" type="line"/>
      <point x="144" y="18"/>
      <point x="54" y="145"/>
      <point x="54" y="331" type="curve"/>
      <point x="54" y="515"/>
      <point x="144" y="641"/>
      <point x="276" y="641" type="curve"/>
      <point x="407" y="641"/>
      <point x="497" y="515"/>
      <point x="497" y="331" type="curve"/>
      <point x="497" y="145"/>
      <point x="407" y="18"/>
    </contour>
  </outline>
</glyph>
<glyph name="ttha-oriya.sans" format="2">
  <advance width="551"/>
  <unicode hex="0B20"/>
  <note>
tthaorya
</note>
  <anchor x="276" y="93" name="bottom"/>
  <anchor x="473" y="93" name="bottom_ra"/>
  <anchor x="276" y="751" name="top"/>
  <anchor x="463" y="751" name="topright"/>
  <outline>
    <contour>
      <point x="276" y="86" type="curve"/>
      <point x="276" y="86" type="line"/>
      <point x="423" y="86"/>
      <point x="523" y="223"/>
      <point x="523" y="423" type="curve"/>
      <point x="523" y="623"/>
      <point x="423" y="759"/>
      <point x="276" y="759" type="curve"/>
      <point x="129" y="759"/>
      <point x="28" y="623"/>
      <point x="28" y="423" type="curve"/>
      <point x="28" y="223"/>
      <point x="129" y="86"/>
    </contour>
    <contour>
      <point x="276" y="111" type="curve"/>
      <point x="276" y="111" type="line"/>
      <point x="144" y="111"/>
      <point x="54" y="238"/>
      <point x="54" y="424" type="curve"/>
      <point x="54" y="608"/>
      <point x="144" y="734"/>
      <point x="276" y="734" type="curve"/>
      <point x="407" y="734"/>
      <point x="497" y="608"/>
      <point x="497" y="424" type="curve"/>
      <point x="497" y="238"/>
      <point x="407" y="111"/>
    </contour>
  </outline>
</glyph>
<glyph name="dda-oriya.sans" format="2">
  <advance width="521"/>
  <unicode hex="0B21"/>
  <note>
ddaorya
</note>
  <anchor x="246" y="93" name="bottom"/>
  <anchor x="450" y="93" name="bottom_ra"/>
  <anchor x="246" y="3" name="nukta"/>
  <anchor x="262" y="751" name="top"/>
  <anchor x="448" y="751" name="topright"/>
  <outline>
    <contour>
      <point x="116" y="300" type="curve"/>
      <point x="116" y="300" type="line"/>
      <point x="124" y="327" type="line"/>
      <point x="82" y="371"/>
      <point x="54" y="435"/>
      <point x="54" y="507" type="curve"/>
      <point x="54" y="634"/>
      <point x="143" y="734"/>
      <point x="262" y="734" type="curve"/>
      <point x="381" y="734"/>
      <point x="467" y="635"/>
      <point x="467" y="500" type="curve"/>
      <point x="467" y="443.51"/>
      <point x="452.333" y="386.104"/>
      <point x="421.242" y="340.947" type="curve"/>
      <point x="441.205" y="325.712" type="line"/>
      <point x="473.675" y="371.301"/>
      <point x="493" y="433.85"/>
      <point x="493" y="501" type="curve"/>
      <point x="493" y="654"/>
      <point x="393" y="759"/>
      <point x="262" y="759" type="curve"/>
      <point x="126" y="759"/>
      <point x="28" y="648"/>
      <point x="28" y="507" type="curve"/>
      <point x="28" y="423"/>
      <point x="63" y="345"/>
    </contour>
    <contour>
      <point x="105" y="257" type="curve"/>
      <point x="105" y="257" type="line"/>
      <point x="105" y="154"/>
      <point x="156" y="85"/>
      <point x="246" y="85" type="curve"/>
      <point x="334" y="85"/>
      <point x="381" y="152"/>
      <point x="381" y="230" type="curve"/>
      <point x="381" y="283"/>
      <point x="359" y="340"/>
      <point x="313" y="383" type="curve"/>
      <point x="298" y="364" type="line"/>
      <point x="336" y="329"/>
      <point x="355" y="279"/>
      <point x="355" y="232" type="curve"/>
      <point x="355" y="167"/>
      <point x="318" y="110"/>
      <point x="246" y="110" type="curve"/>
      <point x="172" y="110"/>
      <point x="131" y="170"/>
      <point x="131" y="257" type="curve"/>
      <point x="131" y="326"/>
      <point x="160" y="388"/>
      <point x="215" y="450" type="curve"/>
      <point x="197" y="466" type="line"/>
      <point x="137" y="399"/>
      <point x="105" y="323"/>
    </contour>
    <contour>
      <point x="236" y="306" type="line"/>
      <point x="254" y="291" type="line"/>
      <point x="368" y="438" type="line"/>
      <point x="350" y="453" type="line"/>
    </contour>
  </outline>
</glyph>
<glyph name="ddha-oriya" format="2">
  <advance width="521"/>
  <unicode hex="0B22"/>
  <note>
ddhaorya
</note>
  <anchor x="224" y="0" name="bottom"/>
  <anchor x="469" y="0" name="bottom_ra"/>
  <anchor x="262" y="-90" name="nukta"/>
  <anchor x="275" y="658" name="top"/>
  <anchor x="448" y="658" name="topright"/>
  <outline>
    <contour>
      <point x="98" y="154" type="curve"/>
      <point x="98" y="154" type="line"/>
      <point x="98" y="70"/>
      <point x="136" y="-8"/>
      <point x="224" y="-8" type="curve"/>
      <point x="333" y="-8"/>
      <point x="381" y="110"/>
      <point x="381" y="192" type="curve"/>
      <point x="381" y="270"/>
      <point x="337" y="308"/>
      <point x="295" y="308" type="curve"/>
      <point x="253" y="308"/>
      <point x="210" y="270"/>
      <point x="210" y="189" type="curve"/>
      <point x="210" y="110"/>
      <point x="250" y="19"/>
      <point x="378" y="-30" type="curve"/>
      <point x="387" y="-10" type="line"/>
      <point x="278" y="35"/>
      <point x="236" y="103"/>
      <point x="236" y="188" type="curve"/>
      <point x="236" y="252"/>
      <point x="264" y="283"/>
      <point x="295" y="283" type="curve"/>
      <point x="326" y="283"/>
      <point x="355" y="252"/>
      <point x="355" y="186" type="curve"/>
      <point x="355" y="102"/>
      <point x="305" y="17"/>
      <point x="224" y="17" type="curve"/>
      <point x="153" y="17"/>
      <point x="124" y="83"/>
      <point x="124" y="155" type="curve"/>
      <point x="124" y="221"/>
      <point x="148" y="292"/>
      <point x="211" y="361" type="curve"/>
      <point x="192" y="378" type="line"/>
      <point x="126" y="304"/>
      <point x="98" y="228"/>
    </contour>
    <contour>
      <point x="116" y="207" type="curve"/>
      <point x="116" y="207" type="line"/>
      <point x="124" y="234" type="line"/>
      <point x="82" y="278"/>
      <point x="54" y="342"/>
      <point x="54" y="414" type="curve"/>
      <point x="54" y="541"/>
      <point x="143" y="641"/>
      <point x="262" y="641" type="curve"/>
      <point x="381" y="641"/>
      <point x="467" y="542"/>
      <point x="467" y="407" type="curve"/>
      <point x="467" y="351"/>
      <point x="452" y="293"/>
      <point x="421" y="248" type="curve"/>
      <point x="441" y="233" type="line"/>
      <point x="474" y="278"/>
      <point x="493" y="341"/>
      <point x="493" y="408" type="curve"/>
      <point x="493" y="561"/>
      <point x="393" y="666"/>
      <point x="262" y="666" type="curve"/>
      <point x="126" y="666"/>
      <point x="28" y="555"/>
      <point x="28" y="414" type="curve"/>
      <point x="28" y="330"/>
      <point x="63" y="252"/>
    </contour>
  </outline>
</glyph>
<glyph name="ddha-oriya.sans" format="2">
  <advance width="521"/>
  <unicode hex="0B22"/>
  <note>
ddhaorya
</note>
  <anchor x="224" y="93" name="bottom"/>
  <anchor x="469" y="93" name="bottom_ra"/>
  <anchor x="262" y="3" name="nukta"/>
  <anchor x="275" y="751" name="top"/>
  <anchor x="448" y="751" name="topright"/>
  <outline>
    <contour>
      <point x="98" y="247" type="curve"/>
      <point x="98" y="247" type="line"/>
      <point x="98" y="163"/>
      <point x="136" y="85"/>
      <point x="224" y="85" type="curve"/>
      <point x="333" y="85"/>
      <point x="381" y="203"/>
      <point x="381" y="285" type="curve"/>
      <point x="381" y="363"/>
      <point x="337" y="401"/>
      <point x="295" y="401" type="curve"/>
      <point x="253" y="401"/>
      <point x="210" y="363"/>
      <point x="210" y="282" type="curve"/>
      <point x="210" y="203"/>
      <point x="250" y="112"/>
      <point x="378" y="63" type="curve"/>
      <point x="387" y="83" type="line"/>
      <point x="278" y="128"/>
      <point x="236" y="196"/>
      <point x="236" y="281" type="curve"/>
      <point x="236" y="345"/>
      <point x="264" y="376"/>
      <point x="295" y="376" type="curve"/>
      <point x="326" y="376"/>
      <point x="355" y="345"/>
      <point x="355" y="279" type="curve"/>
      <point x="355" y="195"/>
      <point x="305" y="110"/>
      <point x="224" y="110" type="curve"/>
      <point x="153" y="110"/>
      <point x="124" y="176"/>
      <point x="124" y="248" type="curve"/>
      <point x="124" y="314"/>
      <point x="148" y="385"/>
      <point x="211" y="454" type="curve"/>
      <point x="192" y="471" type="line"/>
      <point x="126" y="397"/>
      <point x="98" y="321"/>
    </contour>
    <contour>
      <point x="116" y="300" type="curve"/>
      <point x="116" y="300" type="line"/>
      <point x="124" y="327" type="line"/>
      <point x="82" y="371"/>
      <point x="54" y="435"/>
      <point x="54" y="507" type="curve"/>
      <point x="54" y="634"/>
      <point x="143" y="734"/>
      <point x="262" y="734" type="curve"/>
      <point x="381" y="734"/>
      <point x="467" y="635"/>
      <point x="467" y="500" type="curve"/>
      <point x="467" y="444"/>
      <point x="452" y="386"/>
      <point x="421" y="341" type="curve"/>
      <point x="441" y="326" type="line"/>
      <point x="474" y="371"/>
      <point x="493" y="434"/>
      <point x="493" y="501" type="curve"/>
      <point x="493" y="654"/>
      <point x="393" y="759"/>
      <point x="262" y="759" type="curve"/>
      <point x="126" y="759"/>
      <point x="28" y="648"/>
      <point x="28" y="507" type="curve"/>
      <point x="28" y="423"/>
      <point x="63" y="345"/>
    </contour>
  </outline>
</glyph>
<glyph name="nna-oriya" format="2">
  <advance width="534"/>
  <unicode hex="0B23"/>
  <note>
nnaorya
</note>
  <anchor x="456" y="0" name="bottom"/>
  <anchor x="482" y="0" name="bottom_ra"/>
  <anchor x="274" y="658" name="top"/>
  <anchor x="469" y="658" name="topright"/>
  <outline>
    <contour>
      <point x="28" y="240" type="curve"/>
      <point x="28" y="240" type="line"/>
      <point x="28" y="106"/>
      <point x="94" y="-8"/>
      <point x="218" y="-8" type="curve"/>
      <point x="307" y="-8"/>
      <point x="370" y="51"/>
      <point x="370" y="130" type="curve"/>
      <point x="370" y="204"/>
      <point x="312" y="279"/>
      <point x="193" y="279" type="curve"/>
      <point x="142" y="279"/>
      <point x="86" y="265"/>
      <point x="37" y="238" type="curve"/>
      <point x="38" y="210" type="line"/>
      <point x="83" y="239"/>
      <point x="138" y="254"/>
      <point x="190" y="254" type="curve"/>
      <point x="294" y="254"/>
      <point x="344" y="191"/>
      <point x="344" y="130" type="curve"/>
      <point x="344" y="70"/>
      <point x="296" y="17"/>
      <point x="219" y="17" type="curve"/>
      <point x="112" y="17"/>
      <point x="54" y="118"/>
      <point x="54" y="242" type="curve"/>
      <point x="54" y="362"/>
      <point x="108" y="435"/>
      <point x="199" y="435" type="curve"/>
      <point x="224.699" y="435"/>
      <point x="253.632" y="429.07"/>
      <point x="285.404" y="416.418" type="curve"/>
      <point x="294.886" y="438.753" type="line"/>
      <point x="260.612" y="453.064"/>
      <point x="228.65" y="460"/>
      <point x="199" y="460" type="curve"/>
      <point x="96" y="460"/>
      <point x="28" y="375"/>
    </contour>
    <contour>
      <point x="456" y="495" type="line"/>
      <point x="456" y="0" type="line"/>
      <point x="482" y="0" type="line"/>
      <point x="482" y="658" type="line"/>
      <point x="456" y="658" type="line"/>
      <point x="456" y="507" type="line"/>
    </contour>
    <contour>
      <point x="264" y="641" type="curve"/>
      <point x="264" y="641" type="line"/>
      <point x="347" y="641"/>
      <point x="460" y="564"/>
      <point x="460" y="398" type="curve"/>
      <point x="482" y="398" type="line"/>
      <point x="482" y="578"/>
      <point x="361" y="666"/>
      <point x="263" y="666" type="curve"/>
      <point x="183" y="666"/>
      <point x="126" y="608"/>
      <point x="126" y="517" type="curve"/>
      <point x="126" y="496"/>
      <point x="129" y="468"/>
      <point x="141" y="438" type="curve"/>
      <point x="163" y="451" type="line"/>
      <point x="155" y="472"/>
      <point x="152" y="499"/>
      <point x="152" y="518" type="curve"/>
      <point x="152" y="600"/>
      <point x="203" y="641"/>
    </contour>
  </outline>
</glyph>
<glyph name="ta-oriya" format="2">
  <advance width="522"/>
  <unicode hex="0B24"/>
  <note>
taorya
</note>
  <anchor x="242" y="0" name="bottom"/>
  <anchor x="440" y="0" name="bottom_ra"/>
  <anchor x="259" y="658" name="top"/>
  <anchor x="449" y="658" name="topright"/>
  <outline>
    <contour>
      <point x="28" y="418" type="curve"/>
      <point x="28" y="418" type="line"/>
      <point x="28" y="328"/>
      <point x="62" y="250"/>
      <point x="124" y="206" type="curve"/>
      <point x="132" y="231" type="line"/>
      <point x="81" y="275"/>
      <point x="54" y="340"/>
      <point x="54" y="417" type="curve"/>
      <point x="54" y="565"/>
      <point x="155" y="641"/>
      <point x="260" y="641" type="curve"/>
      <point x="365" y="641"/>
      <point x="468" y="564"/>
      <point x="468" y="410" type="curve"/>
      <point x="468" y="350.638"/>
      <point x="453.333" y="293.109"/>
      <point x="422.242" y="247.947" type="curve"/>
      <point x="442.205" y="232.712" type="line"/>
      <point x="474.675" y="278.304"/>
      <point x="494" y="340.931"/>
      <point x="494" y="410" type="curve"/>
      <point x="494" y="580"/>
      <point x="377" y="666"/>
      <point x="259" y="666" type="curve"/>
      <point x="143" y="666"/>
      <point x="28" y="582"/>
    </contour>
    <contour>
      <point x="105" y="161" type="curve"/>
      <point x="105" y="161" type="line"/>
      <point x="105" y="64"/>
      <point x="163" y="-8"/>
      <point x="242" y="-8" type="curve"/>
      <point x="313" y="-8"/>
      <point x="382" y="49"/>
      <point x="382" y="161" type="curve"/>
      <point x="382" y="246"/>
      <point x="343" y="311"/>
      <point x="293" y="311" type="curve"/>
      <point x="265" y="311"/>
      <point x="251" y="287"/>
      <point x="251" y="263" type="curve"/>
      <point x="251" y="239"/>
      <point x="264" y="216"/>
      <point x="288" y="216" type="curve"/>
      <point x="312" y="216"/>
      <point x="323" y="237"/>
      <point x="323" y="258" type="curve"/>
      <point x="323" y="279"/>
      <point x="312" y="300"/>
      <point x="288" y="301" type="curve"/>
      <point x="295" y="285" type="line"/>
      <point x="342" y="285"/>
      <point x="356" y="204"/>
      <point x="356" y="159" type="curve"/>
      <point x="356" y="65"/>
      <point x="300" y="17"/>
      <point x="244" y="17" type="curve"/>
      <point x="179" y="17"/>
      <point x="131" y="78"/>
      <point x="131" y="163" type="curve"/>
      <point x="131" y="235"/>
      <point x="165" y="301"/>
      <point x="215" y="357" type="curve"/>
      <point x="197" y="373" type="line"/>
      <point x="141" y="312"/>
      <point x="105" y="237"/>
    </contour>
  </outline>
</glyph>
